<?xml version="1.0" encoding="UTF-8" standalone="no"?>
<!-- Created with Inkscape (http://www.inkscape.org/) -->

<svg
   version="1.1"
   id="svg2"
   width="219"
   height="63"
   viewBox="0 0 219 63.000002"
   sodipodi:docname="white.svg"
   inkscape:version="1.2.1 (9c6d41e410, 2022-07-14)"
   inkscape:export-filename="dark.svg"
   inkscape:export-xdpi="96"
   inkscape:export-ydpi="96"
   xmlns:inkscape="http://www.inkscape.org/namespaces/inkscape"
   xmlns:sodipodi="http://sodipodi.sourceforge.net/DTD/sodipodi-0.dtd"
   xmlns="http://www.w3.org/2000/svg"
   xmlns:svg="http://www.w3.org/2000/svg">
  <defs
     id="defs6" />
  <sodipodi:namedview
     id="namedview4"
     pagecolor="#ffffff"
     bordercolor="#666666"
     borderopacity="1.0"
     inkscape:showpageshadow="2"
     inkscape:pageopacity="0.0"
     inkscape:pagecheckerboard="0"
     inkscape:deskcolor="#d1d1d1"
     showgrid="false"
     inkscape:zoom="4"
     inkscape:cx="57.75"
     inkscape:cy="40.125"
     inkscape:window-width="1489"
     inkscape:window-height="750"
     inkscape:window-x="733"
     inkscape:window-y="277"
     inkscape:window-maximized="0"
     inkscape:current-layer="g3266" />
  <g
     id="g3266"
     inkscape:export-filename="../../oxybuild-react/public/images/logo/dark.png"
     inkscape:export-xdpi="27.986971"
     inkscape:export-ydpi="27.986971"
     transform="matrix(0.25913862,0,0,-0.25913862,-69.506653,111.61548)"
     inkscape:label="logotipo">
    <g
       aria-label="Amarilla"
       transform="matrix(0.92624335,0,0,-0.92624335,50.746259,22.967254)"
       id="text970-8"
       style="font-size:144px;line-height:0;font-family:'Phetsarath OT';-inkscape-font-specification:'Phetsarath OT';text-align:center;text-anchor:middle;fill:#333333;stroke-width:4.60397"
       inkscape:label="amarilla">
      <path
         d="m 514.69832,-272.65709 43.99743,-114.56525 h 16.33297 l 46.88891,114.56525 h -17.27075 l -13.36334,-34.6978 h -47.90483 l -12.58186,34.6978 z m 33.05669,-47.04522 h 38.83964 l -11.95667,-31.72815 q -5.47036,-14.45742 -8.12741,-23.75705 -2.18815,11.01889 -6.17371,21.88149 z"
         id="path5657"
         style="fill:#f2f2f2;fill-opacity:1;stroke-width:5.11704"
         inkscape:label="a" />
      <path
         d="m 632.23319,-272.65709 v -82.99338 h 12.58187 v 11.64408 q 3.9074,-6.09556 10.3937,-9.76852 6.4863,-3.75112 14.77001,-3.75112 9.22149,0 15.08259,3.82926 5.93926,3.82927 8.36186,10.70631 9.84668,-14.53557 25.6326,-14.53557 12.34742,0 18.99002,6.87704 6.64259,6.7989 6.64259,21.02186 v 56.97004 H 730.6999 v -52.28115 q 0,-8.44 -1.40666,-12.11296 -1.32852,-3.75111 -4.92334,-6.01742 -3.59481,-2.26629 -8.44,-2.26629 -8.7526,0 -14.53556,5.86112 -5.78297,5.78296 -5.78297,18.59926 v 48.21744 H 681.5447 v -53.92226 q 0,-9.37778 -3.43852,-14.06667 -3.43852,-4.68889 -11.25334,-4.68889 -5.93926,0 -11.01889,3.12593 -5.00149,3.12592 -7.26778,9.14333 -2.26631,6.01742 -2.26631,17.3489 v 43.05966 z"
         id="path5659"
         style="fill:#f2f2f2;fill-opacity:1;stroke-width:5.11704"
         inkscape:label="m" />
      <path
         d="m 819.71068,-282.89451 q -7.81481,6.64259 -15.08259,9.37778 -7.18964,2.73519 -15.47335,2.73519 -13.67592,0 -21.02186,-6.6426 -7.34592,-6.72074 -7.34592,-17.11445 0,-6.09556 2.73518,-11.09704 2.81333,-5.07963 7.26779,-8.12741 4.53259,-3.04779 10.15925,-4.61075 4.14186,-1.09407 12.50371,-2.10999 17.03631,-2.03186 25.08557,-4.8452 0.0781,-2.89148 0.0781,-3.67296 0,-8.5963 -3.98556,-12.11296 -5.39222,-4.76705 -16.02037,-4.76705 -9.92482,0 -14.69186,3.51668 -4.68889,3.43852 -6.9552,12.26926 l -13.75408,-1.87556 q 1.87556,-8.83074 6.17371,-14.22297 4.29815,-5.47037 12.42557,-8.36185 8.12741,-2.96964 18.8337,-2.96964 10.62816,0 17.27075,2.50075 6.6426,2.50074 9.76853,6.33 3.12593,3.75111 4.3763,9.53408 0.70333,3.59481 0.70333,12.97259 v 18.75557 q 0,19.61519 0.85963,24.85112 0.93778,5.15778 3.59481,9.92483 h -14.69185 q -2.18815,-4.3763 -2.81334,-10.23742 z m -1.17222,-31.41557 q -7.65852,3.12592 -22.97556,5.31407 -8.67445,1.25037 -12.26926,2.81334 -3.59483,1.56296 -5.54853,4.61074 -1.9537,2.96964 -1.9537,6.6426 0,5.62666 4.22,9.37778 4.29815,3.75111 12.50371,3.75111 8.12741,0 14.45741,-3.51667 6.33001,-3.59481 9.29963,-9.76852 2.2663,-4.76703 2.2663,-14.06667 z"
         id="path5661"
         style="fill:#f2f2f2;fill-opacity:1;stroke-width:5.11704"
         inkscape:label="a" />
      <path
         d="m 854.40848,-272.65709 v -82.99338 h 12.66001 v 12.58185 q 4.84518,-8.83074 8.90889,-11.64407 4.14185,-2.81334 9.06518,-2.81334 7.11149,0 14.45742,4.5326 l -4.84519,13.05074 q -5.15778,-3.04777 -10.31556,-3.04777 -4.61074,0 -8.28371,2.81334 -3.67296,2.73517 -5.23592,7.65851 -2.34445,7.50223 -2.34445,16.41113 v 43.45039 z"
         id="path5663"
         style="fill:#f2f2f2;fill-opacity:1;stroke-width:5.11704"
         inkscape:label="r" />
      <path
         d="m 907.93998,-371.04566 v -16.17668 h 14.06667 v 16.17668 z m 0,98.38857 -47.03314,37.1941 61.09981,-120.18748 v 82.99338 z"
         id="path5665"
         sodipodi:nodetypes="cccccccccc"
         style="fill:#f2f2f2;fill-opacity:1;stroke-width:5.11704"
         inkscape:label="i" />
      <path
         d="m 943.10667,-272.65709 v -114.56525 h 14.06667 v 114.56525 z"
         id="path5667"
         style="fill:#f2f2f2;fill-opacity:1;stroke-width:5.11704"
         inkscape:label="l" />
      <path
         d="m 978.66409,-272.65709 v -114.56525 h 14.06668 v 114.56525 z"
         id="path5669"
         style="fill:#f2f2f2;fill-opacity:1;stroke-width:5.11704"
         inkscape:label="l" />
      <path
         d="m 1068.6908,-282.89451 q -7.8148,6.64259 -15.0826,9.37778 -7.1896,2.73519 -15.4734,2.73519 -13.6759,0 -21.0218,-6.6426 -7.3459,-6.72074 -7.3459,-17.11445 0,-6.09556 2.7352,-11.09704 2.8133,-5.07963 7.2678,-8.12741 4.5325,-3.04779 10.1592,-4.61075 4.1419,-1.09407 12.5037,-2.10999 17.0363,-2.03186 25.0856,-4.8452 0.078,-2.89148 0.078,-3.67296 0,-8.5963 -3.9856,-12.11296 -5.3922,-4.76705 -16.0204,-4.76705 -9.9247,0 -14.6918,3.51668 -4.6889,3.43852 -6.9552,12.26926 l -13.7541,-1.87556 q 1.8756,-8.83074 6.1738,-14.22297 4.2982,-5.47037 12.4256,-8.36185 8.1274,-2.96964 18.8337,-2.96964 10.6281,0 17.2706,2.50075 6.6427,2.50074 9.7686,6.33 3.1259,3.75111 4.3763,9.53408 0.7033,3.59481 0.7033,12.97259 v 18.75557 q 0,19.61519 0.8596,24.85112 0.9378,5.15778 3.5949,9.92483 h -14.6918 q -2.1883,-4.3763 -2.8134,-10.23742 z m -1.1722,-31.41557 q -7.6585,3.12592 -22.9755,5.31407 -8.6745,1.25037 -12.2693,2.81334 -3.5949,1.56296 -5.5486,4.61074 -1.9537,2.96964 -1.9537,6.6426 0,5.62666 4.2201,9.37778 4.2981,3.75111 12.5037,3.75111 8.1274,0 14.4574,-3.51667 6.33,-3.59481 9.2996,-9.76852 2.2663,-4.76703 2.2663,-14.06667 z"
         id="path5671"
         style="fill:#f2f2f2;fill-opacity:1;stroke-width:5.11704"
         inkscape:label="a" />
      <path
         d="m 394.95908,-229.7844 v -65.02078 l -24.98657,-24.98657 -24.98736,24.98657 v 77.51446 l -74.96127,18.74051 v 15.8209 h 199.89647 v -65.7956 z"
         style="fill:#ff5e13;fill-opacity:1;fill-rule:nonzero;stroke:none;stroke-width:3.64376"
         id="path32-8"
         inkscape:label="casa" />
      <path
         d="m 368.02774,-439.24984 -129.40131,129.40208 c -1.73245,1.73168 -0.50572,4.69404 1.94378,4.69404 h 29.45346 v 106.59177 l 49.97471,-37.46894 v -69.12283 l 49.97392,-49.97392 49.97392,49.97392 v 44.13547 l 49.97392,12.55798 v -56.69345 h 29.45424 c 2.44952,0 3.67625,-2.96236 1.94458,-4.69404 L 371.91687,-439.24984 c -1.07399,-1.07398 -2.81515,-1.07398 -3.88913,0"
         style="fill:#0a369d;fill-opacity:1;fill-rule:nonzero;stroke:none;stroke-width:3.64376"
         id="path200-8"
         sodipodi:nodetypes="ccscccccccccsssc"
         inkscape:label="techo" />
      <path
         style="fill:#ffffff;fill-opacity:1;fill-rule:evenodd;stroke:#000000;stroke-width:0.111838;stroke-linejoin:bevel;stroke-dasharray:none;stroke-opacity:0.990461;paint-order:markers stroke fill"
         d="m 275.78387,-201.72061 c 0.29901,-0.46133 10.37493,-8.13619 22.39087,-17.05526 l 21.84719,-16.21648 0.0427,-34.67903 0.0427,-34.67905 24.89314,-24.87469 24.89313,-24.87469 24.87469,24.89313 24.87469,24.89312 v 21.94498 21.94497 l 23.76553,5.93248 23.76553,5.93247 -34.66971,8.70813 c -19.06835,4.78946 -35.29881,8.72261 -36.06769,8.74031 -1.08673,0.025 -1.39798,-7.13055 -1.39798,-32.13942 v -32.17162 l -12.59962,-12.56387 -12.59962,-12.56388 -12.56389,12.59962 -12.56388,12.59963 v 38.70669 38.7067 l -34.09748,8.52727 c -36.57857,9.14776 -35.64217,8.94106 -34.83027,7.68849 z"
         id="path7654"
         inkscape:label="relleno" />
    </g>
    <g
       aria-label="construcciones"
       transform="matrix(1.1517085,0,0,-1.1517085,-111.39014,-41.18302)"
       id="text910-3"
       style="font-size:46.3631px;line-height:1.25;font-family:'MADE Outer Sans';-inkscape-font-specification:'MADE Outer Sans';text-align:center;text-anchor:middle;display:inline;fill:#ff5e13;fill-opacity:1;stroke-width:1.15768;stroke-dasharray:none"
       inkscape:label="construcciones">
      <path
         d="m 590.67482,-236.15793 v 5.30119 q -2.40403,-1.3253 -4.83887,-1.97253 -2.40403,-0.67806 -4.8697,-0.67806 -5.51694,0 -8.5682,3.51358 -3.05127,3.48276 -3.05127,9.80103 0,6.31827 3.05127,9.83185 3.05126,3.48276 8.5682,3.48276 2.46567,0 4.8697,-0.64724 2.43484,-0.67805 4.83887,-2.00336 v 5.23955 q -2.3732,1.10955 -4.93134,1.66433 -2.52731,0.55478 -5.39365,0.55478 -7.79768,0 -12.38999,-4.90052 -4.5923,-4.90052 -4.5923,-13.22215 0,-8.44492 4.62312,-13.28379 4.65395,-4.83887 12.72902,-4.83887 2.61977,0 5.11627,0.55476 2.49648,0.52396 4.83887,1.60269 z"
         id="path482"
         inkscape:label="c"
         style="fill:#ff5e13;fill-opacity:1;stroke-width:1.15768;stroke-dasharray:none" />
      <path
         d="m 613.91375,-233.50733 q -4.56149,0 -7.21209,3.57521 -2.65059,3.5444 -2.65059,9.7394 0,6.19499 2.61977,9.77022 2.6506,3.54439 7.24291,3.54439 4.53067,0 7.18125,-3.57522 2.6506,-3.57522 2.6506,-9.73939 0,-6.13335 -2.6506,-9.70858 -2.65058,-3.60603 -7.18125,-3.60603 z m 0,-4.80805 q 7.397,0 11.61946,4.80805 4.22246,4.80805 4.22246,13.31461 0,8.47574 -4.22246,13.31461 -4.22246,4.80806 -11.61946,4.80806 -7.42784,0 -11.6503,-4.80806 -4.19162,-4.83887 -4.19162,-13.31461 0,-8.50656 4.19162,-13.31461 4.22246,-4.80805 11.6503,-4.80805 z"
         id="path484"
         inkscape:label="o"
         style="fill:#ff5e13;fill-opacity:1;stroke-width:1.15768;stroke-dasharray:none" />
      <path
         d="m 667.85025,-223.79877 v 20.83491 h -5.67103 v -20.64998 q 0,-4.90052 -1.9109,-7.33536 -1.91089,-2.43485 -5.73268,-2.43485 -4.59231,0 -7.24291,2.92798 -2.65059,2.92799 -2.65059,7.98261 v 19.5096 h -5.70186 v -34.51936 h 5.70186 v 5.36283 q 2.03418,-3.11291 4.77724,-4.65395 2.77387,-1.54104 6.37991,-1.54104 5.94843,0 8.9997,3.69849 3.05126,3.66769 3.05126,10.81812 z"
         id="path486"
         inkscape:label="n"
         style="fill:#ff5e13;fill-opacity:1;stroke-width:1.15768;stroke-dasharray:none" />
      <path
         d="m 701.1676,-236.46613 v 5.36282 q -2.40403,-1.23283 -4.99298,-1.84924 -2.58896,-0.61643 -5.36284,-0.61643 -4.22244,0 -6.34909,1.29448 -2.09581,1.29449 -2.09581,3.88344 0,1.97252 1.51021,3.1129 1.51022,1.10954 6.07171,2.12664 l 1.94172,0.43149 q 6.04088,1.29448 8.5682,3.66768 2.55812,2.34239 2.55812,6.56484 0,4.80806 -3.82178,7.61276 -3.79096,2.8047 -10.44827,2.8047 -2.77388,0 -5.79433,-0.55478 -2.98961,-0.52395 -6.31826,-1.60269 v -5.85595 q 3.14373,1.63349 6.19498,2.46565 3.05128,0.80135 6.04089,0.80135 4.00671,0 6.16418,-1.35611 2.15746,-1.38694 2.15746,-3.88343 0,-2.31157 -1.57186,-3.54441 -1.54104,-1.23283 -6.81141,-2.3732 l -1.97254,-0.46231 q -5.27037,-1.10955 -7.61275,-3.3903 -2.34239,-2.31156 -2.34239,-6.31828 0,-4.86969 3.45193,-7.52029 3.45195,-2.65058 9.80104,-2.65058 3.14372,0 5.9176,0.46231 2.77388,0.46231 5.11627,1.38694 z"
         id="path488"
         inkscape:label="s"
         style="fill:#ff5e13;fill-opacity:1;stroke-width:1.15768;stroke-dasharray:none" />
      <path
         d="m 717.65675,-247.28426 v 9.80104 h 11.68111 v 4.40739 h -11.68111 v 18.73907 q 0,4.22246 1.14038,5.42448 1.17119,1.20201 4.71558,1.20201 h 5.82515 v 4.74641 h -5.82515 q -6.56484,0 -9.06133,-2.43484 -2.49648,-2.46567 -2.49648,-8.93806 v -18.73907 h -4.16082 v -4.40739 h 4.16082 v -9.80104 z"
         id="path490"
         inkscape:label="t"
         style="fill:#ff5e13;fill-opacity:1;stroke-width:1.15768;stroke-dasharray:none" />
      <path
         d="m 756.79924,-232.18204 q -0.95544,-0.55476 -2.09582,-0.80134 -1.10954,-0.27738 -2.46567,-0.27738 -4.80805,0 -7.397,3.14373 -2.55813,3.1129 -2.55813,8.96886 v 18.18431 h -5.70186 v -34.51936 h 5.70186 v 5.36283 q 1.7876,-3.14373 4.65395,-4.65395 2.86633,-1.54104 6.96551,-1.54104 0.5856,0 1.29447,0.0924 0.70888,0.0617 1.57187,0.21575 z"
         id="path492"
         inkscape:label="r"
         style="fill:#ff5e13;fill-opacity:1;stroke-width:1.15768;stroke-dasharray:none" />
      <path
         d="m 762.16209,-216.58668 v -20.89654 h 5.67103 v 20.68079 q 0,4.90052 1.9109,7.36619 1.91089,2.43485 5.73268,2.43485 4.59231,0 7.24291,-2.92798 2.6814,-2.92798 2.6814,-7.9826 v -19.57125 h 5.67105 v 34.51936 h -5.67105 v -5.30119 q -2.06499,3.14373 -4.80805,4.68477 -2.71224,1.51023 -6.31828,1.51023 -5.94842,0 -9.03051,-3.69851 -3.08208,-3.6985 -3.08208,-10.81812 z m 14.27006,-21.7287 z"
         id="path494"
         inkscape:label="u"
         style="fill:#ff5e13;fill-opacity:1;stroke-width:1.15768;stroke-dasharray:none" />
      <path
         d="m 827.59476,-236.15793 v 5.30119 q -2.40403,-1.3253 -4.83888,-1.97253 -2.40402,-0.67806 -4.86969,-0.67806 -5.51694,0 -8.5682,3.51358 -3.05127,3.48276 -3.05127,9.80103 0,6.31827 3.05127,9.83185 3.05126,3.48276 8.5682,3.48276 2.46567,0 4.86969,-0.64724 2.43485,-0.67805 4.83888,-2.00336 v 5.23955 q -2.3732,1.10955 -4.93134,1.66433 -2.52731,0.55478 -5.39365,0.55478 -7.79768,0 -12.38999,-4.90052 -4.5923,-4.90052 -4.5923,-13.22215 0,-8.44492 4.62312,-13.28379 4.65396,-4.83887 12.72902,-4.83887 2.61977,0 5.11626,0.55476 2.4965,0.52396 4.83888,1.60269 z"
         id="path496"
         inkscape:label="c"
         style="fill:#ff5e13;fill-opacity:1;stroke-width:1.15768;stroke-dasharray:none" />
      <path
         d="m 862.29905,-236.15793 v 5.30119 q -2.40403,-1.3253 -4.83889,-1.97253 -2.40402,-0.67806 -4.86969,-0.67806 -5.51693,0 -8.56819,3.51358 -3.05127,3.48276 -3.05127,9.80103 0,6.31827 3.05127,9.83185 3.05126,3.48276 8.56819,3.48276 2.46567,0 4.86969,-0.64724 2.43486,-0.67805 4.83889,-2.00336 v 5.23955 q -2.37322,1.10955 -4.93135,1.66433 -2.5273,0.55478 -5.39364,0.55478 -7.79768,0 -12.38999,-4.90052 -4.59231,-4.90052 -4.59231,-13.22215 0,-8.44492 4.62313,-13.28379 4.65395,-4.83887 12.72902,-4.83887 2.61977,0 5.11625,0.55476 2.49649,0.52396 4.83889,1.60269 z"
         id="path498"
         inkscape:label="c"
         style="fill:#ff5e13;fill-opacity:1;stroke-width:1.15768;stroke-dasharray:none" />
      <path
         d="m 872.16172,-237.48322 h 5.67103 v 34.51936 h -5.67103 z m 0,-13.4379 h 5.67103 v 7.18127 h -5.67103 z"
         id="path500"
         inkscape:label="i"
         style="fill:#ff5e13;fill-opacity:1;stroke-width:1.15768;stroke-dasharray:none" />
      <path
         d="m 903.07506,-233.50733 q -4.56149,0 -7.21209,3.57521 -2.6506,3.5444 -2.6506,9.7394 0,6.19499 2.61978,9.77022 2.65059,3.54439 7.24291,3.54439 4.53066,0 7.18125,-3.57522 2.65059,-3.57522 2.65059,-9.73939 0,-6.13335 -2.65059,-9.70858 -2.65059,-3.60603 -7.18125,-3.60603 z m 0,-4.80805 q 7.397,0 11.61946,4.80805 4.22246,4.80805 4.22246,13.31461 0,8.47574 -4.22246,13.31461 -4.22246,4.80806 -11.61946,4.80806 -7.42784,0 -11.6503,-4.80806 -4.19164,-4.83887 -4.19164,-13.31461 0,-8.50656 4.19164,-13.31461 4.22246,-4.80805 11.6503,-4.80805 z"
         id="path502"
         inkscape:label="o"
         style="fill:#ff5e13;fill-opacity:1;stroke-width:1.15768;stroke-dasharray:none" />
      <path
         d="m 957.01154,-223.79877 v 20.83491 h -5.67105 v -20.64998 q 0,-4.90052 -1.91089,-7.33536 -1.91089,-2.43485 -5.73268,-2.43485 -4.5923,0 -7.24289,2.92798 -2.6506,2.92799 -2.6506,7.98261 v 19.5096 h -5.70185 v -34.51936 h 5.70185 v 5.36283 q 2.03417,-3.11291 4.77724,-4.65395 2.77388,-1.54104 6.37991,-1.54104 5.94843,0 8.99969,3.69849 3.05127,3.66769 3.05127,10.81812 z"
         id="path504"
         inkscape:label="n"
         style="fill:#ff5e13;fill-opacity:1;stroke-width:1.15768;stroke-dasharray:none" />
      <path
         d="m 997.84918,-221.6413 v 2.77388 h -26.07444 q 0.36985,5.85595 3.51358,8.93805 3.17454,3.05126 8.81476,3.05126 3.26701,0 6.31828,-0.80134 3.08208,-0.80135 6.10253,-2.40402 v 5.36282 q -3.05127,1.29447 -6.25663,1.97254 -3.20538,0.67806 -6.50321,0.67806 -8.25999,0 -13.09886,-4.80806 -4.80805,-4.80805 -4.80805,-13.0064 0,-8.47574 4.56149,-13.4379 4.5923,-4.99297 12.35916,-4.99297 6.96551,0 11.00304,4.49984 4.06835,4.46902 4.06835,12.17424 z m -5.67103,-1.66433 q -0.0617,-4.65395 -2.61977,-7.42783 -2.52732,-2.77387 -6.71896,-2.77387 -4.74641,0 -7.61274,2.68142 -2.83553,2.6814 -3.26701,7.5511 z"
         id="path506"
         inkscape:label="e"
         style="fill:#ff5e13;fill-opacity:1;stroke-width:1.15768;stroke-dasharray:none" />
      <path
         d="m 1029.1632,-236.46613 v 5.36282 q -2.4041,-1.23283 -4.993,-1.84924 -2.589,-0.61643 -5.3628,-0.61643 -4.2225,0 -6.3491,1.29448 -2.0959,1.29449 -2.0959,3.88344 0,1.97252 1.5103,3.1129 1.5102,1.10954 6.0717,2.12664 l 1.9417,0.43149 q 6.0409,1.29448 8.5682,3.66768 2.5581,2.34239 2.5581,6.56484 0,4.80806 -3.8218,7.61276 -3.7909,2.8047 -10.4482,2.8047 -2.7739,0 -5.7943,-0.55478 -2.9897,-0.52395 -6.3183,-1.60269 v -5.85595 q 3.1437,1.63349 6.195,2.46565 3.0512,0.80135 6.0409,0.80135 4.0067,0 6.1641,-1.35611 2.1575,-1.38694 2.1575,-3.88343 0,-2.31157 -1.5719,-3.54441 -1.541,-1.23283 -6.8114,-2.3732 l -1.9725,-0.46231 q -5.2704,-1.10955 -7.6128,-3.3903 -2.3424,-2.31156 -2.3424,-6.31828 0,-4.86969 3.452,-7.52029 3.4519,-2.65058 9.801,-2.65058 3.1437,0 5.9176,0.46231 2.7739,0.46231 5.1163,1.38694 z"
         id="path508"
         inkscape:label="s"
         style="fill:#ff5e13;fill-opacity:1;stroke-width:1.15768;stroke-dasharray:none" />
    </g>
  </g>
</svg>
