<?xml version="1.0" encoding="UTF-8" standalone="no"?>
<!-- Created with Inkscape (http://www.inkscape.org/) -->

<svg
   version="1.1"
   id="svg2"
   width="219"
   height="63"
   viewBox="0 0 219 63.000002"
   sodipodi:docname="white.svg"
   inkscape:version="1.2.1 (9c6d41e410, 2022-07-14)"
   inkscape:export-filename="light.svg"
   inkscape:export-xdpi="96"
   inkscape:export-ydpi="96"
   xmlns:inkscape="http://www.inkscape.org/namespaces/inkscape"
   xmlns:sodipodi="http://sodipodi.sourceforge.net/DTD/sodipodi-0.dtd"
   xmlns="http://www.w3.org/2000/svg"
   xmlns:svg="http://www.w3.org/2000/svg">
  <defs
     id="defs6" />
  <sodipodi:namedview
     id="namedview4"
     pagecolor="#ffffff"
     bordercolor="#666666"
     borderopacity="1.0"
     inkscape:showpageshadow="2"
     inkscape:pageopacity="0.0"
     inkscape:pagecheckerboard="0"
     inkscape:deskcolor="#d1d1d1"
     showgrid="false"
     inkscape:zoom="4"
     inkscape:cx="57.75"
     inkscape:cy="40.125"
     inkscape:window-width="1489"
     inkscape:window-height="750"
     inkscape:window-x="733"
     inkscape:window-y="277"
     inkscape:window-maximized="0"
     inkscape:current-layer="g3266" />
  <g
     id="g3266"
     inkscape:export-filename="../../oxybuild-react/public/images/logo/dark.png"
     inkscape:export-xdpi="27.986971"
     inkscape:export-ydpi="27.986971"
     transform="matrix(0.25913862,0,0,-0.25913862,-65.264012,110.90837)"
     inkscape:label="logotipo">
    <g
       aria-label="Amarilla"
       transform="matrix(1,0,0,-1,0.6821704,9.5503856)"
       id="text970-8"
       style="font-size:144px;line-height:0;font-family:'Phetsarath OT';-inkscape-font-specification:'Phetsarath OT';text-align:center;text-anchor:middle;fill:#333333;stroke-width:4.60397"
       inkscape:label="amarilla">
      <path
         d="m 532.43475,-264.25692 39.58594,-103.07813 H 586.716 l 42.1875,103.07813 H 613.36444 L 601.341,-295.47567 h -43.10156 l -11.32031,31.21875 z m 29.74219,-42.32813 h 34.94531 l -10.75781,-28.54687 q -4.92187,-13.00782 -7.3125,-21.375 -1.96875,9.91406 -5.55469,19.6875 z"
         id="path5657"
         style="fill:#cccccc;fill-opacity:1"
         inkscape:label="a" />
      <path
         d="m 638.18475,-264.25692 v -74.67188 h 11.32032 v 10.47656 q 3.51562,-5.48437 9.35156,-8.78906 5.83594,-3.375 13.28906,-3.375 8.29688,0 13.57031,3.44531 5.34375,3.44532 7.52344,9.63282 8.85938,-13.07813 23.0625,-13.07813 11.10938,0 17.08594,6.1875 5.97656,6.11719 5.97656,18.91406 v 51.25782 H 726.7785 v -47.03907 q 0,-7.59375 -1.26562,-10.89843 -1.19531,-3.375 -4.42969,-5.41407 -3.23437,-2.03906 -7.59375,-2.03906 -7.875,0 -13.07812,5.27344 -5.20313,5.20312 -5.20313,16.73437 v 43.38282 h -12.65625 v -48.51563 q 0,-8.4375 -3.09375,-12.65625 -3.09375,-4.21875 -10.125,-4.21875 -5.34375,0 -9.91406,2.8125 -4.5,2.8125 -6.53906,8.22656 -2.03907,5.41407 -2.03907,15.60938 v 38.74219 z"
         id="path5659"
         style="fill:#cccccc;fill-opacity:1"
         inkscape:label="m" />
      <path
         d="m 806.86444,-273.46786 q -7.03125,5.97656 -13.57031,8.4375 -6.46875,2.46094 -13.92188,2.46094 -12.30468,0 -18.91406,-5.97657 -6.60937,-6.04687 -6.60937,-15.39843 0,-5.48438 2.46093,-9.98438 2.53125,-4.57031 6.53907,-7.3125 4.07812,-2.74219 9.14062,-4.14844 3.72656,-0.98437 11.25,-1.89843 15.32813,-1.82813 22.57031,-4.35938 0.0703,-2.60156 0.0703,-3.30469 0,-7.73437 -3.58594,-10.89843 -4.85156,-4.28907 -14.41406,-4.28907 -8.92969,0 -13.21875,3.16407 -4.21875,3.09375 -6.25782,11.03906 l -12.375,-1.6875 q 1.6875,-7.94531 5.55469,-12.79688 3.86719,-4.92187 11.17969,-7.52343 7.3125,-2.67188 16.94531,-2.67188 9.5625,0 15.53906,2.25 5.97657,2.25 8.78907,5.69531 2.8125,3.375 3.9375,8.57813 0.63281,3.23437 0.63281,11.67187 v 16.875 q 0,17.64844 0.77344,22.35938 0.84375,4.64062 3.23437,8.92969 h -13.21875 q -1.96875,-3.9375 -2.53125,-9.21094 z m -1.05469,-28.26563 q -6.89062,2.8125 -20.67187,4.78125 -7.80469,1.125 -11.03906,2.53125 -3.23438,1.40625 -4.99219,4.14844 -1.75781,2.67188 -1.75781,5.97656 0,5.0625 3.79687,8.4375 3.86719,3.375 11.25,3.375 7.3125,0 13.00781,-3.16406 5.69532,-3.23437 8.36719,-8.78906 2.03906,-4.28906 2.03906,-12.65625 z"
         id="path5661"
         style="fill:#cccccc;fill-opacity:1"
         inkscape:label="a" />
      <path
         d="m 838.08319,-264.25692 v -74.67188 h 11.39063 v 11.32031 q 4.35937,-7.94531 8.01562,-10.47656 3.72656,-2.53125 8.15625,-2.53125 6.39844,0 13.00781,4.07813 l -4.35937,11.74218 q -4.64063,-2.74218 -9.28125,-2.74218 -4.14844,0 -7.45313,2.53125 -3.30468,2.46093 -4.71093,6.89062 -2.10938,6.75 -2.10938,14.76563 v 39.09375 z"
         id="path5663"
         style="fill:#cccccc;fill-opacity:1"
         inkscape:label="r" />
      <path
         d="m 886.24725,-352.78036 v -14.55469 h 12.65625 v 14.55469 z m 0,88.52344 -42.07609,21.88794 54.73234,-96.55982 v 74.67188 z"
         id="path5665"
         sodipodi:nodetypes="cccccccccc"
         style="fill:#cccccc;fill-opacity:1"
         inkscape:label="i" />
      <path
         d="m 917.88788,-264.25692 v -103.07813 h 12.65625 v 103.07813 z"
         id="path5667"
         style="fill:#cccccc;fill-opacity:1"
         inkscape:label="l" />
      <path
         d="m 949.88007,-264.25692 v -103.07813 h 12.65625 v 103.07813 z"
         id="path5669"
         style="fill:#cccccc;fill-opacity:1"
         inkscape:label="l" />
      <path
         d="m 1030.8801,-273.46786 q -7.0312,5.97656 -13.5703,8.4375 -6.4687,2.46094 -13.9219,2.46094 -12.30475,0 -18.91408,-5.97657 -6.60938,-6.04687 -6.60938,-15.39843 0,-5.48438 2.46094,-9.98438 2.53125,-4.57031 6.53907,-7.3125 4.0781,-2.74219 9.1406,-4.14844 3.7266,-0.98437 11.25005,-1.89843 15.3281,-1.82813 22.5703,-4.35938 0.07,-2.60156 0.07,-3.30469 0,-7.73437 -3.5859,-10.89843 -4.8516,-4.28907 -14.4141,-4.28907 -8.9296,0 -13.21875,3.16407 -4.2188,3.09375 -6.2578,11.03906 l -12.37502,-1.6875 q 1.6875,-7.94531 5.55472,-12.79688 3.8672,-4.92187 11.1797,-7.52343 7.31255,-2.67188 16.94535,-2.67188 9.5625,0 15.539,2.25 5.9766,2.25 8.7891,5.69531 2.8125,3.375 3.9375,8.57813 0.6328,3.23437 0.6328,11.67187 v 16.875 q 0,17.64844 0.7734,22.35938 0.8438,4.64062 3.2344,8.92969 h -13.2187 q -1.9688,-3.9375 -2.5313,-9.21094 z m -1.0547,-28.26563 q -6.8906,2.8125 -20.6718,4.78125 -7.8047,1.125 -11.03915,2.53125 -3.2344,1.40625 -4.9922,4.14844 -1.7578,2.67188 -1.7578,5.97656 0,5.0625 3.7969,8.4375 3.8672,3.375 11.25005,3.375 7.3125,0 13.0078,-3.16406 5.6953,-3.23437 8.3672,-8.78906 2.039,-4.28906 2.039,-12.65625 z"
         id="path5671"
         style="fill:#cccccc;fill-opacity:1"
         inkscape:label="a" />
      <path
         d="m 427.33448,-229.41892 v -56.0882 l -21.5539,-21.55389 -21.55458,21.55389 v 66.86548 l -64.66305,16.16594 v 13.64741 h 172.43458 v -56.75657 z"
         style="fill:#ff5e13;fill-opacity:1;fill-rule:nonzero;stroke:none;stroke-width:3.14318"
         id="path32-8"
         inkscape:label="casa" />
      <path
         d="m 404.10298,-410.10788 -111.62407,111.62475 c -1.49446,1.49377 -0.43626,4.04916 1.67674,4.04916 h 25.40712 v 91.94814 l 43.10916,-32.32145 v -59.62669 l 43.10847,-43.10847 43.10848,43.10847 v 38.07211 l 43.10847,10.83277 v -48.90488 h 25.40781 c 2.11299,0 3.17119,-2.55539 1.67742,-4.04916 L 407.45783,-410.10788 c -0.92644,-0.92644 -2.42841,-0.92644 -3.35485,0"
         style="fill:#0a369d;fill-opacity:1;fill-rule:nonzero;stroke:none;stroke-width:3.14318"
         id="path200-8"
         sodipodi:nodetypes="ccscccccccccsssc"
         inkscape:label="techo" />
      <path
         style="fill:#ffffff;fill-opacity:1;fill-rule:evenodd;stroke:#000000;stroke-width:0;stroke-linejoin:bevel;stroke-dasharray:none;stroke-opacity:0.990461;paint-order:markers stroke fill"
         d="m 324.53163,-205.21055 c 0.25793,-0.39795 8.94961,-7.01845 19.31481,-14.7122 l 18.84581,-13.98866 0.0368,-29.91481 0.0368,-29.91481 21.4733,-21.4574 21.4733,-21.45739 21.45739,21.4733 21.45739,21.4733 v 18.93016 18.93015 l 20.50062,5.11747 20.50061,5.11748 -29.90678,7.51179 c -16.44872,4.13149 -30.44943,7.5243 -31.11269,7.53957 -0.93743,0.0216 -1.20592,-6.15096 -1.20592,-27.72409 v -27.75186 l -10.86868,-10.83785 -10.86868,-10.83785 -10.83785,10.86869 -10.83784,10.86867 v 33.38916 33.38914 l -29.41316,7.3558 c -31.55338,7.89102 -30.74562,7.71272 -30.04527,6.63224 z"
         id="path7654"
         inkscape:label="relleno" />
    </g>
    <g
       aria-label="construcciones"
       transform="matrix(1.4369197,0,0,-1.4369197,-246.14636,-90.21785)"
       id="text910-3"
       style="font-size:46.3631px;line-height:1.25;font-family:'MADE Outer Sans';-inkscape-font-specification:'MADE Outer Sans';text-align:center;text-anchor:middle;display:inline;fill:#ff5e13;fill-opacity:1;stroke-width:1.15908"
       inkscape:label="construcciones">
      <path
         d="m 568.00913,-223.50826 v 3.48163 q -1.57888,-0.87041 -3.178,-1.29549 -1.57888,-0.44533 -3.19824,-0.44533 -3.62334,0 -5.62729,2.3076 -2.00397,2.28735 -2.00397,6.43697 0,4.14961 2.00397,6.45721 2.00395,2.28735 5.62729,2.28735 1.61936,0 3.19824,-0.42508 1.59912,-0.44533 3.178,-1.31574 v 3.44115 q -1.55864,0.72871 -3.23873,1.09307 -1.65985,0.36436 -3.54236,0.36436 -5.12123,0 -8.1373,-3.21849 -3.01606,-3.21848 -3.01606,-8.68383 0,-5.54632 3.0363,-8.72432 3.05655,-3.178 8.35997,-3.178 1.72057,0 3.36018,0.36435 1.6396,0.34411 3.178,1.05259 z"
         id="path482"
         inkscape:label="c"
         style="fill:#ff5e13;fill-opacity:1;stroke-width:1.03639" />
      <path
         d="m 583.27163,-221.76745 q -2.99582,0 -4.73664,2.34808 -1.74082,2.32783 -1.74082,6.39649 0,4.06865 1.72058,6.41673 1.74081,2.32783 4.75688,2.32783 2.97558,0 4.71639,-2.34808 1.74082,-2.34808 1.74082,-6.39648 0,-4.02817 -1.74082,-6.37625 -1.74081,-2.36832 -4.71639,-2.36832 z m 0,-3.15775 q 4.85809,0 7.63125,3.15775 2.77316,3.15776 2.77316,8.74457 0,5.56656 -2.77316,8.74456 -2.77316,3.15776 -7.63125,3.15776 -4.87834,0 -7.6515,-3.15776 -2.75291,-3.178 -2.75291,-8.74456 0,-5.58681 2.75291,-8.74457 2.77316,-3.15775 7.6515,-3.15775 z"
         id="path484"
         inkscape:label="o"
         style="fill:#ff5e13;fill-opacity:1;stroke-width:1.03639" />
      <path
         d="m 618.6952,-215.39121 v 13.68363 h -3.72453 v -13.56217 q 0,-3.21849 -1.25501,-4.81761 -1.255,-1.59912 -3.76502,-1.59912 -3.01606,0 -4.75688,1.92299 -1.74082,1.923 -1.74082,5.2427 v 12.81321 h -3.74477 v -22.67109 h 3.74477 v 3.52211 q 1.33598,-2.04444 3.13752,-3.05654 1.82178,-1.0121 4.1901,-1.0121 3.90672,0 5.91068,2.42904 2.00396,2.4088 2.00396,7.10495 z"
         id="path486"
         inkscape:label="n"
         style="fill:#ff5e13;fill-opacity:1;stroke-width:1.03639" />
      <path
         d="m 640.57685,-223.71068 v 3.52211 q -1.57888,-0.80968 -3.27921,-1.21452 -1.70034,-0.40484 -3.52212,-0.40484 -2.77315,0 -4.16986,0.85017 -1.37646,0.85017 -1.37646,2.5505 0,1.29548 0.99186,2.04444 0.99186,0.72871 3.98768,1.3967 l 1.27525,0.28339 q 3.96744,0.85017 5.62729,2.4088 1.68009,1.5384 1.68009,4.31155 0,3.15777 -2.51001,4.99979 -2.48977,1.84203 -6.86206,1.84203 -1.82178,0 -3.8055,-0.36436 -1.96347,-0.34411 -4.14961,-1.05259 v -3.84598 q 2.06468,1.07282 4.06864,1.61935 2.00397,0.5263 3.96744,0.5263 2.63147,0 4.04841,-0.89064 1.41695,-0.9109 1.41695,-2.5505 0,-1.51816 -1.03235,-2.32784 -1.0121,-0.80968 -4.47349,-1.55864 l -1.29549,-0.30362 q -3.46139,-0.72872 -4.99978,-2.22663 -1.5384,-1.51816 -1.5384,-4.14962 0,-3.19825 2.2671,-4.93906 2.26712,-1.74081 6.43698,-1.74081 2.06468,0 3.88647,0.30363 1.82178,0.30362 3.36018,0.91089 z"
         id="path488"
         inkscape:label="s"
         style="fill:#ff5e13;fill-opacity:1;stroke-width:1.03639" />
      <path
         d="m 651.40634,-230.81564 v 6.43697 h 7.67173 v 2.89462 h -7.67173 v 12.30715 q 0,2.77317 0.74896,3.5626 0.76919,0.78944 3.09702,0.78944 h 3.82575 v 3.11728 h -3.82575 q -4.31155,0 -5.95116,-1.59912 -1.6396,-1.61937 -1.6396,-5.8702 v -12.30715 h -2.73267 v -2.89462 h 2.73267 v -6.43697 z"
         id="path490"
         inkscape:label="t"
         style="fill:#ff5e13;fill-opacity:1;stroke-width:1.03639" />
      <path
         d="m 677.11373,-220.89704 q -0.6275,-0.36435 -1.37646,-0.52629 -0.72871,-0.18218 -1.61936,-0.18218 -3.15776,0 -4.85809,2.06469 -1.68009,2.04445 -1.68009,5.89043 v 11.94281 h -3.74478 v -22.67109 h 3.74478 v 3.52211 q 1.17404,-2.06468 3.05655,-3.05654 1.8825,-1.0121 4.5747,-1.0121 0.3846,0 0.85016,0.0607 0.46557,0.0405 1.03235,0.1417 z"
         id="path492"
         inkscape:label="r"
         style="fill:#ff5e13;fill-opacity:1;stroke-width:1.03639" />
      <path
         d="m 680.63586,-210.65456 v -13.72411 h 3.72453 v 13.58241 q 0,3.21848 1.25501,4.83785 1.25501,1.59912 3.76502,1.59912 3.01607,0 4.75688,-1.92299 1.76106,-1.92299 1.76106,-5.24269 v -12.8537 h 3.72454 v 22.67109 h -3.72454 v -3.48164 q -1.35622,2.06469 -3.15776,3.07679 -1.7813,0.99187 -4.14962,0.99187 -3.90672,0 -5.93092,-2.42905 -2.0242,-2.42904 -2.0242,-7.10495 z m 9.37207,-14.27064 z"
         id="path494"
         inkscape:label="u"
         style="fill:#ff5e13;fill-opacity:1;stroke-width:1.03639" />
      <path
         d="m 723.6097,-223.50826 v 3.48163 q -1.57887,-0.87041 -3.178,-1.29549 -1.57887,-0.44533 -3.19824,-0.44533 -3.62333,0 -5.62729,2.3076 -2.00396,2.28735 -2.00396,6.43697 0,4.14961 2.00396,6.45721 2.00396,2.28735 5.62729,2.28735 1.61937,0 3.19824,-0.42508 1.59913,-0.44533 3.178,-1.31574 v 3.44115 q -1.55863,0.72871 -3.23873,1.09307 -1.65984,0.36436 -3.54235,0.36436 -5.12124,0 -8.13731,-3.21849 -3.01605,-3.21848 -3.01605,-8.68383 0,-5.54632 3.0363,-8.72432 3.05655,-3.178 8.35996,-3.178 1.72058,0 3.36018,0.36435 1.63961,0.34411 3.178,1.05259 z"
         id="path496"
         inkscape:label="c"
         style="fill:#ff5e13;fill-opacity:1;stroke-width:1.03639" />
      <path
         d="m 746.40224,-223.50826 v 3.48163 q -1.57887,-0.87041 -3.178,-1.29549 -1.57888,-0.44533 -3.19825,-0.44533 -3.62332,0 -5.62728,2.3076 -2.00396,2.28735 -2.00396,6.43697 0,4.14961 2.00396,6.45721 2.00396,2.28735 5.62728,2.28735 1.61937,0 3.19825,-0.42508 1.59913,-0.44533 3.178,-1.31574 v 3.44115 q -1.55864,0.72871 -3.23872,1.09307 -1.65985,0.36436 -3.54236,0.36436 -5.12124,0 -8.1373,-3.21849 -3.01607,-3.21848 -3.01607,-8.68383 0,-5.54632 3.03631,-8.72432 3.05655,-3.178 8.35996,-3.178 1.72058,0 3.36018,0.36435 1.63961,0.34411 3.178,1.05259 z"
         id="path498"
         inkscape:label="c"
         style="fill:#ff5e13;fill-opacity:1;stroke-width:1.03639" />
      <path
         d="m 752.87969,-224.37867 h 3.72454 v 22.67109 h -3.72454 z m 0,-8.82553 h 3.72454 v 4.7164 h -3.72454 z"
         id="path500"
         inkscape:label="i"
         style="fill:#ff5e13;fill-opacity:1;stroke-width:1.03639" />
      <path
         d="m 773.18248,-221.76745 q -2.99583,0 -4.73665,2.34808 -1.74081,2.32783 -1.74081,6.39649 0,4.06865 1.72057,6.41673 1.74082,2.32783 4.75689,2.32783 2.97558,0 4.71638,-2.34808 1.74082,-2.34808 1.74082,-6.39648 0,-4.02817 -1.74082,-6.37625 -1.7408,-2.36832 -4.71638,-2.36832 z m 0,-3.15775 q 4.85808,0 7.63124,3.15775 2.77316,3.15776 2.77316,8.74457 0,5.56656 -2.77316,8.74456 -2.77316,3.15776 -7.63124,3.15776 -4.87834,0 -7.6515,-3.15776 -2.75292,-3.178 -2.75292,-8.74456 0,-5.58681 2.75292,-8.74457 2.77316,-3.15775 7.6515,-3.15775 z"
         id="path502"
         inkscape:label="o"
         style="fill:#ff5e13;fill-opacity:1;stroke-width:1.03639" />
      <path
         d="m 808.60604,-215.39121 v 13.68363 h -3.72454 v -13.56217 q 0,-3.21849 -1.25501,-4.81761 -1.25501,-1.59912 -3.76502,-1.59912 -3.01606,0 -4.75688,1.92299 -1.74081,1.923 -1.74081,5.2427 v 12.81321 H 789.619 v -22.67109 h 3.74478 v 3.52211 q 1.33597,-2.04444 3.13752,-3.05654 1.82178,-1.0121 4.1901,-1.0121 3.90671,0 5.91067,2.42904 2.00397,2.4088 2.00397,7.10495 z"
         id="path504"
         inkscape:label="n"
         style="fill:#ff5e13;fill-opacity:1;stroke-width:1.03639" />
      <path
         d="m 835.42675,-213.97426 v 1.82178 h -17.12477 q 0.24291,3.84599 2.3076,5.8702 2.08492,2.00396 5.78922,2.00396 2.14565,0 4.14962,-0.52629 2.0242,-0.5263 4.00792,-1.57888 v 3.52211 q -2.00397,0.85016 -4.10913,1.2955 -2.10518,0.44532 -4.27108,0.44532 -5.42487,0 -8.60287,-3.15776 -3.15775,-3.15776 -3.15775,-8.54214 0,-5.56657 2.99582,-8.82553 3.01606,-3.27921 8.11706,-3.27921 4.5747,0 7.2264,2.95533 2.67196,2.9351 2.67196,7.99561 z m -3.72454,-1.09307 q -0.0405,-3.05655 -1.72057,-4.87833 -1.65985,-1.82179 -4.41277,-1.82179 -3.11728,0 -4.99978,1.76106 -1.86227,1.76106 -2.14566,4.9593 z"
         id="path506"
         inkscape:label="e"
         style="fill:#ff5e13;fill-opacity:1;stroke-width:1.03639" />
      <path
         d="m 855.99266,-223.71068 v 3.52211 q -1.57888,-0.80968 -3.27921,-1.21452 -1.70033,-0.40484 -3.52211,-0.40484 -2.77316,0 -4.16987,0.85017 -1.37646,0.85017 -1.37646,2.5505 0,1.29548 0.99186,2.04444 0.99187,0.72871 3.98769,1.3967 l 1.27525,0.28339 q 3.96744,0.85017 5.62728,2.4088 1.6801,1.5384 1.6801,4.31155 0,3.15777 -2.51002,4.99979 -2.48977,1.84203 -6.86205,1.84203 -1.82179,0 -3.8055,-0.36436 -1.96348,-0.34411 -4.14963,-1.05259 v -3.84598 q 2.06469,1.07282 4.06866,1.61935 2.00396,0.5263 3.96744,0.5263 2.63146,0 4.0484,-0.89064 1.41695,-0.9109 1.41695,-2.5505 0,-1.51816 -1.03235,-2.32784 -1.0121,-0.80968 -4.47349,-1.55864 l -1.29548,-0.30362 q -3.4614,-0.72872 -4.9998,-2.22663 -1.53839,-1.51816 -1.53839,-4.14962 0,-3.19825 2.26711,-4.93906 2.26711,-1.74081 6.43697,-1.74081 2.06469,0 3.88648,0.30363 1.82178,0.30362 3.36017,0.91089 z"
         id="path508"
         inkscape:label="s"
         style="fill:#ff5e13;fill-opacity:1;stroke-width:1.03639" />
    </g>
  </g>
</svg>
