<?xml version="1.0" encoding="UTF-8" standalone="no"?>
<!-- Created with Inkscape (http://www.inkscape.org/) -->

<svg
   version="1.1"
   id="svg2"
   width="160"
   height="70"
   viewBox="0 0 160 70.000003"
   sodipodi:docname="light.svg"
   inkscape:version="1.2.1 (9c6d41e410, 2022-07-14)"
   inkscape:export-filename="light.svg"
   inkscape:export-xdpi="71.619049"
   inkscape:export-ydpi="71.619049"
   xmlns:inkscape="http://www.inkscape.org/namespaces/inkscape"
   xmlns:sodipodi="http://sodipodi.sourceforge.net/DTD/sodipodi-0.dtd"
   xmlns="http://www.w3.org/2000/svg"
   xmlns:svg="http://www.w3.org/2000/svg">
  <defs
     id="defs6" />
  <sodipodi:namedview
     id="namedview4"
     pagecolor="#ffffff"
     bordercolor="#666666"
     borderopacity="1.0"
     inkscape:showpageshadow="2"
     inkscape:pageopacity="0.0"
     inkscape:pagecheckerboard="0"
     inkscape:deskcolor="#d1d1d1"
     showgrid="false"
     inkscape:zoom="4"
     inkscape:cx="57.75"
     inkscape:cy="40.125"
     inkscape:window-width="1489"
     inkscape:window-height="750"
     inkscape:window-x="733"
     inkscape:window-y="277"
     inkscape:window-maximized="0"
     inkscape:current-layer="g3266" />
  <g
     id="g3266"
     inkscape:export-filename="../../oxybuild-react/public/images/logo/dark.png"
     inkscape:export-xdpi="27.986971"
     inkscape:export-ydpi="27.986971"
     transform="matrix(0.25913862,0,0,-0.25913862,-106.91581,105.91931)"
     inkscape:label="logotipo">
    <g
       aria-label="Amarilla"
       transform="matrix(0.92624335,0,0,-0.92624335,50.746259,22.967254)"
       id="text970-8"
       style="font-size:144px;line-height:0;font-family:'Phetsarath OT';-inkscape-font-specification:'Phetsarath OT';text-align:center;text-anchor:middle;fill:#333333;stroke-width:4.60397"
       inkscape:label="amarilla" />
    <g
       id="g1271"
       transform="matrix(0.77103238,0,0,0.77103238,233.05214,40.256189)">
      <path
         d="m 514.69832,-272.65709 43.99743,-114.56525 h 16.33297 l 46.88891,114.56525 h -17.27075 l -13.36334,-34.6978 h -47.90483 l -12.58186,34.6978 z m 33.05669,-47.04522 h 38.83964 l -11.95667,-31.72815 q -5.47036,-14.45742 -8.12741,-23.75705 -2.18815,11.01889 -6.17371,21.88149 z"
         id="path5657"
         style="font-size:144px;line-height:0;font-family:'Phetsarath OT';-inkscape-font-specification:'Phetsarath OT';text-align:center;text-anchor:middle;fill:#f2f2f2;fill-opacity:1;stroke-width:5.11704"
         inkscape:label="a"
         transform="matrix(0.92624334,0,0,-0.92624334,50.746261,22.967244)" />
      <path
         d="m 632.23319,-272.65709 v -82.99338 h 14.66498 l -0.0539,5.81149 c 3.61761,-2.40659 3.77992,-2.52885 8.10412,-4.97749 4.3242,-2.50075 9.50793,-2.70956 15.0304,-2.70956 6.14766,0 11.17519,1.27642 15.08259,3.82926 3.95951,2.55285 6.74679,6.12162 8.36186,10.70631 6.56445,-9.69038 15.10865,-14.53557 25.6326,-14.53557 8.23161,0 14.56162,2.29235 18.99002,6.87704 4.42839,4.5326 6.64259,11.53989 6.64259,21.02186 v 56.97004 H 730.6999 v -52.28115 c 0,-5.62667 -0.46889,-9.66432 -1.40666,-12.11296 -0.88568,-2.50074 -2.52679,-2.94422 -4.92334,-4.45509 -2.39654,-1.51086 -5.20987,-2.26629 -8.44,-2.26629 -5.83507,0 -10.68025,1.95371 -14.53556,5.86112 -3.85531,3.85531 -5.78297,8.49273 -5.78297,17.03693 v 48.21744 H 681.5447 v -53.92226 c 0,-6.25185 -1.14617,-9.37841 -3.43852,-12.50434 -2.29235,-3.12593 -6.04346,-4.68889 -11.25334,-4.68889 -3.95951,0 -7.11169,1.56276 -10.49811,3.64671 -3.33433,2.08395 -6.14374,5.11603 -7.78856,8.62255 -2.25764,4.81294 -2.26631,8.23225 -2.26631,15.78657 v 43.05966 z"
         id="path5659"
         style="font-size:144px;line-height:0;font-family:'Phetsarath OT';-inkscape-font-specification:'Phetsarath OT';text-align:center;text-anchor:middle;fill:#f2f2f2;fill-opacity:1;stroke-width:5.11704"
         inkscape:label="m"
         transform="matrix(0.92624334,0,0,-0.92624334,50.746261,22.967244)"
         sodipodi:nodetypes="cccccsccscsccscsscsccssscascc" />
      <path
         d="m 819.71068,-282.89451 c -5.20987,4.42839 -10.2374,7.55432 -15.08259,9.37778 -4.79309,1.82346 -9.95088,2.73519 -15.47335,2.73519 -9.11728,0 -16.12457,-2.2142 -21.02186,-6.6426 -4.89728,-4.48049 -7.34592,-10.18531 -7.34592,-17.11445 0,-4.06371 0.91173,-7.76272 2.73518,-11.09704 1.87555,-3.38642 4.29815,-6.09556 7.26779,-8.12741 3.02173,-2.03186 6.40814,-3.56878 10.15925,-4.61075 2.76124,-0.72938 6.92914,-1.43271 12.50371,-2.10999 11.35754,-1.35457 19.7194,-2.96964 25.08557,-4.8452 0.0521,-1.92765 0.0781,-3.15197 0.0781,-3.67296 0,-5.73087 -1.32852,-9.76852 -3.98556,-12.11296 -3.59481,-3.17803 -8.93494,-4.76705 -16.02037,-4.76705 -6.61655,0 -11.51383,1.17223 -14.69186,3.51668 -3.12593,2.29235 -5.44433,6.3821 -6.9552,12.26926 l -13.75408,-1.87556 c 1.25037,-5.88716 3.30828,-10.62815 6.17371,-14.22297 2.86543,-3.64691 7.00729,-6.4342 12.42557,-8.36185 5.41827,-1.97976 11.69617,-2.96964 18.8337,-2.96964 7.08544,0 12.84236,0.83358 17.27075,2.50075 4.4284,1.66716 7.68458,3.77716 9.76853,6.33 2.08395,2.50074 3.54272,5.67877 4.3763,9.53408 0.46889,2.39654 0.70333,6.72074 0.70333,12.97259 v 18.75557 c 0,13.07679 0.29207,21.54849 0.49138,25.03524 l 0.004,9.74071 h -13.58711 c 0,-3.12375 -0.095,-10.23742 0.0406,-10.23742 z m -1.17222,-31.41557 c -5.10568,2.08395 -12.7642,3.8553 -22.97556,5.31407 -5.78297,0.83358 -9.87272,1.77136 -12.26926,2.81334 -2.39655,1.04197 -4.24606,2.57889 -5.54853,4.61074 -1.30247,1.97976 -1.9537,4.19396 -1.9537,6.6426 0,3.75111 1.40667,6.87703 4.22,9.37778 2.86543,2.50074 7.03334,3.75111 12.50371,3.75111 5.41827,0 10.23741,-1.17222 14.45741,-3.51667 4.22001,-2.39654 7.31988,-5.65271 9.29963,-9.76852 1.51087,-3.17802 2.2663,-7.86691 2.2663,-14.06667 z"
         id="path5661"
         style="font-size:144px;line-height:0;font-family:'Phetsarath OT';-inkscape-font-specification:'Phetsarath OT';text-align:center;text-anchor:middle;fill:#f2f2f2;fill-opacity:1;stroke-width:5.11704"
         inkscape:label="a"
         sodipodi:nodetypes="scscscccccscscccccssccssscccsccscscsccsc"
         transform="matrix(0.92624334,0,0,-0.92624334,50.746261,22.967244)" />
      <path
         d="m 854.40848,-272.65709 v -82.99338 h 12.66001 l 0.55237,9.45177 c 2.25038,-1.12764 46.1306,-18.49398 47.53724,-14.20003 3.96269,12.09663 -2.05813,78.0651 -2.05813,78.0651 -0.99873,-16.00633 -3.36107,-58.44246 -9.06006,-60.43322 -9.12426,-1.01413 -24.26461,6.41433 -31.91836,12.33135 -2.99624,4.2636 -3.6464,8.38875 -3.6464,14.32802 v 43.45039 z"
         id="path5663"
         style="font-size:144px;line-height:0;font-family:'Phetsarath OT';-inkscape-font-specification:'Phetsarath OT';text-align:center;text-anchor:middle;fill:#f2f2f2;fill-opacity:1;stroke-width:5.11704"
         inkscape:label="r"
         sodipodi:nodetypes="ccccscccscc"
         transform="matrix(0.92624334,0,0,-0.92624334,50.746261,22.967244)" />
      <path
         d="m 410.78607,235.80351 v 60.22507 l -23.14364,23.14364 -23.14438,-23.14364 v -71.79725 l -69.43238,-17.35828 v -14.654 h 185.15278 v 60.94274 z"
         style="font-size:144px;line-height:0;font-family:'Phetsarath OT';-inkscape-font-specification:'Phetsarath OT';text-align:center;text-anchor:middle;fill:#ff5e13;fill-opacity:1;fill-rule:nonzero;stroke:none;stroke-width:3.37501"
         id="path32-8"
         inkscape:label="casa" />
      <path
         d="M 385.8411,429.81948 265.98399,309.96167 c -1.60467,-1.60396 -0.46842,-4.34783 1.80042,-4.34783 h 27.28107 v -98.72991 l 46.28874,34.70535 v 64.02456 l 46.28801,46.28802 46.28801,-46.28802 v -40.88018 l 46.28801,-11.63175 v 52.51193 h 27.2818 c 2.26885,0 3.4051,2.74387 1.80115,4.34783 L 389.44338,429.81948 c -0.99478,0.99477 -2.60752,0.99477 -3.60228,0"
         style="font-size:144px;line-height:0;font-family:'Phetsarath OT';-inkscape-font-specification:'Phetsarath OT';text-align:center;text-anchor:middle;fill:#0a369d;fill-opacity:1;fill-rule:nonzero;stroke:none;stroke-width:3.37501"
         id="path200-8"
         sodipodi:nodetypes="ccscccccccccsssc"
         inkscape:label="techo" />
      <path
         style="font-size:144px;line-height:0;font-family:'Phetsarath OT';-inkscape-font-specification:'Phetsarath OT';text-align:center;text-anchor:middle;fill:#ffffff;fill-opacity:1;fill-rule:evenodd;stroke:#000000;stroke-width:0.103589;stroke-linejoin:bevel;stroke-dasharray:none;stroke-opacity:0.990461;paint-order:markers stroke fill"
         d="m 300.40083,209.80962 c 0.27695,0.4273 9.60971,7.53609 20.73939,15.79732 l 20.23581,15.0204 0.0396,32.12122 0.0395,32.12124 23.0571,23.04002 23.0571,23.04001 23.04001,-23.05709 23.04002,-23.05709 v -20.32639 -20.32638 l 22.01266,-5.49492 22.01267,-5.49491 -32.11259,-8.06585 c -17.66193,-4.43621 -32.69529,-8.07926 -33.40746,-8.09565 -1.00658,-0.0232 -1.29487,6.60462 -1.29487,29.76892 v 29.79875 l -11.67031,11.6372 -11.67032,11.63721 -11.63722,-11.67031 -11.63721,-11.67033 v -35.85181 -35.85182 l -31.58256,-7.89833 c -33.88066,-8.47305 -33.01332,-8.2816 -32.26131,-7.12141 z"
         id="path7654"
         inkscape:label="relleno" />
      <path
         d="m 965.26658,285.27896 c -4.82554,-4.10177 -9.48231,-6.99714 -13.97013,-8.68611 -4.43957,-1.68896 -9.21694,-2.53345 -14.33209,-2.53345 -8.44482,0 -14.93527,2.05089 -19.47136,6.15267 -4.53607,4.15002 -6.80411,9.43407 -6.80411,15.85214 0,3.76399 0.84449,7.19017 2.53345,10.27856 1.73721,3.13665 3.98113,5.64597 6.73174,7.52796 2.79886,1.882 5.9355,3.30556 9.40994,4.27068 2.55758,0.67558 6.41807,1.32703 11.58147,1.95436 10.51985,1.25466 18.26494,2.75061 23.23535,4.48783 0.0482,1.78548 0.0722,2.9195 0.0722,3.40206 0,5.30818 -1.23051,9.04803 -3.69163,11.21955 -3.32963,2.94363 -8.27589,4.41545 -14.83873,4.41545 -6.12853,0 -10.6646,-1.08577 -13.60823,-3.25731 -2.89538,-2.12327 -5.04278,-5.91137 -6.44221,-11.36432 l -12.73963,1.73723 c 1.15815,5.45294 3.06428,9.84425 5.71836,13.17393 2.65409,3.37793 6.49046,5.95964 11.5091,7.74511 5.01864,1.83374 10.8335,2.75061 17.44459,2.75061 6.56284,0 11.89518,-0.7721 15.99696,-2.31631 4.10177,-1.54419 7.11771,-3.49856 9.048,-5.86312 1.9302,-2.31629 3.28141,-5.25992 4.05352,-8.83087 0.43432,-2.21978 0.65143,-6.22504 0.65143,-12.01578 v -17.37222 c 0,-12.11229 0.27056,-19.95915 0.45516,-23.18872 v -9.02227 h -12.58496 c 0,2.89335 -0.088,9.48234 0.038,9.48234 z m -1.08574,29.09846 c -4.72912,-1.93024 -11.82276,-3.57094 -21.28096,-4.92212 -5.35644,-0.7721 -9.14454,-1.64071 -11.36432,-2.60584 -2.21979,-0.96512 -3.93289,-2.38868 -5.13929,-4.27066 -1.20641,-1.83374 -1.8096,-3.88463 -1.8096,-6.15267 0,-3.47444 1.30291,-6.3698 3.90874,-8.6861 2.65409,-2.3163 6.51459,-3.47445 11.58148,-3.47445 5.01864,0 9.48233,1.08577 13.39108,3.2573 3.90876,2.21978 6.78004,5.23578 8.61372,9.04802 1.39946,2.94362 2.09915,7.28668 2.09915,13.02916 z"
         id="path1238"
         style="font-size:144px;line-height:0;font-family:'Phetsarath OT';-inkscape-font-specification:'Phetsarath OT';text-align:center;text-anchor:middle;fill:#f2f2f2;fill-opacity:1;stroke-width:4.73962"
         inkscape:label="a"
         sodipodi:nodetypes="scscscccccscscccccssccssscccsccscscsccsc" />
      <g
         aria-label="construcciones"
         transform="matrix(0.87522971,0,0,-0.87522971,53.129933,44.825921)"
         id="text910-3"
         style="font-size:46.3631px;line-height:1.25;font-family:'MADE Outer Sans';-inkscape-font-specification:'MADE Outer Sans';text-align:center;text-anchor:middle;display:inline;fill:#ff5e13;fill-opacity:1;stroke-width:1.15768;stroke-dasharray:none"
         inkscape:label="construcciones">
        <path
           d="m 590.67482,-236.15793 v 5.30119 q -2.40403,-1.3253 -4.83887,-1.97253 -2.40403,-0.67806 -4.8697,-0.67806 -5.51694,0 -8.5682,3.51358 -3.05127,3.48276 -3.05127,9.80103 0,6.31827 3.05127,9.83185 3.05126,3.48276 8.5682,3.48276 2.46567,0 4.8697,-0.64724 2.43484,-0.67805 4.83887,-2.00336 v 5.23955 q -2.3732,1.10955 -4.93134,1.66433 -2.52731,0.55478 -5.39365,0.55478 -7.79768,0 -12.38999,-4.90052 -4.5923,-4.90052 -4.5923,-13.22215 0,-8.44492 4.62312,-13.28379 4.65395,-4.83887 12.72902,-4.83887 2.61977,0 5.11627,0.55476 2.49648,0.52396 4.83887,1.60269 z"
           id="path482"
           inkscape:label="c"
           style="fill:#ff5e13;fill-opacity:1;stroke-width:1.15768;stroke-dasharray:none" />
        <path
           d="m 613.91375,-233.50733 q -4.56149,0 -7.21209,3.57521 -2.65059,3.5444 -2.65059,9.7394 0,6.19499 2.61977,9.77022 2.6506,3.54439 7.24291,3.54439 4.53067,0 7.18125,-3.57522 2.6506,-3.57522 2.6506,-9.73939 0,-6.13335 -2.6506,-9.70858 -2.65058,-3.60603 -7.18125,-3.60603 z m 0,-4.80805 q 7.397,0 11.61946,4.80805 4.22246,4.80805 4.22246,13.31461 0,8.47574 -4.22246,13.31461 -4.22246,4.80806 -11.61946,4.80806 -7.42784,0 -11.6503,-4.80806 -4.19162,-4.83887 -4.19162,-13.31461 0,-8.50656 4.19162,-13.31461 4.22246,-4.80805 11.6503,-4.80805 z"
           id="path484"
           inkscape:label="o"
           style="fill:#ff5e13;fill-opacity:1;stroke-width:1.15768;stroke-dasharray:none" />
        <path
           d="m 667.85025,-223.79877 v 20.83491 h -5.67103 v -20.64998 q 0,-4.90052 -1.9109,-7.33536 -1.91089,-2.43485 -5.73268,-2.43485 -4.59231,0 -7.24291,2.92798 -2.65059,2.92799 -2.65059,7.98261 v 19.5096 h -5.70186 v -34.51936 h 5.70186 v 5.36283 q 2.03418,-3.11291 4.77724,-4.65395 2.77387,-1.54104 6.37991,-1.54104 5.94843,0 8.9997,3.69849 3.05126,3.66769 3.05126,10.81812 z"
           id="path486"
           inkscape:label="n"
           style="fill:#ff5e13;fill-opacity:1;stroke-width:1.15768;stroke-dasharray:none" />
        <path
           d="m 701.1676,-236.46613 v 5.36282 q -2.40403,-1.23283 -4.99298,-1.84924 -2.58896,-0.61643 -5.36284,-0.61643 -4.22244,0 -6.34909,1.29448 -2.09581,1.29449 -2.09581,3.88344 0,1.97252 1.51021,3.1129 1.51022,1.10954 6.07171,2.12664 l 1.94172,0.43149 q 6.04088,1.29448 8.5682,3.66768 2.55812,2.34239 2.55812,6.56484 0,4.80806 -3.82178,7.61276 -3.79096,2.8047 -10.44827,2.8047 -2.77388,0 -5.79433,-0.55478 -2.98961,-0.52395 -6.31826,-1.60269 v -5.85595 q 3.14373,1.63349 6.19498,2.46565 3.05128,0.80135 6.04089,0.80135 4.00671,0 6.16418,-1.35611 2.15746,-1.38694 2.15746,-3.88343 0,-2.31157 -1.57186,-3.54441 -1.54104,-1.23283 -6.81141,-2.3732 l -1.97254,-0.46231 q -5.27037,-1.10955 -7.61275,-3.3903 -2.34239,-2.31156 -2.34239,-6.31828 0,-4.86969 3.45193,-7.52029 3.45195,-2.65058 9.80104,-2.65058 3.14372,0 5.9176,0.46231 2.77388,0.46231 5.11627,1.38694 z"
           id="path488"
           inkscape:label="s"
           style="fill:#ff5e13;fill-opacity:1;stroke-width:1.15768;stroke-dasharray:none" />
        <path
           d="m 717.65675,-247.28426 v 9.80104 h 11.68111 v 4.40739 h -11.68111 v 18.73907 q 0,4.22246 1.14038,5.42448 1.17119,1.20201 4.71558,1.20201 h 5.82515 v 4.74641 h -5.82515 q -6.56484,0 -9.06133,-2.43484 -2.49648,-2.46567 -2.49648,-8.93806 v -18.73907 h -4.16082 v -4.40739 h 4.16082 v -9.80104 z"
           id="path490"
           inkscape:label="t"
           style="fill:#ff5e13;fill-opacity:1;stroke-width:1.15768;stroke-dasharray:none" />
        <path
           d="m 756.79924,-232.18204 q -0.95544,-0.55476 -2.09582,-0.80134 -1.10954,-0.27738 -2.46567,-0.27738 -4.80805,0 -7.397,3.14373 -2.55813,3.1129 -2.55813,8.96886 v 18.18431 h -5.70186 v -34.51936 h 5.70186 v 5.36283 q 1.7876,-3.14373 4.65395,-4.65395 2.86633,-1.54104 6.96551,-1.54104 0.5856,0 1.29447,0.0924 0.70888,0.0617 1.57187,0.21575 z"
           id="path492"
           inkscape:label="r"
           style="fill:#ff5e13;fill-opacity:1;stroke-width:1.15768;stroke-dasharray:none" />
        <path
           d="m 762.16209,-216.58668 v -20.89654 h 5.67103 v 20.68079 q 0,4.90052 1.9109,7.36619 1.91089,2.43485 5.73268,2.43485 4.59231,0 7.24291,-2.92798 2.6814,-2.92798 2.6814,-7.9826 v -19.57125 h 5.67105 v 34.51936 h -5.67105 v -5.30119 q -2.06499,3.14373 -4.80805,4.68477 -2.71224,1.51023 -6.31828,1.51023 -5.94842,0 -9.03051,-3.69851 -3.08208,-3.6985 -3.08208,-10.81812 z m 14.27006,-21.7287 z"
           id="path494"
           inkscape:label="u"
           style="fill:#ff5e13;fill-opacity:1;stroke-width:1.15768;stroke-dasharray:none" />
        <path
           d="m 827.59476,-236.15793 v 5.30119 q -2.40403,-1.3253 -4.83888,-1.97253 -2.40402,-0.67806 -4.86969,-0.67806 -5.51694,0 -8.5682,3.51358 -3.05127,3.48276 -3.05127,9.80103 0,6.31827 3.05127,9.83185 3.05126,3.48276 8.5682,3.48276 2.46567,0 4.86969,-0.64724 2.43485,-0.67805 4.83888,-2.00336 v 5.23955 q -2.3732,1.10955 -4.93134,1.66433 -2.52731,0.55478 -5.39365,0.55478 -7.79768,0 -12.38999,-4.90052 -4.5923,-4.90052 -4.5923,-13.22215 0,-8.44492 4.62312,-13.28379 4.65396,-4.83887 12.72902,-4.83887 2.61977,0 5.11626,0.55476 2.4965,0.52396 4.83888,1.60269 z"
           id="path496"
           inkscape:label="c"
           style="fill:#ff5e13;fill-opacity:1;stroke-width:1.15768;stroke-dasharray:none" />
        <path
           d="m 862.29905,-236.15793 v 5.30119 q -2.40403,-1.3253 -4.83889,-1.97253 -2.40402,-0.67806 -4.86969,-0.67806 -5.51693,0 -8.56819,3.51358 -3.05127,3.48276 -3.05127,9.80103 0,6.31827 3.05127,9.83185 3.05126,3.48276 8.56819,3.48276 2.46567,0 4.86969,-0.64724 2.43486,-0.67805 4.83889,-2.00336 v 5.23955 q -2.37322,1.10955 -4.93135,1.66433 -2.5273,0.55478 -5.39364,0.55478 -7.79768,0 -12.38999,-4.90052 -4.59231,-4.90052 -4.59231,-13.22215 0,-8.44492 4.62313,-13.28379 4.65395,-4.83887 12.72902,-4.83887 2.61977,0 5.11625,0.55476 2.49649,0.52396 4.83889,1.60269 z"
           id="path498"
           inkscape:label="c"
           style="fill:#ff5e13;fill-opacity:1;stroke-width:1.15768;stroke-dasharray:none" />
        <path
           d="m 872.16172,-237.48322 h 5.67103 v 34.51936 h -5.67103 z m 0,-13.4379 h 5.67103 v 7.18127 h -5.67103 z"
           id="path500"
           inkscape:label="i"
           style="fill:#ff5e13;fill-opacity:1;stroke-width:1.15768;stroke-dasharray:none" />
        <path
           d="m 903.07506,-233.50733 q -4.56149,0 -7.21209,3.57521 -2.6506,3.5444 -2.6506,9.7394 0,6.19499 2.61978,9.77022 2.65059,3.54439 7.24291,3.54439 4.53066,0 7.18125,-3.57522 2.65059,-3.57522 2.65059,-9.73939 0,-6.13335 -2.65059,-9.70858 -2.65059,-3.60603 -7.18125,-3.60603 z m 0,-4.80805 q 7.397,0 11.61946,4.80805 4.22246,4.80805 4.22246,13.31461 0,8.47574 -4.22246,13.31461 -4.22246,4.80806 -11.61946,4.80806 -7.42784,0 -11.6503,-4.80806 -4.19164,-4.83887 -4.19164,-13.31461 0,-8.50656 4.19164,-13.31461 4.22246,-4.80805 11.6503,-4.80805 z"
           id="path502"
           inkscape:label="o"
           style="fill:#ff5e13;fill-opacity:1;stroke-width:1.15768;stroke-dasharray:none" />
        <path
           d="m 957.01154,-223.79877 v 20.83491 h -5.67105 v -20.64998 q 0,-4.90052 -1.91089,-7.33536 -1.91089,-2.43485 -5.73268,-2.43485 -4.5923,0 -7.24289,2.92798 -2.6506,2.92799 -2.6506,7.98261 v 19.5096 h -5.70185 v -34.51936 h 5.70185 v 5.36283 q 2.03417,-3.11291 4.77724,-4.65395 2.77388,-1.54104 6.37991,-1.54104 5.94843,0 8.99969,3.69849 3.05127,3.66769 3.05127,10.81812 z"
           id="path504"
           inkscape:label="n"
           style="fill:#ff5e13;fill-opacity:1;stroke-width:1.15768;stroke-dasharray:none" />
        <path
           d="m 997.84918,-221.6413 v 2.77388 h -26.07444 q 0.36985,5.85595 3.51358,8.93805 3.17454,3.05126 8.81476,3.05126 3.26701,0 6.31828,-0.80134 3.08208,-0.80135 6.10253,-2.40402 v 5.36282 q -3.05127,1.29447 -6.25663,1.97254 -3.20538,0.67806 -6.50321,0.67806 -8.25999,0 -13.09886,-4.80806 -4.80805,-4.80805 -4.80805,-13.0064 0,-8.47574 4.56149,-13.4379 4.5923,-4.99297 12.35916,-4.99297 6.96551,0 11.00304,4.49984 4.06835,4.46902 4.06835,12.17424 z m -5.67103,-1.66433 q -0.0617,-4.65395 -2.61977,-7.42783 -2.52732,-2.77387 -6.71896,-2.77387 -4.74641,0 -7.61274,2.68142 -2.83553,2.6814 -3.26701,7.5511 z"
           id="path506"
           inkscape:label="e"
           style="fill:#ff5e13;fill-opacity:1;stroke-width:1.15768;stroke-dasharray:none" />
        <path
           d="m 1029.1632,-236.46613 v 5.36282 q -2.4041,-1.23283 -4.993,-1.84924 -2.589,-0.61643 -5.3628,-0.61643 -4.2225,0 -6.3491,1.29448 -2.0959,1.29449 -2.0959,3.88344 0,1.97252 1.5103,3.1129 1.5102,1.10954 6.0717,2.12664 l 1.9417,0.43149 q 6.0409,1.29448 8.5682,3.66768 2.5581,2.34239 2.5581,6.56484 0,4.80806 -3.8218,7.61276 -3.7909,2.8047 -10.4482,2.8047 -2.7739,0 -5.7943,-0.55478 -2.9897,-0.52395 -6.3183,-1.60269 v -5.85595 q 3.1437,1.63349 6.195,2.46565 3.0512,0.80135 6.0409,0.80135 4.0067,0 6.1641,-1.35611 2.1575,-1.38694 2.1575,-3.88343 0,-2.31157 -1.5719,-3.54441 -1.541,-1.23283 -6.8114,-2.3732 l -1.9725,-0.46231 q -5.2704,-1.10955 -7.6128,-3.3903 -2.3424,-2.31156 -2.3424,-6.31828 0,-4.86969 3.452,-7.52029 3.4519,-2.65058 9.801,-2.65058 3.1437,0 5.9176,0.46231 2.7739,0.46231 5.1163,1.38694 z"
           id="path508"
           inkscape:label="s"
           style="fill:#ff5e13;fill-opacity:1;stroke-width:1.15768;stroke-dasharray:none" />
      </g>
    </g>
  </g>
</svg>
