<?xml version="1.0" encoding="UTF-8" standalone="no"?>
<!-- Created with Inkscape (http://www.inkscape.org/) -->

<svg
   version="1.1"
   id="svg2"
   width="219"
   height="63"
   viewBox="0 0 219 63.000002"
   sodipodi:docname="white.svg"
   inkscape:version="1.2.1 (9c6d41e410, 2022-07-14)"
   inkscape:export-filename="dark.svg"
   inkscape:export-xdpi="96"
   inkscape:export-ydpi="96"
   xmlns:inkscape="http://www.inkscape.org/namespaces/inkscape"
   xmlns:sodipodi="http://sodipodi.sourceforge.net/DTD/sodipodi-0.dtd"
   xmlns="http://www.w3.org/2000/svg"
   xmlns:svg="http://www.w3.org/2000/svg">
  <defs
     id="defs6" />
  <sodipodi:namedview
     id="namedview4"
     pagecolor="#ffffff"
     bordercolor="#666666"
     borderopacity="1.0"
     inkscape:showpageshadow="2"
     inkscape:pageopacity="0.0"
     inkscape:pagecheckerboard="0"
     inkscape:deskcolor="#d1d1d1"
     showgrid="false"
     inkscape:zoom="4"
     inkscape:cx="57.75"
     inkscape:cy="40.125"
     inkscape:window-width="1489"
     inkscape:window-height="750"
     inkscape:window-x="733"
     inkscape:window-y="277"
     inkscape:window-maximized="0"
     inkscape:current-layer="g3266" />
  <g
     id="g3266"
     inkscape:export-filename="../../oxybuild-react/public/images/logo/dark.png"
     inkscape:export-xdpi="27.986971"
     inkscape:export-ydpi="27.986971"
     transform="matrix(0.25913862,0,0,-0.25913862,-65.264012,110.90837)"
     inkscape:label="logotipo">
    <g
       aria-label="Amarilla"
       transform="scale(1,-1)"
       id="text970-8"
       style="font-size:144px;line-height:0;font-family:'Phetsarath OT';-inkscape-font-specification:'Phetsarath OT';text-align:center;text-anchor:middle;fill:#333333;stroke-width:4.60397"
       inkscape:label="amarilla">
      <path
         d="m 532.43475,-264.25692 39.58594,-103.07813 H 586.716 l 42.1875,103.07813 H 613.36444 L 601.341,-295.47567 h -43.10156 l -11.32031,31.21875 z m 29.74219,-42.32813 h 34.94531 l -10.75781,-28.54687 q -4.92187,-13.00782 -7.3125,-21.375 -1.96875,9.91406 -5.55469,19.6875 z"
         id="path5657"
         style="fill:#cccccc;fill-opacity:1"
         inkscape:label="a" />
      <path
         d="m 638.18475,-264.25692 v -74.67188 h 11.32032 v 10.47656 q 3.51562,-5.48437 9.35156,-8.78906 5.83594,-3.375 13.28906,-3.375 8.29688,0 13.57031,3.44531 5.34375,3.44532 7.52344,9.63282 8.85938,-13.07813 23.0625,-13.07813 11.10938,0 17.08594,6.1875 5.97656,6.11719 5.97656,18.91406 v 51.25782 H 726.7785 v -47.03907 q 0,-7.59375 -1.26562,-10.89843 -1.19531,-3.375 -4.42969,-5.41407 -3.23437,-2.03906 -7.59375,-2.03906 -7.875,0 -13.07812,5.27344 -5.20313,5.20312 -5.20313,16.73437 v 43.38282 h -12.65625 v -48.51563 q 0,-8.4375 -3.09375,-12.65625 -3.09375,-4.21875 -10.125,-4.21875 -5.34375,0 -9.91406,2.8125 -4.5,2.8125 -6.53906,8.22656 -2.03907,5.41407 -2.03907,15.60938 v 38.74219 z"
         id="path5659"
         style="fill:#cccccc;fill-opacity:1"
         inkscape:label="m" />
      <path
         d="m 806.86444,-273.46786 q -7.03125,5.97656 -13.57031,8.4375 -6.46875,2.46094 -13.92188,2.46094 -12.30468,0 -18.91406,-5.97657 -6.60937,-6.04687 -6.60937,-15.39843 0,-5.48438 2.46093,-9.98438 2.53125,-4.57031 6.53907,-7.3125 4.07812,-2.74219 9.14062,-4.14844 3.72656,-0.98437 11.25,-1.89843 15.32813,-1.82813 22.57031,-4.35938 0.0703,-2.60156 0.0703,-3.30469 0,-7.73437 -3.58594,-10.89843 -4.85156,-4.28907 -14.41406,-4.28907 -8.92969,0 -13.21875,3.16407 -4.21875,3.09375 -6.25782,11.03906 l -12.375,-1.6875 q 1.6875,-7.94531 5.55469,-12.79688 3.86719,-4.92187 11.17969,-7.52343 7.3125,-2.67188 16.94531,-2.67188 9.5625,0 15.53906,2.25 5.97657,2.25 8.78907,5.69531 2.8125,3.375 3.9375,8.57813 0.63281,3.23437 0.63281,11.67187 v 16.875 q 0,17.64844 0.77344,22.35938 0.84375,4.64062 3.23437,8.92969 h -13.21875 q -1.96875,-3.9375 -2.53125,-9.21094 z m -1.05469,-28.26563 q -6.89062,2.8125 -20.67187,4.78125 -7.80469,1.125 -11.03906,2.53125 -3.23438,1.40625 -4.99219,4.14844 -1.75781,2.67188 -1.75781,5.97656 0,5.0625 3.79687,8.4375 3.86719,3.375 11.25,3.375 7.3125,0 13.00781,-3.16406 5.69532,-3.23437 8.36719,-8.78906 2.03906,-4.28906 2.03906,-12.65625 z"
         id="path5661"
         style="fill:#cccccc;fill-opacity:1"
         inkscape:label="a" />
      <path
         d="m 838.08319,-264.25692 v -74.67188 h 11.39063 v 11.32031 q 4.35937,-7.94531 8.01562,-10.47656 3.72656,-2.53125 8.15625,-2.53125 6.39844,0 13.00781,4.07813 l -4.35937,11.74218 q -4.64063,-2.74218 -9.28125,-2.74218 -4.14844,0 -7.45313,2.53125 -3.30468,2.46093 -4.71093,6.89062 -2.10938,6.75 -2.10938,14.76563 v 39.09375 z"
         id="path5663"
         style="fill:#cccccc;fill-opacity:1"
         inkscape:label="r" />
      <path
         d="m 886.24725,-352.78036 v -14.55469 h 12.65625 v 14.55469 z m 0,88.52344 -42.07609,21.88794 54.73234,-96.55982 v 74.67188 z"
         id="path5665"
         sodipodi:nodetypes="cccccccccc"
         style="fill:#cccccc;fill-opacity:1"
         inkscape:label="i" />
      <path
         d="m 917.88788,-264.25692 v -103.07813 h 12.65625 v 103.07813 z"
         id="path5667"
         style="fill:#cccccc;fill-opacity:1"
         inkscape:label="l" />
      <path
         d="m 949.88007,-264.25692 v -103.07813 h 12.65625 v 103.07813 z"
         id="path5669"
         style="fill:#cccccc;fill-opacity:1"
         inkscape:label="l" />
      <path
         d="m 1030.8801,-273.46786 q -7.0312,5.97656 -13.5703,8.4375 -6.4687,2.46094 -13.9219,2.46094 -12.30475,0 -18.91408,-5.97657 -6.60938,-6.04687 -6.60938,-15.39843 0,-5.48438 2.46094,-9.98438 2.53125,-4.57031 6.53907,-7.3125 4.0781,-2.74219 9.1406,-4.14844 3.7266,-0.98437 11.25005,-1.89843 15.3281,-1.82813 22.5703,-4.35938 0.07,-2.60156 0.07,-3.30469 0,-7.73437 -3.5859,-10.89843 -4.8516,-4.28907 -14.4141,-4.28907 -8.9296,0 -13.21875,3.16407 -4.2188,3.09375 -6.2578,11.03906 l -12.37502,-1.6875 q 1.6875,-7.94531 5.55472,-12.79688 3.8672,-4.92187 11.1797,-7.52343 7.31255,-2.67188 16.94535,-2.67188 9.5625,0 15.539,2.25 5.9766,2.25 8.7891,5.69531 2.8125,3.375 3.9375,8.57813 0.6328,3.23437 0.6328,11.67187 v 16.875 q 0,17.64844 0.7734,22.35938 0.8438,4.64062 3.2344,8.92969 h -13.2187 q -1.9688,-3.9375 -2.5313,-9.21094 z m -1.0547,-28.26563 q -6.8906,2.8125 -20.6718,4.78125 -7.8047,1.125 -11.03915,2.53125 -3.2344,1.40625 -4.9922,4.14844 -1.7578,2.67188 -1.7578,5.97656 0,5.0625 3.7969,8.4375 3.8672,3.375 11.25005,3.375 7.3125,0 13.0078,-3.16406 5.6953,-3.23437 8.3672,-8.78906 2.039,-4.28906 2.039,-12.65625 z"
         id="path5671"
         style="fill:#cccccc;fill-opacity:1"
         inkscape:label="a" />
      <path
         d="m 0,0 v 82.155 l -31.571,31.571 -31.572,-31.571 v -97.941 l -94.715,-23.679 v -19.99 H 94.715 v 83.134 z"
         style="fill:#ff5e13;fill-opacity:1;fill-rule:nonzero;stroke:none"
         id="path32-8"
         inkscape:label="casa"
         transform="matrix(0.68271186,0,0,-0.68271186,425.40501,-240.99574)" />
      <path
         d="m 0,0 -163.501,-163.502 c -2.189,-2.188 -0.639,-5.931 2.456,-5.931 h 37.215 v -134.68073 l 63.144,47.34273 v 87.338 L 2.457,-106.29 65.6,-169.433 v -55.766 l 63.143,-15.86726 v 71.63326 h 37.216 c 3.095,0 4.645,3.743 2.457,5.931 L 4.914,0 C 3.557,1.357 1.357,1.357 0,0"
         style="fill:#0a369d;fill-opacity:1;fill-rule:nonzero;stroke:none"
         id="path200-8"
         sodipodi:nodetypes="ccscccccccccsssc"
         inkscape:label="techo"
         transform="matrix(0.68271186,0,0,-0.68271186,402.17351,-421.6847)" />
      <path
         style="fill:#ffffff;fill-opacity:1;fill-rule:evenodd;stroke:#000000;stroke-width:0;stroke-linejoin:bevel;stroke-dasharray:none;stroke-opacity:0.990461;paint-order:markers stroke fill"
         d="m 14.092026,55.4375 c 0.06684,-0.103125 2.31919,-1.81875 5.005212,-3.8125 L 23.980915,48 23.990457,40.247917 24,32.495833 l 5.564561,-5.560439 5.564561,-5.560439 5.560438,5.564561 5.56044,5.564561 v 4.905535 4.905534 l 5.3125,1.326135 5.3125,1.326135 -7.75,1.946596 c -4.2625,1.070628 -7.890625,1.949835 -8.0625,1.953793 -0.242925,0.0056 -0.3125,-1.59395 -0.3125,-7.184383 V 34.491844 L 37.933505,31.683339 35.11701,28.874834 32.308505,31.691329 29.5,34.507823 v 8.652419 8.652418 l -7.622084,1.90617 c -8.176699,2.04487 -7.967379,1.998665 -7.78589,1.71867 z"
         id="path7654"
         transform="matrix(3.8589385,0,0,3.8589385,268.2219,-430.71727)"
         inkscape:label="relleno" />
    </g>
    <g
       aria-label="construcciones"
       transform="matrix(1.4369197,0,0,-1.4369197,-246.14636,-90.21785)"
       id="text910-3"
       style="font-size:46.3631px;line-height:1.25;font-family:'MADE Outer Sans';-inkscape-font-specification:'MADE Outer Sans';text-align:center;text-anchor:middle;display:inline;fill:#ff5e13;fill-opacity:1;stroke-width:1.15908"
       inkscape:label="construcciones">
      <path
         d="m 570.13215,-226.15845 v 3.89378 q -1.76578,-0.97345 -3.5542,-1.44885 -1.76578,-0.49804 -3.57684,-0.49804 -4.05225,0 -6.29343,2.58076 -2.24119,2.55812 -2.24119,7.19896 0,4.64083 2.24119,7.22159 2.24118,2.55812 6.29343,2.55812 1.81106,0 3.57684,-0.4754 1.78842,-0.49804 3.5542,-1.47149 v 3.8485 q -1.74314,0.81498 -3.62212,1.22247 -1.85633,0.40749 -3.96169,0.40749 -5.72747,0 -9.10057,-3.59948 -3.37309,-3.59948 -3.37309,-9.7118 0,-6.20288 3.39573,-9.75708 3.41837,-3.5542 9.34959,-3.5542 1.92425,0 3.75795,0.40748 1.83369,0.38485 3.5542,1.17719 z"
         id="path482"
         inkscape:label="c"
         style="fill:#ff5e13;fill-opacity:1" />
      <path
         d="m 587.20138,-224.21156 q -3.35046,0 -5.29735,2.62603 -1.94689,2.6034 -1.94689,7.15369 0,4.55028 1.92425,7.17632 1.94689,2.60339 5.31999,2.60339 3.32782,0 5.2747,-2.62603 1.94689,-2.62604 1.94689,-7.15368 0,-4.50501 -1.94689,-7.13105 -1.94688,-2.64867 -5.2747,-2.64867 z m 0,-3.53156 q 5.43317,0 8.53461,3.53156 3.10144,3.53156 3.10144,9.77972 0,6.22551 -3.10144,9.77971 -3.10144,3.53157 -8.53461,3.53157 -5.45582,0 -8.55726,-3.53157 -3.07879,-3.5542 -3.07879,-9.77971 0,-6.24816 3.07879,-9.77972 3.10144,-3.53156 8.55726,-3.53156 z"
         id="path484"
         inkscape:label="o"
         style="fill:#ff5e13;fill-opacity:1" />
      <path
         d="m 626.81828,-217.08052 v 15.30345 h -4.16543 v -15.16762 q 0,-3.59948 -1.40357,-5.3879 -1.40357,-1.78842 -4.21071,-1.78842 -3.3731,0 -5.31999,2.15063 -1.94689,2.15064 -1.94689,5.86331 v 14.33 h -4.18807 v -25.35482 h 4.18807 v 3.93905 q 1.49413,-2.28646 3.50893,-3.41837 2.03744,-1.13191 4.68611,-1.13191 4.36918,0 6.61037,2.71658 2.24118,2.69395 2.24118,7.94602 z"
         id="path486"
         inkscape:label="n"
         style="fill:#ff5e13;fill-opacity:1" />
      <path
         d="m 651.29021,-226.38483 v 3.93905 q -1.76578,-0.90553 -3.66739,-1.35829 -1.90162,-0.45277 -3.93906,-0.45277 -3.10143,0 -4.66347,0.95081 -1.5394,0.95081 -1.5394,2.85242 0,1.44884 1.10927,2.28646 1.10927,0.81497 4.45973,1.56204 l 1.42621,0.31693 q 4.43709,0.95081 6.29343,2.69395 1.87897,1.72051 1.87897,4.82194 0,3.53157 -2.80714,5.59165 -2.7845,2.06008 -7.67436,2.06008 -2.03744,0 -4.25599,-0.40749 -2.1959,-0.38485 -4.64083,-1.17719 v -4.30126 q 2.3091,1.19982 4.55028,1.81105 2.24119,0.5886 4.43709,0.5886 2.94297,0 4.52765,-0.99608 1.58468,-1.01872 1.58468,-2.85242 0,-1.69787 -1.15455,-2.6034 -1.13191,-0.90553 -5.00305,-1.74314 l -1.44885,-0.33957 q -3.87114,-0.81498 -5.59164,-2.49021 -1.72051,-1.69787 -1.72051,-4.64084 0,-3.57684 2.53548,-5.52373 2.53549,-1.94688 7.19896,-1.94688 2.3091,0 4.34654,0.33957 2.03744,0.33957 3.75795,1.01872 z"
         id="path488"
         inkscape:label="s"
         style="fill:#ff5e13;fill-opacity:1" />
      <path
         d="m 663.40166,-234.33085 v 7.19896 h 8.57989 v 3.23727 h -8.57989 v 13.76404 q 0,3.10144 0.83762,3.98433 0.86025,0.88289 3.46364,0.88289 h 4.27863 v 3.48629 h -4.27863 q -4.82194,0 -6.65564,-1.78842 -1.83369,-1.81106 -1.83369,-6.56509 v -13.76404 h -3.05616 v -3.23727 h 3.05616 v -7.19896 z"
         id="path490"
         inkscape:label="t"
         style="fill:#ff5e13;fill-opacity:1" />
      <path
         d="m 692.15221,-223.23812 q -0.70178,-0.40748 -1.5394,-0.58859 -0.81497,-0.20374 -1.81106,-0.20374 -3.53156,0 -5.43317,2.3091 -1.87897,2.28646 -1.87897,6.58772 v 13.35656 h -4.18808 v -25.35482 h 4.18808 v 3.93905 q 1.31301,-2.3091 3.41837,-3.41837 2.10535,-1.13191 5.11624,-1.13191 0.43013,0 0.9508,0.0679 0.52068,0.0453 1.15455,0.15847 z"
         id="path492"
         inkscape:label="r"
         style="fill:#ff5e13;fill-opacity:1" />
      <path
         d="m 696.09128,-211.78317 v -15.34872 h 4.16543 v 15.19025 q 0,3.59948 1.40357,5.41054 1.40357,1.78842 4.21071,1.78842 3.3731,0 5.31999,-2.15063 1.96952,-2.15063 1.96952,-5.8633 v -14.37528 h 4.16544 v 25.35482 h -4.16544 v -3.89378 q -1.51676,2.3091 -3.53156,3.44101 -1.99217,1.10928 -4.64084,1.10928 -4.36918,0 -6.633,-2.71659 -2.26382,-2.71659 -2.26382,-7.94602 z m 10.4815,-15.95995 z"
         id="path494"
         inkscape:label="u"
         style="fill:#ff5e13;fill-opacity:1" />
      <path
         d="m 744.15223,-226.15845 v 3.89378 q -1.76578,-0.97345 -3.5542,-1.44885 -1.76578,-0.49804 -3.57684,-0.49804 -4.05225,0 -6.29343,2.58076 -2.24119,2.55812 -2.24119,7.19896 0,4.64083 2.24119,7.22159 2.24118,2.55812 6.29343,2.55812 1.81106,0 3.57684,-0.4754 1.78842,-0.49804 3.5542,-1.47149 v 3.8485 q -1.74314,0.81498 -3.62212,1.22247 -1.85633,0.40749 -3.96169,0.40749 -5.72747,0 -9.10057,-3.59948 -3.37309,-3.59948 -3.37309,-9.7118 0,-6.20288 3.39573,-9.75708 3.41838,-3.5542 9.34959,-3.5542 1.92425,0 3.75795,0.40748 1.8337,0.38485 3.5542,1.17719 z"
         id="path496"
         inkscape:label="c"
         style="fill:#ff5e13;fill-opacity:1" />
      <path
         d="m 769.64288,-226.15845 v 3.89378 q -1.76578,-0.97345 -3.55421,-1.44885 -1.76578,-0.49804 -3.57684,-0.49804 -4.05224,0 -6.29342,2.58076 -2.24119,2.55812 -2.24119,7.19896 0,4.64083 2.24119,7.22159 2.24118,2.55812 6.29342,2.55812 1.81106,0 3.57684,-0.4754 1.78843,-0.49804 3.55421,-1.47149 v 3.8485 q -1.74315,0.81498 -3.62212,1.22247 -1.85633,0.40749 -3.96169,0.40749 -5.72747,0 -9.10057,-3.59948 -3.3731,-3.59948 -3.3731,-9.7118 0,-6.20288 3.39574,-9.75708 3.41837,-3.5542 9.34959,-3.5542 1.92425,0 3.75794,0.40748 1.8337,0.38485 3.55421,1.17719 z"
         id="path498"
         inkscape:label="c"
         style="fill:#ff5e13;fill-opacity:1" />
      <path
         d="m 776.88711,-227.13189 h 4.16543 v 25.35482 h -4.16543 z m 0,-9.87027 h 4.16543 v 5.27471 h -4.16543 z"
         id="path500"
         inkscape:label="i"
         style="fill:#ff5e13;fill-opacity:1" />
      <path
         d="m 799.59327,-224.21156 q -3.35046,0 -5.29735,2.62603 -1.94689,2.6034 -1.94689,7.15369 0,4.55028 1.92425,7.17632 1.94689,2.60339 5.31999,2.60339 3.32782,0 5.2747,-2.62603 1.94689,-2.62604 1.94689,-7.15368 0,-4.50501 -1.94689,-7.13105 -1.94688,-2.64867 -5.2747,-2.64867 z m 0,-3.53156 q 5.43317,0 8.53461,3.53156 3.10144,3.53156 3.10144,9.77972 0,6.22551 -3.10144,9.77971 -3.10144,3.53157 -8.53461,3.53157 -5.45582,0 -8.55726,-3.53157 -3.0788,-3.5542 -3.0788,-9.77971 0,-6.24816 3.0788,-9.77972 3.10144,-3.53156 8.55726,-3.53156 z"
         id="path502"
         inkscape:label="o"
         style="fill:#ff5e13;fill-opacity:1" />
      <path
         d="m 839.21016,-217.08052 v 15.30345 h -4.16544 v -15.16762 q 0,-3.59948 -1.40357,-5.3879 -1.40357,-1.78842 -4.21071,-1.78842 -3.37309,0 -5.31998,2.15063 -1.94689,2.15064 -1.94689,5.86331 v 14.33 h -4.18807 v -25.35482 h 4.18807 v 3.93905 q 1.49412,-2.28646 3.50893,-3.41837 2.03744,-1.13191 4.68611,-1.13191 4.36918,0 6.61036,2.71658 2.24119,2.69395 2.24119,7.94602 z"
         id="path504"
         inkscape:label="n"
         style="fill:#ff5e13;fill-opacity:1" />
      <path
         d="m 869.20582,-215.49584 v 2.03744 h -19.15194 q 0.27166,4.30126 2.58076,6.56509 2.33173,2.24118 6.47453,2.24118 2.39965,0 4.64084,-0.58859 2.26382,-0.5886 4.48237,-1.76578 v 3.93905 q -2.24119,0.9508 -4.59556,1.44885 -2.35438,0.49804 -4.77667,0.49804 -6.06705,0 -9.62125,-3.53157 -3.53156,-3.53156 -3.53156,-9.55333 0,-6.22552 3.35046,-9.87027 3.37309,-3.66739 9.07793,-3.66739 5.11624,0 8.08184,3.30518 2.98825,3.28254 2.98825,8.9421 z m -4.16543,-1.22247 q -0.0453,-3.41837 -1.92425,-5.45581 -1.85634,-2.03744 -4.93514,-2.03744 -3.48629,0 -5.59164,1.96953 -2.08272,1.96952 -2.39965,5.54636 z"
         id="path506"
         inkscape:label="e"
         style="fill:#ff5e13;fill-opacity:1" />
      <path
         d="m 892.20626,-226.38483 v 3.93905 q -1.76578,-0.90553 -3.66739,-1.35829 -1.90161,-0.45277 -3.93905,-0.45277 -3.10144,0 -4.66348,0.95081 -1.5394,0.95081 -1.5394,2.85242 0,1.44884 1.10927,2.28646 1.10928,0.81497 4.45974,1.56204 l 1.42621,0.31693 q 4.43709,0.95081 6.29342,2.69395 1.87898,1.72051 1.87898,4.82194 0,3.53157 -2.80714,5.59165 -2.78451,2.06008 -7.67436,2.06008 -2.03745,0 -4.25599,-0.40749 -2.19591,-0.38485 -4.64084,-1.17719 v -4.30126 q 2.3091,1.19982 4.55029,1.81105 2.24118,0.5886 4.43709,0.5886 2.94297,0 4.52764,-0.99608 1.58468,-1.01872 1.58468,-2.85242 0,-1.69787 -1.15455,-2.6034 -1.13191,-0.90553 -5.00305,-1.74314 l -1.44884,-0.33957 q -3.87114,-0.81498 -5.59165,-2.49021 -1.7205,-1.69787 -1.7205,-4.64084 0,-3.57684 2.53548,-5.52373 2.53548,-1.94688 7.19896,-1.94688 2.3091,0 4.34654,0.33957 2.03744,0.33957 3.75794,1.01872 z"
         id="path508"
         inkscape:label="s"
         style="fill:#ff5e13;fill-opacity:1" />
    </g>
  </g>
</svg>
