<?xml version="1.0" encoding="UTF-8" standalone="no"?>
<!-- Created with Inkscape (http://www.inkscape.org/) -->

<svg
   version="1.1"
   id="svg2"
   width="180"
   height="60"
   viewBox="0 0 180 60.000003"
   sodipodi:docname="logo-amara-main.svg"
   inkscape:version="1.2.1 (9c6d41e410, 2022-07-14)"
   inkscape:export-filename="logo-amara-main.svg"
   inkscape:export-xdpi="71.619049"
   inkscape:export-ydpi="71.619049"
   xmlns:inkscape="http://www.inkscape.org/namespaces/inkscape"
   xmlns:sodipodi="http://sodipodi.sourceforge.net/DTD/sodipodi-0.dtd"
   xmlns="http://www.w3.org/2000/svg"
   xmlns:svg="http://www.w3.org/2000/svg">
  <defs
     id="defs6" />
  <sodipodi:namedview
     id="namedview4"
     pagecolor="#ffffff"
     bordercolor="#666666"
     borderopacity="1.0"
     inkscape:showpageshadow="2"
     inkscape:pageopacity="0.0"
     inkscape:pagecheckerboard="0"
     inkscape:deskcolor="#d1d1d1"
     showgrid="false"
     inkscape:zoom="2"
     inkscape:cx="94.5"
     inkscape:cy="101.25"
     inkscape:window-width="1489"
     inkscape:window-height="750"
     inkscape:window-x="431"
     inkscape:window-y="277"
     inkscape:window-maximized="0"
     inkscape:current-layer="g1271" />
  <g
     id="g3266"
     inkscape:export-filename="../../oxybuild-react/public/images/logo/dark.png"
     inkscape:export-xdpi="27.986971"
     inkscape:export-ydpi="27.986971"
     transform="matrix(0.25913862,0,0,-0.25913862,-106.91581,105.91931)"
     inkscape:label="logotipo">
    <g
       aria-label="Amarilla"
       transform="matrix(0.92624335,0,0,-0.92624335,50.746259,22.967254)"
       id="text970-8"
       style="font-size:144px;line-height:0;font-family:'Phetsarath OT';-inkscape-font-specification:'Phetsarath OT';text-align:center;text-anchor:middle;fill:#333333;stroke-width:4.60397"
       inkscape:label="amarilla" />
    <g
       id="g1271"
       transform="matrix(0.80341329,0,0,0.80341329,212.92672,30.173023)">
      <path
         d="m 522.84585,273.84842 42.64424,111.04167 h 15.83063 L 626.7675,273.84842 h -16.73956 l -12.95234,33.63063 h -46.43146 l -12.19489,-33.63063 z m 32.03999,45.59829 h 37.64508 l -11.58893,30.75232 q -5.30211,14.01276 -7.87744,23.02637 -2.12085,-10.67999 -5.98383,-21.2085 z"
         id="path5657"
         style="font-size:144px;line-height:0;font-family:'Phetsarath OT';-inkscape-font-specification:'Phetsarath OT';text-align:center;text-anchor:middle;fill:#f2f2f2;fill-opacity:1;stroke-width:4.95966"
         inkscape:label="a" />
      <path
         d="m 636.7658,273.84842 v 80.44083 h 14.21394 l -0.0522,-5.63276 c 3.50634,2.33258 3.66366,2.45108 7.85486,4.82441 4.19121,2.42383 9.21551,2.62622 14.56813,2.62622 5.95858,0 10.83148,-1.23716 14.6187,-3.71149 3.83773,-2.47433 6.53929,-5.93334 8.10468,-10.37702 6.36256,9.39234 14.64397,14.08851 24.84424,14.08851 7.97844,0 14.11376,-2.22185 18.40596,-6.66553 4.29219,-4.39319 6.43829,-11.18497 6.43829,-20.37531 v -55.21786 h -13.55831 v 50.67319 c 0,5.45361 -0.45447,9.36708 -1.3634,11.74041 -0.85844,2.42382 -2.44907,2.85366 -4.77192,4.31807 -2.32283,1.46439 -5.04963,2.19658 -8.18041,2.19658 -5.65561,0 -10.35177,-1.89362 -14.08851,-5.68085 -3.73673,-3.73674 -5.6051,-8.23153 -5.6051,-16.51294 v -46.73446 h -13.63404 v 52.26382 c 0,6.05957 -1.11091,9.08997 -3.33276,12.11976 -2.22185,3.02978 -5.85759,4.54467 -10.90723,4.54467 -3.83773,0 -6.89296,-1.51469 -10.17523,-3.53455 -3.23178,-2.01985 -5.95478,-4.95868 -7.54901,-8.35735 -2.18821,-4.66491 -2.19661,-7.97906 -2.19661,-15.30104 v -41.73531 z"
         id="path5659"
         style="font-size:144px;line-height:0;font-family:'Phetsarath OT';-inkscape-font-specification:'Phetsarath OT';text-align:center;text-anchor:middle;fill:#f2f2f2;fill-opacity:1;stroke-width:4.95966"
         inkscape:label="m"
         sodipodi:nodetypes="cccccsccscsccscsscsccssscascc" />
      <path
         d="m 818.4772,283.77098 c -5.04964,-4.29219 -9.92254,-7.32198 -14.61871,-9.08936 -4.64567,-1.76737 -9.64483,-2.65106 -14.99745,-2.65106 -8.83687,0 -15.62864,2.1461 -20.37531,6.4383 -4.74666,4.34269 -7.11999,9.87205 -7.11999,16.58807 0,3.93873 0.88369,7.52397 2.65106,10.75574 1.81787,3.28227 4.16596,5.90808 7.04426,7.87744 2.92879,1.96937 6.21105,3.45902 9.84679,4.46894 2.67632,0.70695 6.71603,1.38865 12.11915,2.0451 11.00822,1.31291 19.1129,2.8783 24.31403,4.69618 0.0505,1.86836 0.0757,3.05503 0.0757,3.55999 0,5.55461 -1.28766,9.46808 -3.86298,11.74041 -3.48425,3.08029 -8.66014,4.62044 -15.52765,4.62044 -6.41305,0 -11.15971,-1.13618 -14.23999,-3.40852 -3.02979,-2.22185 -5.27688,-6.18581 -6.74129,-11.89191 l -13.33105,1.81788 c 1.21191,5.70609 3.20653,10.30127 5.98383,13.78552 2.7773,3.53475 6.79177,6.23631 12.0434,8.10468 5.25163,1.91887 11.33644,2.8783 18.25445,2.8783 6.86752,0 12.44738,-0.80794 16.73957,-2.42384 4.2922,-1.61588 7.44823,-3.66099 9.46809,-6.13531 2.01985,-2.42383 3.43376,-5.50411 4.2417,-9.24085 0.45447,-2.32283 0.6817,-6.51403 0.6817,-12.5736 V 307.5548 c 0,-12.6746 0.28308,-20.88574 0.47626,-24.26525 l 0.004,-9.44113 h -13.16922 c 0,3.02768 -0.0921,9.92256 0.0394,9.92256 z m -1.13617,30.44935 c -4.94865,-2.01986 -12.37162,-3.73673 -22.26892,-5.15063 -5.60511,-0.80794 -9.56907,-1.71688 -11.8919,-2.72681 -2.32285,-1.00993 -4.11547,-2.49958 -5.37788,-4.46894 -1.26241,-1.91887 -1.89361,-4.06497 -1.89361,-6.43829 0,-3.63574 1.3634,-6.66552 4.0902,-9.08936 2.7773,-2.42383 6.81703,-3.63574 12.11915,-3.63574 5.25162,0 9.92254,1.13617 14.01275,3.40851 4.09022,2.32283 7.09475,5.47885 9.01361,9.46808 1.4644,3.08027 2.1966,7.62495 2.1966,13.63403 z"
         id="path5661"
         style="font-size:144px;line-height:0;font-family:'Phetsarath OT';-inkscape-font-specification:'Phetsarath OT';text-align:center;text-anchor:middle;fill:#f2f2f2;fill-opacity:1;stroke-width:4.95966"
         inkscape:label="a"
         sodipodi:nodetypes="scscscccccscscccccssccssscccsccscscsccsc" />
      <path
         d="m 852.10782,273.84842 v 80.44083 h 12.27064 l 0.53538,-9.16107 c 2.18117,1.09295 44.7118,17.92517 46.07518,13.76329 3.84081,-11.72459 -1.99483,-75.66412 -1.99483,-75.66412 -0.96801,15.51404 -3.2577,56.64499 -8.78141,58.57453 -8.84363,0.98294 -23.51832,-6.21705 -30.93667,-11.95209 -2.90409,-4.13247 -3.53425,-8.13074 -3.53425,-13.88734 v -42.11403 z"
         id="path5663"
         style="font-size:144px;line-height:0;font-family:'Phetsarath OT';-inkscape-font-specification:'Phetsarath OT';text-align:center;text-anchor:middle;fill:#f2f2f2;fill-opacity:1;stroke-width:4.95966"
         inkscape:label="r"
         sodipodi:nodetypes="ccccscccscc" />
      <path
         d="m 400.7322,232.29433 v 63.021 l -24.21808,24.21807 -24.21885,-24.21807 v -75.13041 l -72.65575,-18.16414 v -15.3343 h 193.74843 v 63.77198 z"
         style="font-size:144px;line-height:0;font-family:'Phetsarath OT';-inkscape-font-specification:'Phetsarath OT';text-align:center;text-anchor:middle;fill:#ff5e13;fill-opacity:1;fill-rule:nonzero;stroke:none;stroke-width:3.53169"
         id="path32-8"
         inkscape:label="casa" />
      <path
         d="M 374.62917,435.31742 249.20774,309.89525 c -1.67917,-1.67842 -0.49017,-4.54967 1.884,-4.54967 h 28.54758 V 202.03217 L 328.077,238.3487 v 66.99688 l 48.43691,48.43692 48.43692,-48.43692 v -42.77803 l 48.43691,-12.17175 v 54.94978 h 28.54835 c 2.37418,0 3.56318,2.87125 1.88476,4.54967 L 378.39868,435.31742 c -1.04096,1.04095 -2.72857,1.04095 -3.76951,0"
         style="font-size:144px;line-height:0;font-family:'Phetsarath OT';-inkscape-font-specification:'Phetsarath OT';text-align:center;text-anchor:middle;fill:#0a369d;fill-opacity:1;fill-rule:nonzero;stroke:none;stroke-width:3.53169"
         id="path200-8"
         sodipodi:nodetypes="ccscccccccccsssc"
         inkscape:label="techo" />
      <path
         style="font-size:144px;line-height:0;font-family:'Phetsarath OT';-inkscape-font-specification:'Phetsarath OT';text-align:center;text-anchor:middle;fill:#ffffff;fill-opacity:1;fill-rule:evenodd;stroke:#000000;stroke-width:0.108398;stroke-linejoin:bevel;stroke-dasharray:none;stroke-opacity:0.990461;paint-order:markers stroke fill"
         d="m 285.22237,205.09368 c 0.2898,0.44714 10.05583,7.88595 21.7022,16.53071 l 21.17525,15.71771 0.0414,33.61244 0.0413,33.61246 24.12751,24.10964 24.12752,24.10963 24.10963,-24.1275 24.10965,-24.12751 V 283.26123 261.9912 l 23.03459,-5.75002 23.0346,-5.75001 -33.60341,-8.4403 c -18.48188,-4.64216 -34.21316,-8.45434 -34.95839,-8.47149 -1.05331,-0.0243 -1.35498,6.91124 -1.35498,31.15093 v 31.18215 l -12.2121,12.17745 -12.21211,12.17746 -12.17747,-12.2121 -12.17747,-12.21212 V 258.32694 220.81071 L 318.9814,212.5457 c -35.45355,-8.86641 -34.54595,-8.66607 -33.75902,-7.45202 z"
         id="path7654"
         inkscape:label="relleno" />
      <path
         d="m 980.95425,284.06666 c -5.04956,-4.29219 -9.92252,-7.32198 -14.61869,-9.08936 -4.64567,-1.76737 -9.64483,-2.65107 -14.99745,-2.65107 -8.83687,0 -15.62863,2.14611 -20.37531,6.43831 -4.74666,4.34268 -7.11999,9.87204 -7.11999,16.58807 0,3.93873 0.8837,7.52397 2.65107,10.75574 1.81785,3.28227 4.16595,5.90808 7.04425,7.87744 2.9288,1.96937 6.21106,3.45902 9.8468,4.46894 2.67631,0.70695 6.71602,1.38864 12.11913,2.0451 11.00823,1.3129 19.11288,2.8783 24.31404,4.69617 0.0504,1.86837 0.0756,3.05504 0.0756,3.56 0,5.55461 -1.28764,9.46808 -3.86302,11.74041 -3.4842,3.08029 -8.66009,4.62044 -15.52761,4.62044 -6.41304,0 -11.1597,-1.13618 -14.23999,-3.40853 -3.02979,-2.22184 -5.27688,-6.1858 -6.74128,-11.8919 l -13.33107,1.81788 c 1.21192,5.70609 3.20654,10.30126 5.98384,13.78552 2.7773,3.53475 6.79177,6.23631 12.0434,8.10467 5.25163,1.91887 11.33644,2.87831 18.25445,2.87831 6.86752,0 12.44741,-0.80794 16.73961,-2.42384 4.2922,-1.61588 7.44815,-3.66098 9.46805,-6.13532 2.01981,-2.42382 3.43375,-5.50411 4.24171,-9.24084 0.45448,-2.32283 0.68167,-6.51403 0.68167,-12.5736 v -18.17872 c 0,-12.6746 0.28312,-20.88575 0.47629,-24.26525 V 274.1441 H 980.9105 c 0,3.02768 -0.0921,9.92256 0.0398,9.92256 z M 979.8181,314.516 c -4.94866,-2.01985 -12.37162,-3.73672 -22.26892,-5.15062 -5.60511,-0.80795 -9.56907,-1.71688 -11.8919,-2.72682 -2.32284,-1.00993 -4.11547,-2.49957 -5.37788,-4.46892 -1.26242,-1.91887 -1.89361,-4.06498 -1.89361,-6.43831 0,-3.63574 1.3634,-6.66551 4.0902,-9.08935 2.77731,-2.42383 6.81703,-3.63575 12.11915,-3.63575 5.25163,0 9.92254,1.13618 14.01275,3.40852 4.09023,2.32283 7.0948,5.47885 9.01361,9.46807 1.46443,3.08028 2.1966,7.62496 2.1966,13.63404 z"
         id="path1238"
         style="font-size:144px;line-height:0;font-family:'Phetsarath OT';-inkscape-font-specification:'Phetsarath OT';text-align:center;text-anchor:middle;fill:#f2f2f2;fill-opacity:1;stroke-width:4.95966"
         inkscape:label="a"
         sodipodi:nodetypes="scscscccccscscccccssccssscccsccscscsccsc" />
      <g
         aria-label="construcciones"
         transform="matrix(1.0602593,0,0,-1.0602593,-83.260704,-27.872965)"
         id="text910-3"
         style="font-size:46.3631px;line-height:1.25;font-family:'MADE Outer Sans';-inkscape-font-specification:'MADE Outer Sans';text-align:center;text-anchor:middle;display:inline;fill:#ff5e13;fill-opacity:1;stroke-width:1.15768;stroke-dasharray:none"
         inkscape:label="construcciones">
        <path
           d="m 590.67482,-236.15793 v 5.30119 q -2.40403,-1.3253 -4.83887,-1.97253 -2.40403,-0.67806 -4.8697,-0.67806 -5.51694,0 -8.5682,3.51358 -3.05127,3.48276 -3.05127,9.80103 0,6.31827 3.05127,9.83185 3.05126,3.48276 8.5682,3.48276 2.46567,0 4.8697,-0.64724 2.43484,-0.67805 4.83887,-2.00336 v 5.23955 q -2.3732,1.10955 -4.93134,1.66433 -2.52731,0.55478 -5.39365,0.55478 -7.79768,0 -12.38999,-4.90052 -4.5923,-4.90052 -4.5923,-13.22215 0,-8.44492 4.62312,-13.28379 4.65395,-4.83887 12.72902,-4.83887 2.61977,0 5.11627,0.55476 2.49648,0.52396 4.83887,1.60269 z"
           id="path482"
           inkscape:label="c"
           style="fill:#ff5e13;fill-opacity:1;stroke-width:1.15768;stroke-dasharray:none" />
        <path
           d="m 613.91375,-233.50733 q -4.56149,0 -7.21209,3.57521 -2.65059,3.5444 -2.65059,9.7394 0,6.19499 2.61977,9.77022 2.6506,3.54439 7.24291,3.54439 4.53067,0 7.18125,-3.57522 2.6506,-3.57522 2.6506,-9.73939 0,-6.13335 -2.6506,-9.70858 -2.65058,-3.60603 -7.18125,-3.60603 z m 0,-4.80805 q 7.397,0 11.61946,4.80805 4.22246,4.80805 4.22246,13.31461 0,8.47574 -4.22246,13.31461 -4.22246,4.80806 -11.61946,4.80806 -7.42784,0 -11.6503,-4.80806 -4.19162,-4.83887 -4.19162,-13.31461 0,-8.50656 4.19162,-13.31461 4.22246,-4.80805 11.6503,-4.80805 z"
           id="path484"
           inkscape:label="o"
           style="fill:#ff5e13;fill-opacity:1;stroke-width:1.15768;stroke-dasharray:none" />
        <path
           d="m 667.85025,-223.79877 v 20.83491 h -5.67103 v -20.64998 q 0,-4.90052 -1.9109,-7.33536 -1.91089,-2.43485 -5.73268,-2.43485 -4.59231,0 -7.24291,2.92798 -2.65059,2.92799 -2.65059,7.98261 v 19.5096 h -5.70186 v -34.51936 h 5.70186 v 5.36283 q 2.03418,-3.11291 4.77724,-4.65395 2.77387,-1.54104 6.37991,-1.54104 5.94843,0 8.9997,3.69849 3.05126,3.66769 3.05126,10.81812 z"
           id="path486"
           inkscape:label="n"
           style="fill:#ff5e13;fill-opacity:1;stroke-width:1.15768;stroke-dasharray:none" />
        <path
           d="m 701.1676,-236.46613 v 5.36282 q -2.40403,-1.23283 -4.99298,-1.84924 -2.58896,-0.61643 -5.36284,-0.61643 -4.22244,0 -6.34909,1.29448 -2.09581,1.29449 -2.09581,3.88344 0,1.97252 1.51021,3.1129 1.51022,1.10954 6.07171,2.12664 l 1.94172,0.43149 q 6.04088,1.29448 8.5682,3.66768 2.55812,2.34239 2.55812,6.56484 0,4.80806 -3.82178,7.61276 -3.79096,2.8047 -10.44827,2.8047 -2.77388,0 -5.79433,-0.55478 -2.98961,-0.52395 -6.31826,-1.60269 v -5.85595 q 3.14373,1.63349 6.19498,2.46565 3.05128,0.80135 6.04089,0.80135 4.00671,0 6.16418,-1.35611 2.15746,-1.38694 2.15746,-3.88343 0,-2.31157 -1.57186,-3.54441 -1.54104,-1.23283 -6.81141,-2.3732 l -1.97254,-0.46231 q -5.27037,-1.10955 -7.61275,-3.3903 -2.34239,-2.31156 -2.34239,-6.31828 0,-4.86969 3.45193,-7.52029 3.45195,-2.65058 9.80104,-2.65058 3.14372,0 5.9176,0.46231 2.77388,0.46231 5.11627,1.38694 z"
           id="path488"
           inkscape:label="s"
           style="fill:#ff5e13;fill-opacity:1;stroke-width:1.15768;stroke-dasharray:none" />
        <path
           d="m 717.65675,-247.28426 v 9.80104 h 11.68111 v 4.40739 h -11.68111 v 18.73907 q 0,4.22246 1.14038,5.42448 1.17119,1.20201 4.71558,1.20201 h 5.82515 v 4.74641 h -5.82515 q -6.56484,0 -9.06133,-2.43484 -2.49648,-2.46567 -2.49648,-8.93806 v -18.73907 h -4.16082 v -4.40739 h 4.16082 v -9.80104 z"
           id="path490"
           inkscape:label="t"
           style="fill:#ff5e13;fill-opacity:1;stroke-width:1.15768;stroke-dasharray:none" />
        <path
           d="m 756.79924,-232.18204 q -0.95544,-0.55476 -2.09582,-0.80134 -1.10954,-0.27738 -2.46567,-0.27738 -4.80805,0 -7.397,3.14373 -2.55813,3.1129 -2.55813,8.96886 v 18.18431 h -5.70186 v -34.51936 h 5.70186 v 5.36283 q 1.7876,-3.14373 4.65395,-4.65395 2.86633,-1.54104 6.96551,-1.54104 0.5856,0 1.29447,0.0924 0.70888,0.0617 1.57187,0.21575 z"
           id="path492"
           inkscape:label="r"
           style="fill:#ff5e13;fill-opacity:1;stroke-width:1.15768;stroke-dasharray:none" />
        <path
           d="m 762.16209,-216.58668 v -20.89654 h 5.67103 v 20.68079 q 0,4.90052 1.9109,7.36619 1.91089,2.43485 5.73268,2.43485 4.59231,0 7.24291,-2.92798 2.6814,-2.92798 2.6814,-7.9826 v -19.57125 h 5.67105 v 34.51936 h -5.67105 v -5.30119 q -2.06499,3.14373 -4.80805,4.68477 -2.71224,1.51023 -6.31828,1.51023 -5.94842,0 -9.03051,-3.69851 -3.08208,-3.6985 -3.08208,-10.81812 z m 14.27006,-21.7287 z"
           id="path494"
           inkscape:label="u"
           style="fill:#ff5e13;fill-opacity:1;stroke-width:1.15768;stroke-dasharray:none" />
        <path
           d="m 827.59476,-236.15793 v 5.30119 q -2.40403,-1.3253 -4.83888,-1.97253 -2.40402,-0.67806 -4.86969,-0.67806 -5.51694,0 -8.5682,3.51358 -3.05127,3.48276 -3.05127,9.80103 0,6.31827 3.05127,9.83185 3.05126,3.48276 8.5682,3.48276 2.46567,0 4.86969,-0.64724 2.43485,-0.67805 4.83888,-2.00336 v 5.23955 q -2.3732,1.10955 -4.93134,1.66433 -2.52731,0.55478 -5.39365,0.55478 -7.79768,0 -12.38999,-4.90052 -4.5923,-4.90052 -4.5923,-13.22215 0,-8.44492 4.62312,-13.28379 4.65396,-4.83887 12.72902,-4.83887 2.61977,0 5.11626,0.55476 2.4965,0.52396 4.83888,1.60269 z"
           id="path496"
           inkscape:label="c"
           style="fill:#ff5e13;fill-opacity:1;stroke-width:1.15768;stroke-dasharray:none" />
        <path
           d="m 862.29905,-236.15793 v 5.30119 q -2.40403,-1.3253 -4.83889,-1.97253 -2.40402,-0.67806 -4.86969,-0.67806 -5.51693,0 -8.56819,3.51358 -3.05127,3.48276 -3.05127,9.80103 0,6.31827 3.05127,9.83185 3.05126,3.48276 8.56819,3.48276 2.46567,0 4.86969,-0.64724 2.43486,-0.67805 4.83889,-2.00336 v 5.23955 q -2.37322,1.10955 -4.93135,1.66433 -2.5273,0.55478 -5.39364,0.55478 -7.79768,0 -12.38999,-4.90052 -4.59231,-4.90052 -4.59231,-13.22215 0,-8.44492 4.62313,-13.28379 4.65395,-4.83887 12.72902,-4.83887 2.61977,0 5.11625,0.55476 2.49649,0.52396 4.83889,1.60269 z"
           id="path498"
           inkscape:label="c"
           style="fill:#ff5e13;fill-opacity:1;stroke-width:1.15768;stroke-dasharray:none" />
        <path
           d="m 872.16172,-237.48322 h 5.67103 v 34.51936 h -5.67103 z m 0,-13.4379 h 5.67103 v 7.18127 h -5.67103 z"
           id="path500"
           inkscape:label="i"
           style="fill:#ff5e13;fill-opacity:1;stroke-width:1.15768;stroke-dasharray:none" />
        <path
           d="m 903.07506,-233.50733 q -4.56149,0 -7.21209,3.57521 -2.6506,3.5444 -2.6506,9.7394 0,6.19499 2.61978,9.77022 2.65059,3.54439 7.24291,3.54439 4.53066,0 7.18125,-3.57522 2.65059,-3.57522 2.65059,-9.73939 0,-6.13335 -2.65059,-9.70858 -2.65059,-3.60603 -7.18125,-3.60603 z m 0,-4.80805 q 7.397,0 11.61946,4.80805 4.22246,4.80805 4.22246,13.31461 0,8.47574 -4.22246,13.31461 -4.22246,4.80806 -11.61946,4.80806 -7.42784,0 -11.6503,-4.80806 -4.19164,-4.83887 -4.19164,-13.31461 0,-8.50656 4.19164,-13.31461 4.22246,-4.80805 11.6503,-4.80805 z"
           id="path502"
           inkscape:label="o"
           style="fill:#ff5e13;fill-opacity:1;stroke-width:1.15768;stroke-dasharray:none" />
        <path
           d="m 957.01154,-223.79877 v 20.83491 h -5.67105 v -20.64998 q 0,-4.90052 -1.91089,-7.33536 -1.91089,-2.43485 -5.73268,-2.43485 -4.5923,0 -7.24289,2.92798 -2.6506,2.92799 -2.6506,7.98261 v 19.5096 h -5.70185 v -34.51936 h 5.70185 v 5.36283 q 2.03417,-3.11291 4.77724,-4.65395 2.77388,-1.54104 6.37991,-1.54104 5.94843,0 8.99969,3.69849 3.05127,3.66769 3.05127,10.81812 z"
           id="path504"
           inkscape:label="n"
           style="fill:#ff5e13;fill-opacity:1;stroke-width:1.15768;stroke-dasharray:none" />
        <path
           d="m 997.84918,-221.6413 v 2.77388 h -26.07444 q 0.36985,5.85595 3.51358,8.93805 3.17454,3.05126 8.81476,3.05126 3.26701,0 6.31828,-0.80134 3.08208,-0.80135 6.10253,-2.40402 v 5.36282 q -3.05127,1.29447 -6.25663,1.97254 -3.20538,0.67806 -6.50321,0.67806 -8.25999,0 -13.09886,-4.80806 -4.80805,-4.80805 -4.80805,-13.0064 0,-8.47574 4.56149,-13.4379 4.5923,-4.99297 12.35916,-4.99297 6.96551,0 11.00304,4.49984 4.06835,4.46902 4.06835,12.17424 z m -5.67103,-1.66433 q -0.0617,-4.65395 -2.61977,-7.42783 -2.52732,-2.77387 -6.71896,-2.77387 -4.74641,0 -7.61274,2.68142 -2.83553,2.6814 -3.26701,7.5511 z"
           id="path506"
           inkscape:label="e"
           style="fill:#ff5e13;fill-opacity:1;stroke-width:1.15768;stroke-dasharray:none" />
        <path
           d="m 1029.1632,-236.46613 v 5.36282 q -2.4041,-1.23283 -4.993,-1.84924 -2.589,-0.61643 -5.3628,-0.61643 -4.2225,0 -6.3491,1.29448 -2.0959,1.29449 -2.0959,3.88344 0,1.97252 1.5103,3.1129 1.5102,1.10954 6.0717,2.12664 l 1.9417,0.43149 q 6.0409,1.29448 8.5682,3.66768 2.5581,2.34239 2.5581,6.56484 0,4.80806 -3.8218,7.61276 -3.7909,2.8047 -10.4482,2.8047 -2.7739,0 -5.7943,-0.55478 -2.9897,-0.52395 -6.3183,-1.60269 v -5.85595 q 3.1437,1.63349 6.195,2.46565 3.0512,0.80135 6.0409,0.80135 4.0067,0 6.1641,-1.35611 2.1575,-1.38694 2.1575,-3.88343 0,-2.31157 -1.5719,-3.54441 -1.541,-1.23283 -6.8114,-2.3732 l -1.9725,-0.46231 q -5.2704,-1.10955 -7.6128,-3.3903 -2.3424,-2.31156 -2.3424,-6.31828 0,-4.86969 3.452,-7.52029 3.4519,-2.65058 9.801,-2.65058 3.1437,0 5.9176,0.46231 2.7739,0.46231 5.1163,1.38694 z"
           id="path508"
           inkscape:label="s"
           style="fill:#ff5e13;fill-opacity:1;stroke-width:1.15768;stroke-dasharray:none" />
      </g>
    </g>
  </g>
</svg>
