<?xml version="1.0" encoding="UTF-8" standalone="no"?>
<!-- Created with Inkscape (http://www.inkscape.org/) -->

<svg
   version="1.1"
   id="svg2"
   width="210"
   height="70"
   viewBox="0 0 210.00001 70.000002"
   sodipodi:docname="light.svg"
   inkscape:version="1.2.1 (9c6d41e410, 2022-07-14)"
   inkscape:export-filename="logo-marai.svg"
   inkscape:export-xdpi="101.33334"
   inkscape:export-ydpi="101.33334"
   xmlns:inkscape="http://www.inkscape.org/namespaces/inkscape"
   xmlns:sodipodi="http://sodipodi.sourceforge.net/DTD/sodipodi-0.dtd"
   xmlns="http://www.w3.org/2000/svg"
   xmlns:svg="http://www.w3.org/2000/svg">
  <defs
     id="defs6" />
  <sodipodi:namedview
     id="namedview4"
     pagecolor="#ffffff"
     bordercolor="#666666"
     borderopacity="1.0"
     inkscape:showpageshadow="2"
     inkscape:pageopacity="0.0"
     inkscape:pagecheckerboard="0"
     inkscape:deskcolor="#d1d1d1"
     showgrid="false"
     inkscape:zoom="4"
     inkscape:cx="57.75"
     inkscape:cy="40.125"
     inkscape:window-width="1489"
     inkscape:window-height="750"
     inkscape:window-x="733"
     inkscape:window-y="277"
     inkscape:window-maximized="0"
     inkscape:current-layer="g3266" />
  <g
     id="g3266"
     inkscape:export-filename="../../oxybuild-react/public/images/logo/dark.png"
     inkscape:export-xdpi="27.986971"
     inkscape:export-ydpi="27.986971"
     transform="matrix(0.25913862,0,0,-0.25913862,-103.43108,88.179859)"
     inkscape:label="logotipo">
    <g
       aria-label="Amarilla"
       transform="matrix(0.92624335,0,0,-0.92624335,50.746259,22.967254)"
       id="text970-8"
       style="font-size:144px;line-height:0;font-family:'Phetsarath OT';-inkscape-font-specification:'Phetsarath OT';text-align:center;text-anchor:middle;fill:#333333;stroke-width:4.60397"
       inkscape:label="amarilla" />
    <g
       id="g1271"
       transform="matrix(0.97478439,0,0,0.97478439,140.58946,-79.42793)">
      <path
         d="m 551.6323,265.80461 v 73.92294 h 13.06222 l -0.0479,-5.17636 c 3.22223,2.14359 3.3668,2.25248 7.21841,4.4335 3.85161,2.22744 8.4688,2.41343 13.3877,2.41343 5.47578,0 9.95385,-1.13692 13.43421,-3.41076 3.52677,-2.27384 6.00942,-5.45258 7.44798,-9.5362 5.84702,8.63131 13.45739,12.94696 22.83117,12.94696 7.33199,0 12.97018,-2.04182 16.91459,-6.12543 3.9444,-4.03723 5.91661,-10.27869 5.91661,-18.72436 v -50.74372 h -12.45976 v 46.56727 c 0,5.01174 -0.41765,8.60811 -1.25293,10.78913 -0.78889,2.22744 -2.25064,2.62245 -4.38526,3.96819 -2.13462,1.34573 -4.64048,2.01861 -7.51759,2.01861 -5.19734,0 -9.51299,-1.74019 -12.94694,-5.22056 -3.43396,-3.43395 -5.15095,-7.56454 -5.15095,-15.17494 v -42.9477 h -12.52931 v 48.02904 c 0,5.56858 -1.0209,8.35342 -3.06272,11.13772 -2.04181,2.78429 -5.38296,4.17644 -10.02345,4.17644 -3.52677,0 -6.33444,-1.39198 -9.35076,-3.24816 -2.9699,-1.85619 -5.47228,-4.55689 -6.93732,-7.68018 -2.01091,-4.28693 -2.01864,-7.33254 -2.01864,-14.06124 v -38.35362 z"
         id="path5659"
         style="font-size:144px;line-height:0;font-family:'Phetsarath OT';-inkscape-font-specification:'Phetsarath OT';text-align:center;text-anchor:middle;fill:#f2f2f2;fill-opacity:1;stroke-width:4.55779"
         inkscape:label="m"
         sodipodi:nodetypes="cccccsccscsccscsscsccssscascc" />
      <path
         d="m 719.96022,274.92317 c -4.64048,-3.94441 -9.11855,-6.7287 -13.43419,-8.35287 -4.26926,-1.62416 -8.86335,-2.43626 -13.78226,-2.43626 -8.12084,0 -14.36229,1.97221 -18.72435,5.91663 -4.36204,3.99081 -6.54308,9.07214 -6.54308,15.24398 0,3.61959 0.81208,6.91433 2.43625,9.88424 1.67057,3.01631 3.8284,5.42936 6.47348,7.23916 2.69148,1.80979 5.70779,3.17874 9.04894,4.10683 2.45946,0.64967 6.17184,1.27612 11.13716,1.87938 10.11626,1.20653 17.56424,2.64509 22.34394,4.31567 0.0464,1.71697 0.0696,2.80748 0.0696,3.27153 0,5.10454 -1.18333,8.70091 -3.54999,10.78913 -3.20193,2.8307 -7.95842,4.24606 -14.26948,4.24606 -5.89341,0 -10.25547,-1.04413 -13.08616,-3.13234 -2.7843,-2.04183 -4.84932,-5.6846 -6.19506,-10.92836 l -12.25089,1.67059 c 1.11372,5.24375 2.94672,9.46658 5.49899,12.66853 2.55226,3.24833 6.24146,5.731 11.06756,7.44797 4.8261,1.76339 10.41789,2.64508 16.77535,2.64508 6.31105,0 11.43879,-0.74247 15.38321,-2.22744 3.9444,-1.48495 6.84472,-3.36434 8.7009,-5.63818 1.8562,-2.22743 3.15553,-5.05813 3.89802,-8.49209 0.41764,-2.13462 0.62646,-5.98622 0.62646,-11.55481 v -16.70574 c 0,-11.64761 0.26014,-19.19344 0.43768,-22.2991 l 0.003,-8.67615 h -12.10182 c 0,2.78236 -0.0846,9.11856 0.0362,9.11856 z m -1.04411,27.98212 c -4.54768,-1.85618 -11.36918,-3.43394 -20.46454,-4.73329 -5.15093,-0.74248 -8.79371,-1.57776 -10.92833,-2.50587 -2.13463,-0.92808 -3.78201,-2.29703 -4.94213,-4.10682 -1.16011,-1.76338 -1.74018,-3.73559 -1.74018,-5.91662 0,-3.34114 1.25294,-6.12544 3.7588,-8.35287 2.55226,-2.22744 6.26465,-3.34115 11.13716,-3.34115 4.8261,0 9.11855,1.04411 12.87734,3.13234 3.7588,2.13461 6.51989,5.03491 8.28326,8.7009 1.34575,2.83069 2.01862,7.00713 2.01862,12.5293 z"
         id="path5661"
         style="font-size:144px;line-height:0;font-family:'Phetsarath OT';-inkscape-font-specification:'Phetsarath OT';text-align:center;text-anchor:middle;fill:#f2f2f2;fill-opacity:1;stroke-width:4.55779"
         inkscape:label="a"
         sodipodi:nodetypes="scscscccccscscccccssccssscccsccscscsccsc" />
      <path
         d="m 752.20591,265.80461 v 73.92294 h 11.27639 l 0.49199,-8.41878 c 2.00445,1.0044 41.08894,16.47275 42.34184,12.64809 3.52961,-10.77458 -1.8332,-69.53326 -1.8332,-69.53326 -0.88957,14.25698 -2.99373,52.05521 -8.06987,53.82839 -8.12705,0.9033 -21.61269,-5.7133 -28.42996,-10.98364 -2.66878,-3.79763 -3.24788,-7.47193 -3.24788,-12.76209 v -38.70165 z"
         id="path5663"
         style="font-size:144px;line-height:0;font-family:'Phetsarath OT';-inkscape-font-specification:'Phetsarath OT';text-align:center;text-anchor:middle;fill:#f2f2f2;fill-opacity:1;stroke-width:4.55779"
         inkscape:label="r"
         sodipodi:nodetypes="ccccscccscc" />
      <path
         d="m 457.61862,243.35221 v 47.54896 l -18.27239,18.27239 -18.27298,-18.27239 V 234.21573 L 366.25492,220.511 v -11.56965 h 146.18203 v 48.11558 z"
         style="font-size:144px;line-height:0;font-family:'Phetsarath OT';-inkscape-font-specification:'Phetsarath OT';text-align:center;text-anchor:middle;fill:#ff5e13;fill-opacity:1;fill-rule:nonzero;stroke:none;stroke-width:2.66464"
         id="path32-8"
         inkscape:label="casa" />
      <path
         d="m 437.92404,396.53191 -94.62972,-94.63027 c -1.26692,-1.26636 -0.36983,-3.43271 1.42147,-3.43271 h 21.53898 v -77.94934 l 36.54594,27.4006 v 50.54874 l 36.54536,36.54537 36.54536,-36.54537 v -32.27576 l 36.54536,-9.18351 v 41.45927 h 21.53956 c 1.7913,0 2.6884,2.16635 1.42205,3.43271 l -94.63028,94.63027 c -0.7854,0.78539 -2.0587,0.78539 -2.84408,0"
         style="font-size:144px;line-height:0;font-family:'Phetsarath OT';-inkscape-font-specification:'Phetsarath OT';text-align:center;text-anchor:middle;fill:#0a369d;fill-opacity:1;fill-rule:nonzero;stroke:none;stroke-width:2.66464"
         id="path200-8"
         sodipodi:nodetypes="ccscccccccccsssc"
         inkscape:label="techo" />
      <path
         style="font-size:144px;line-height:0;font-family:'Phetsarath OT';-inkscape-font-specification:'Phetsarath OT';text-align:center;text-anchor:middle;fill:#ffffff;fill-opacity:1;fill-rule:evenodd;stroke:#000000;stroke-width:0.0817857;stroke-linejoin:bevel;stroke-dasharray:none;stroke-opacity:0.990461;paint-order:markers stroke fill"
         d="m 370.46714,222.82948 c 0.21866,0.33736 7.58707,5.9499 16.37419,12.47232 l 15.9766,11.85892 0.0313,25.36038 0.0312,25.3604 18.20407,18.19058 18.20406,18.19058 18.19058,-18.20406 18.19058,-18.20406 v -16.04812 -16.0481 l 17.37946,-4.33836 17.37947,-4.33835 -25.35357,-6.36815 c -13.94447,-3.50249 -25.81362,-6.37875 -26.37589,-6.39169 -0.79472,-0.0183 -1.02233,5.21449 -1.02233,23.50319 v 23.52674 l -9.21396,9.18782 -9.21396,9.18782 -9.18783,-9.21396 -9.18783,-9.21397 v -28.30576 -28.30577 l -24.93509,-6.2359 c -26.7495,-6.68965 -26.06472,-6.53849 -25.47099,-5.6225 z"
         id="path7654"
         inkscape:label="relleno" />
      <path
         d="m 870.61229,275.19489 c -4.64041,-3.94441 -9.11853,-6.7287 -13.43418,-8.35288 -4.26925,-1.62416 -8.86333,-2.43625 -13.78225,-2.43625 -8.12084,0 -14.36229,1.9722 -18.72436,5.91662 -4.36204,3.99081 -6.54307,9.07215 -6.54307,15.24399 0,3.61959 0.81209,6.91433 2.43625,9.88424 1.67057,3.01631 3.8284,5.42936 6.47348,7.23915 2.69149,1.80981 5.7078,3.17874 9.04894,4.10684 2.45947,0.64966 6.17185,1.27612 11.13716,1.87938 10.11627,1.20653 17.56422,2.6451 22.34394,4.31566 0.0463,1.71699 0.0695,2.8075 0.0695,3.27155 0,5.10453 -1.18331,8.7009 -3.55,10.78912 -3.2019,2.8307 -7.9584,4.24606 -14.26947,4.24606 -5.89341,0 -10.25545,-1.04412 -13.08615,-3.13235 -2.78431,-2.04182 -4.84933,-5.68459 -6.19506,-10.92834 l -12.25089,1.67058 c 1.11372,5.24375 2.94672,9.46658 5.49898,12.66852 2.55227,3.24835 6.24146,5.73101 11.06756,7.44797 4.82611,1.76339 10.41789,2.6451 16.77535,2.6451 6.31105,0 11.43883,-0.74249 15.38325,-2.22745 3.94441,-1.48494 6.84464,-3.36434 8.70089,-5.6382 1.85614,-2.22742 3.15551,-5.05811 3.898,-8.49207 0.41766,-2.13463 0.62644,-5.98623 0.62644,-11.55481 v -16.70574 c 0,-11.64762 0.26018,-19.19344 0.4377,-22.29911 v -8.67613 h -12.10215 c 0,2.78234 -0.0846,9.11855 0.0366,9.11855 z m -1.04409,27.98212 c -4.54769,-1.85618 -11.36919,-3.43394 -20.46453,-4.73328 -5.15094,-0.74248 -8.79371,-1.57777 -10.92834,-2.50587 -2.13462,-0.92809 -3.78201,-2.29704 -4.94212,-4.10682 -1.16013,-1.76339 -1.74018,-3.73561 -1.74018,-5.91663 0,-3.34114 1.25293,-6.12543 3.75879,-8.35286 2.55227,-2.22744 6.26466,-3.34116 11.13716,-3.34116 4.8261,0 9.11855,1.04412 12.87735,3.13234 3.7588,2.13462 6.51992,5.03491 8.28326,8.70089 1.34577,2.83069 2.01861,7.00714 2.01861,12.52931 z"
         id="path1238"
         style="font-size:144px;line-height:0;font-family:'Phetsarath OT';-inkscape-font-specification:'Phetsarath OT';text-align:center;text-anchor:middle;fill:#f2f2f2;fill-opacity:1;stroke-width:4.55779"
         inkscape:label="a"
         sodipodi:nodetypes="scscscccccscscccccssccssscccsccscscsccsc" />
      <g
         aria-label="construcciones"
         transform="matrix(0.80394084,0,0,-0.80394084,95.007444,47.189639)"
         id="text910-3"
         style="font-size:46.3631px;line-height:1.25;font-family:'MADE Outer Sans';-inkscape-font-specification:'MADE Outer Sans';text-align:center;text-anchor:middle;display:inline;fill:#ff5e13;fill-opacity:1;stroke-width:1.15768;stroke-dasharray:none"
         inkscape:label="construcciones">
        <path
           d="m 590.67482,-236.15793 v 5.30119 q -2.40403,-1.3253 -4.83887,-1.97253 -2.40403,-0.67806 -4.8697,-0.67806 -5.51694,0 -8.5682,3.51358 -3.05127,3.48276 -3.05127,9.80103 0,6.31827 3.05127,9.83185 3.05126,3.48276 8.5682,3.48276 2.46567,0 4.8697,-0.64724 2.43484,-0.67805 4.83887,-2.00336 v 5.23955 q -2.3732,1.10955 -4.93134,1.66433 -2.52731,0.55478 -5.39365,0.55478 -7.79768,0 -12.38999,-4.90052 -4.5923,-4.90052 -4.5923,-13.22215 0,-8.44492 4.62312,-13.28379 4.65395,-4.83887 12.72902,-4.83887 2.61977,0 5.11627,0.55476 2.49648,0.52396 4.83887,1.60269 z"
           id="path482"
           inkscape:label="c"
           style="fill:#ff5e13;fill-opacity:1;stroke-width:1.15768;stroke-dasharray:none" />
        <path
           d="m 613.91375,-233.50733 q -4.56149,0 -7.21209,3.57521 -2.65059,3.5444 -2.65059,9.7394 0,6.19499 2.61977,9.77022 2.6506,3.54439 7.24291,3.54439 4.53067,0 7.18125,-3.57522 2.6506,-3.57522 2.6506,-9.73939 0,-6.13335 -2.6506,-9.70858 -2.65058,-3.60603 -7.18125,-3.60603 z m 0,-4.80805 q 7.397,0 11.61946,4.80805 4.22246,4.80805 4.22246,13.31461 0,8.47574 -4.22246,13.31461 -4.22246,4.80806 -11.61946,4.80806 -7.42784,0 -11.6503,-4.80806 -4.19162,-4.83887 -4.19162,-13.31461 0,-8.50656 4.19162,-13.31461 4.22246,-4.80805 11.6503,-4.80805 z"
           id="path484"
           inkscape:label="o"
           style="fill:#ff5e13;fill-opacity:1;stroke-width:1.15768;stroke-dasharray:none" />
        <path
           d="m 667.85025,-223.79877 v 20.83491 h -5.67103 v -20.64998 q 0,-4.90052 -1.9109,-7.33536 -1.91089,-2.43485 -5.73268,-2.43485 -4.59231,0 -7.24291,2.92798 -2.65059,2.92799 -2.65059,7.98261 v 19.5096 h -5.70186 v -34.51936 h 5.70186 v 5.36283 q 2.03418,-3.11291 4.77724,-4.65395 2.77387,-1.54104 6.37991,-1.54104 5.94843,0 8.9997,3.69849 3.05126,3.66769 3.05126,10.81812 z"
           id="path486"
           inkscape:label="n"
           style="fill:#ff5e13;fill-opacity:1;stroke-width:1.15768;stroke-dasharray:none" />
        <path
           d="m 701.1676,-236.46613 v 5.36282 q -2.40403,-1.23283 -4.99298,-1.84924 -2.58896,-0.61643 -5.36284,-0.61643 -4.22244,0 -6.34909,1.29448 -2.09581,1.29449 -2.09581,3.88344 0,1.97252 1.51021,3.1129 1.51022,1.10954 6.07171,2.12664 l 1.94172,0.43149 q 6.04088,1.29448 8.5682,3.66768 2.55812,2.34239 2.55812,6.56484 0,4.80806 -3.82178,7.61276 -3.79096,2.8047 -10.44827,2.8047 -2.77388,0 -5.79433,-0.55478 -2.98961,-0.52395 -6.31826,-1.60269 v -5.85595 q 3.14373,1.63349 6.19498,2.46565 3.05128,0.80135 6.04089,0.80135 4.00671,0 6.16418,-1.35611 2.15746,-1.38694 2.15746,-3.88343 0,-2.31157 -1.57186,-3.54441 -1.54104,-1.23283 -6.81141,-2.3732 l -1.97254,-0.46231 q -5.27037,-1.10955 -7.61275,-3.3903 -2.34239,-2.31156 -2.34239,-6.31828 0,-4.86969 3.45193,-7.52029 3.45195,-2.65058 9.80104,-2.65058 3.14372,0 5.9176,0.46231 2.77388,0.46231 5.11627,1.38694 z"
           id="path488"
           inkscape:label="s"
           style="fill:#ff5e13;fill-opacity:1;stroke-width:1.15768;stroke-dasharray:none" />
        <path
           d="m 717.65675,-247.28426 v 9.80104 h 11.68111 v 4.40739 h -11.68111 v 18.73907 q 0,4.22246 1.14038,5.42448 1.17119,1.20201 4.71558,1.20201 h 5.82515 v 4.74641 h -5.82515 q -6.56484,0 -9.06133,-2.43484 -2.49648,-2.46567 -2.49648,-8.93806 v -18.73907 h -4.16082 v -4.40739 h 4.16082 v -9.80104 z"
           id="path490"
           inkscape:label="t"
           style="fill:#ff5e13;fill-opacity:1;stroke-width:1.15768;stroke-dasharray:none" />
        <path
           d="m 756.79924,-232.18204 q -0.95544,-0.55476 -2.09582,-0.80134 -1.10954,-0.27738 -2.46567,-0.27738 -4.80805,0 -7.397,3.14373 -2.55813,3.1129 -2.55813,8.96886 v 18.18431 h -5.70186 v -34.51936 h 5.70186 v 5.36283 q 1.7876,-3.14373 4.65395,-4.65395 2.86633,-1.54104 6.96551,-1.54104 0.5856,0 1.29447,0.0924 0.70888,0.0617 1.57187,0.21575 z"
           id="path492"
           inkscape:label="r"
           style="fill:#ff5e13;fill-opacity:1;stroke-width:1.15768;stroke-dasharray:none" />
        <path
           d="m 762.16209,-216.58668 v -20.89654 h 5.67103 v 20.68079 q 0,4.90052 1.9109,7.36619 1.91089,2.43485 5.73268,2.43485 4.59231,0 7.24291,-2.92798 2.6814,-2.92798 2.6814,-7.9826 v -19.57125 h 5.67105 v 34.51936 h -5.67105 v -5.30119 q -2.06499,3.14373 -4.80805,4.68477 -2.71224,1.51023 -6.31828,1.51023 -5.94842,0 -9.03051,-3.69851 -3.08208,-3.6985 -3.08208,-10.81812 z m 14.27006,-21.7287 z"
           id="path494"
           inkscape:label="u"
           style="fill:#ff5e13;fill-opacity:1;stroke-width:1.15768;stroke-dasharray:none" />
        <path
           d="m 827.59476,-236.15793 v 5.30119 q -2.40403,-1.3253 -4.83888,-1.97253 -2.40402,-0.67806 -4.86969,-0.67806 -5.51694,0 -8.5682,3.51358 -3.05127,3.48276 -3.05127,9.80103 0,6.31827 3.05127,9.83185 3.05126,3.48276 8.5682,3.48276 2.46567,0 4.86969,-0.64724 2.43485,-0.67805 4.83888,-2.00336 v 5.23955 q -2.3732,1.10955 -4.93134,1.66433 -2.52731,0.55478 -5.39365,0.55478 -7.79768,0 -12.38999,-4.90052 -4.5923,-4.90052 -4.5923,-13.22215 0,-8.44492 4.62312,-13.28379 4.65396,-4.83887 12.72902,-4.83887 2.61977,0 5.11626,0.55476 2.4965,0.52396 4.83888,1.60269 z"
           id="path496"
           inkscape:label="c"
           style="fill:#ff5e13;fill-opacity:1;stroke-width:1.15768;stroke-dasharray:none" />
        <path
           d="m 862.29905,-236.15793 v 5.30119 q -2.40403,-1.3253 -4.83889,-1.97253 -2.40402,-0.67806 -4.86969,-0.67806 -5.51693,0 -8.56819,3.51358 -3.05127,3.48276 -3.05127,9.80103 0,6.31827 3.05127,9.83185 3.05126,3.48276 8.56819,3.48276 2.46567,0 4.86969,-0.64724 2.43486,-0.67805 4.83889,-2.00336 v 5.23955 q -2.37322,1.10955 -4.93135,1.66433 -2.5273,0.55478 -5.39364,0.55478 -7.79768,0 -12.38999,-4.90052 -4.59231,-4.90052 -4.59231,-13.22215 0,-8.44492 4.62313,-13.28379 4.65395,-4.83887 12.72902,-4.83887 2.61977,0 5.11625,0.55476 2.49649,0.52396 4.83889,1.60269 z"
           id="path498"
           inkscape:label="c"
           style="fill:#ff5e13;fill-opacity:1;stroke-width:1.15768;stroke-dasharray:none" />
        <path
           d="m 872.16172,-237.48322 h 5.67103 v 34.51936 h -5.67103 z m 0,-13.4379 h 5.67103 v 7.18127 h -5.67103 z"
           id="path500"
           inkscape:label="i"
           style="fill:#ff5e13;fill-opacity:1;stroke-width:1.15768;stroke-dasharray:none" />
        <path
           d="m 903.07506,-233.50733 q -4.56149,0 -7.21209,3.57521 -2.6506,3.5444 -2.6506,9.7394 0,6.19499 2.61978,9.77022 2.65059,3.54439 7.24291,3.54439 4.53066,0 7.18125,-3.57522 2.65059,-3.57522 2.65059,-9.73939 0,-6.13335 -2.65059,-9.70858 -2.65059,-3.60603 -7.18125,-3.60603 z m 0,-4.80805 q 7.397,0 11.61946,4.80805 4.22246,4.80805 4.22246,13.31461 0,8.47574 -4.22246,13.31461 -4.22246,4.80806 -11.61946,4.80806 -7.42784,0 -11.6503,-4.80806 -4.19164,-4.83887 -4.19164,-13.31461 0,-8.50656 4.19164,-13.31461 4.22246,-4.80805 11.6503,-4.80805 z"
           id="path502"
           inkscape:label="o"
           style="fill:#ff5e13;fill-opacity:1;stroke-width:1.15768;stroke-dasharray:none" />
        <path
           d="m 957.01154,-223.79877 v 20.83491 h -5.67105 v -20.64998 q 0,-4.90052 -1.91089,-7.33536 -1.91089,-2.43485 -5.73268,-2.43485 -4.5923,0 -7.24289,2.92798 -2.6506,2.92799 -2.6506,7.98261 v 19.5096 h -5.70185 v -34.51936 h 5.70185 v 5.36283 q 2.03417,-3.11291 4.77724,-4.65395 2.77388,-1.54104 6.37991,-1.54104 5.94843,0 8.99969,3.69849 3.05127,3.66769 3.05127,10.81812 z"
           id="path504"
           inkscape:label="n"
           style="fill:#ff5e13;fill-opacity:1;stroke-width:1.15768;stroke-dasharray:none" />
        <path
           d="m 997.84918,-221.6413 v 2.77388 h -26.07444 q 0.36985,5.85595 3.51358,8.93805 3.17454,3.05126 8.81476,3.05126 3.26701,0 6.31828,-0.80134 3.08208,-0.80135 6.10253,-2.40402 v 5.36282 q -3.05127,1.29447 -6.25663,1.97254 -3.20538,0.67806 -6.50321,0.67806 -8.25999,0 -13.09886,-4.80806 -4.80805,-4.80805 -4.80805,-13.0064 0,-8.47574 4.56149,-13.4379 4.5923,-4.99297 12.35916,-4.99297 6.96551,0 11.00304,4.49984 4.06835,4.46902 4.06835,12.17424 z m -5.67103,-1.66433 q -0.0617,-4.65395 -2.61977,-7.42783 -2.52732,-2.77387 -6.71896,-2.77387 -4.74641,0 -7.61274,2.68142 -2.83553,2.6814 -3.26701,7.5511 z"
           id="path506"
           inkscape:label="e"
           style="fill:#ff5e13;fill-opacity:1;stroke-width:1.15768;stroke-dasharray:none" />
        <path
           d="m 1029.1632,-236.46613 v 5.36282 q -2.4041,-1.23283 -4.993,-1.84924 -2.589,-0.61643 -5.3628,-0.61643 -4.2225,0 -6.3491,1.29448 -2.0959,1.29449 -2.0959,3.88344 0,1.97252 1.5103,3.1129 1.5102,1.10954 6.0717,2.12664 l 1.9417,0.43149 q 6.0409,1.29448 8.5682,3.66768 2.5581,2.34239 2.5581,6.56484 0,4.80806 -3.8218,7.61276 -3.7909,2.8047 -10.4482,2.8047 -2.7739,0 -5.7943,-0.55478 -2.9897,-0.52395 -6.3183,-1.60269 v -5.85595 q 3.1437,1.63349 6.195,2.46565 3.0512,0.80135 6.0409,0.80135 4.0067,0 6.1641,-1.35611 2.1575,-1.38694 2.1575,-3.88343 0,-2.31157 -1.5719,-3.54441 -1.541,-1.23283 -6.8114,-2.3732 l -1.9725,-0.46231 q -5.2704,-1.10955 -7.6128,-3.3903 -2.3424,-2.31156 -2.3424,-6.31828 0,-4.86969 3.452,-7.52029 3.4519,-2.65058 9.801,-2.65058 3.1437,0 5.9176,0.46231 2.7739,0.46231 5.1163,1.38694 z"
           id="path508"
           inkscape:label="s"
           style="fill:#ff5e13;fill-opacity:1;stroke-width:1.15768;stroke-dasharray:none" />
      </g>
      <path
         d="m 902.51916,352.56759 v 14.35838 h 12.48554 v -14.35838 z m 0,-87.32937 -0.0224,73.6522 12.50794,0.0124 v -73.66465 z"
         id="path5665"
         sodipodi:nodetypes="cccccccccc"
         style="font-size:144px;line-height:0;font-family:'Phetsarath OT';-inkscape-font-specification:'Phetsarath OT';text-align:center;text-anchor:middle;fill:#f2f2f2;fill-opacity:1;stroke-width:4.54186" />
    </g>
    <text
       xml:space="preserve"
       style="font-size:1929.47px;font-family:'Streetbomber personal use';-inkscape-font-specification:'Streetbomber personal use';text-align:center;text-anchor:middle;opacity:0.503058;fill:#000000;fill-rule:evenodd;stroke:#000000;stroke-width:9.64067;stroke-linejoin:bevel;paint-order:markers stroke fill"
       x="787.07013"
       y="-209.27287"
       id="text4865"
       transform="scale(1,-1)"><tspan
         sodipodi:role="line"
         id="tspan4863"
         style="stroke-width:9.64066"
         x="787.07013"
         y="-209.27287"></tspan></text>
  </g>
</svg>
