<?xml version="1.0" encoding="UTF-8" standalone="no"?>
<!-- Created with Inkscape (http://www.inkscape.org/) -->

<svg
   version="1.1"
   id="svg2"
   width="220.00002"
   height="70"
   viewBox="0 0 220.00002 70.000002"
   sodipodi:docname="light.svg"
   inkscape:version="1.2.1 (9c6d41e410, 2022-07-14)"
   inkscape:export-filename="logo-marai-main.svg"
   inkscape:export-xdpi="101.33334"
   inkscape:export-ydpi="101.33334"
   xmlns:inkscape="http://www.inkscape.org/namespaces/inkscape"
   xmlns:sodipodi="http://sodipodi.sourceforge.net/DTD/sodipodi-0.dtd"
   xmlns="http://www.w3.org/2000/svg"
   xmlns:svg="http://www.w3.org/2000/svg">
  <defs
     id="defs6" />
  <sodipodi:namedview
     id="namedview4"
     pagecolor="#ffffff"
     bordercolor="#666666"
     borderopacity="1.0"
     inkscape:showpageshadow="2"
     inkscape:pageopacity="0.0"
     inkscape:pagecheckerboard="0"
     inkscape:deskcolor="#d1d1d1"
     showgrid="false"
     inkscape:zoom="4"
     inkscape:cx="57.75"
     inkscape:cy="40.125"
     inkscape:window-width="1489"
     inkscape:window-height="750"
     inkscape:window-x="733"
     inkscape:window-y="277"
     inkscape:window-maximized="0"
     inkscape:current-layer="g3266" />
  <g
     id="g3266"
     inkscape:export-filename="../../oxybuild-react/public/images/logo/dark.png"
     inkscape:export-xdpi="27.986971"
     inkscape:export-ydpi="27.986971"
     transform="matrix(0.25913862,0,0,-0.25913862,-116.66376,82.285643)"
     inkscape:label="logotipo">
    <path
       d="m 463.60604,211.8877 v 60.40504 l -23.2128,23.21279 -23.21355,-23.21279 v -72.0118 l -69.63987,-17.41016 v -14.69779 h 185.70609 v 61.12485 z"
       style="font-size:144px;line-height:0;font-family:'Phetsarath OT';-inkscape-font-specification:'Phetsarath OT';text-align:center;text-anchor:middle;fill:#ff5e13;fill-opacity:1;fill-rule:nonzero;stroke:none;stroke-width:3.3851"
       id="path32-8"
       inkscape:label="casa"
       transform="matrix(0.97478438,0,0,0.97478438,140.58946,-79.427941)" />
    <path
       d="M 438.58652,406.48346 318.37123,286.26747 c -1.60946,-1.60875 -0.46983,-4.36083 1.8058,-4.36083 h 27.3626 V 182.8817 l 46.42706,34.80905 v 64.21589 l 46.42634,46.42635 46.42633,-46.42635 V 240.9043 l 46.42634,-11.66651 v 52.66885 h 27.36333 c 2.27562,0 3.41528,2.75208 1.80654,4.36083 L 442.19958,406.48346 c -0.99776,0.99774 -2.61534,0.99774 -3.61306,0"
       style="font-size:144px;line-height:0;font-family:'Phetsarath OT';-inkscape-font-specification:'Phetsarath OT';text-align:center;text-anchor:middle;fill:#0a369d;fill-opacity:1;fill-rule:nonzero;stroke:none;stroke-width:3.3851"
       id="path200-8"
       sodipodi:nodetypes="ccscccccccccsssc"
       inkscape:label="techo"
       transform="matrix(0.97478438,0,0,0.97478438,140.58946,-79.427941)" />
    <path
       style="font-size:144px;line-height:0;font-family:'Phetsarath OT';-inkscape-font-specification:'Phetsarath OT';text-align:center;text-anchor:middle;fill:#ffffff;fill-opacity:1;fill-rule:evenodd;stroke:#000000;stroke-width:0.103899;stroke-linejoin:bevel;stroke-dasharray:none;stroke-opacity:0.990461;paint-order:markers stroke fill"
       d="m 352.89092,185.81612 c 0.27778,0.42858 9.63843,7.55862 20.80137,15.84454 l 20.29628,15.06528 0.0398,32.2172 0.0397,32.21725 23.126,23.10886 23.126,23.10887 23.10887,-23.12599 23.10888,-23.12599 V 260.739 240.35188 l 22.07844,-5.51135 22.07844,-5.51133 -32.20855,-8.08995 c -17.71472,-4.44948 -32.79299,-8.10339 -33.5073,-8.11984 -1.00959,-0.0233 -1.29873,6.62436 -1.29873,29.85788 v 29.8878 l -11.70519,11.67197 -11.7052,11.67199 -11.67199,-11.7052 -11.67199,-11.70519 v -35.95894 -35.95897 l -31.67693,-7.92194 c -33.98192,-8.49836 -33.112,-8.30633 -32.35773,-7.14269 z"
       id="path7654"
       inkscape:label="relleno"
       transform="matrix(0.97478438,0,0,0.97478438,140.58946,-79.427941)" />
    <g
       id="g1271"
       transform="matrix(0.97478439,0,0,0.97478439,139.34028,-52.533247)"
       inkscape:label="logotipo">
      <path
         d="m 591.68848,211.46762 v 93.90991 h 16.59393 l -0.0608,-6.57593 c 4.09344,2.72316 4.27711,2.8615 9.17009,5.63221 4.893,2.82968 10.75855,3.06596 17.00741,3.06596 6.9563,0 12.64512,-1.4443 17.06649,-4.33294 4.48032,-2.88863 7.63422,-6.92682 9.46174,-12.11456 7.42791,10.965 17.09594,16.4475 29.00416,16.4475 9.31438,0 16.47699,-2.59386 21.48789,-7.78159 5.01085,-5.1288 7.5163,-13.05781 7.5163,-23.78697 v -64.46358 h -15.82856 v 59.15793 c 0,6.36678 -0.53058,10.93553 -1.59168,13.70625 -1.0022,2.82968 -2.85916,3.33148 -5.57094,5.04109 -2.71176,1.70958 -5.89514,2.56437 -9.55016,2.56437 -6.60257,0 -12.08507,-2.21069 -16.44747,-6.63206 -4.36243,-4.36241 -6.54365,-9.60981 -6.54365,-19.27787 V 211.46762 H 647.4863 v 61.01493 c 0,7.07418 -1.29692,10.61198 -3.8908,14.14908 -2.59386,3.5371 -6.83838,5.30564 -12.73356,5.30564 -4.48031,0 -8.0471,-1.76832 -11.87897,-4.12637 -3.77289,-2.35806 -6.95185,-5.78896 -8.813,-9.75672 -2.55461,-5.446 -2.56443,-9.31508 -2.56443,-17.86305 v -48.72351 z"
         id="path5659"
         style="font-size:144px;line-height:0;font-family:'Phetsarath OT';-inkscape-font-specification:'Phetsarath OT';text-align:center;text-anchor:middle;fill:#f2f2f2;fill-opacity:1;stroke-width:5.7901"
         inkscape:label="m"
         sodipodi:nodetypes="cccccsccscsccscsscsccssscascc" />
      <path
         d="m 795.48487,225.17387 c -5.89515,-5.01088 -11.58397,-8.54798 -17.06647,-10.61128 -5.42357,-2.0633 -11.25978,-3.09497 -17.50864,-3.09497 -10.31651,0 -18.2455,2.50545 -23.78697,7.51635 -5.54142,5.06982 -8.31215,11.52503 -8.31215,19.36558 0,4.59823 1.03164,8.7838 3.09494,12.5567 2.12225,3.83184 4.86351,6.89732 8.22375,9.19645 3.4192,2.29911 7.25105,4.03818 11.49555,5.21721 3.12445,0.82532 7.84056,1.62115 14.14838,2.38752 12.85146,1.53275 22.31319,3.36025 28.3852,5.48252 0.0589,2.18119 0.0883,3.56656 0.0883,4.15607 0,6.48469 -1.50327,11.05344 -4.50981,13.70626 -4.06766,3.59605 -10.1102,5.39408 -18.12762,5.39408 -7.48684,0 -13.02829,-1.32643 -16.62433,-3.97925 -3.5371,-2.59388 -6.16045,-7.22157 -7.87005,-13.88312 l -15.56323,2.12228 c 1.41483,6.66152 3.74344,12.02611 6.98578,16.09379 3.24234,4.1266 7.92899,7.28052 14.05996,9.46172 6.13096,2.24016 13.23463,3.36024 21.31099,3.36024 8.01742,0 14.53157,-0.9432 19.54246,-2.82968 5.01087,-1.88645 8.69536,-4.27398 11.05341,-7.16261 2.35807,-2.82967 4.00871,-6.42572 4.95195,-10.78815 0.53057,-2.71175 0.79584,-7.60473 0.79584,-14.67893 v -21.22258 c 0,-14.79682 0.33048,-24.38287 0.55601,-28.32823 l 0.004,-11.02197 h -15.37386 c 0,3.53465 -0.10748,11.584 0.046,11.584 z m -1.32641,35.5478 c -5.77726,-2.35804 -14.44313,-4.36239 -25.99764,-6.01305 -6.54363,-0.94322 -11.17132,-2.00435 -13.88309,-3.1834 -2.71178,-1.17901 -4.80458,-2.91809 -6.27837,-5.2172 -1.47377,-2.24016 -2.21068,-4.74561 -2.21068,-7.51633 0,-4.24452 1.5917,-7.78161 4.77509,-10.61128 3.24233,-2.82969 7.95846,-4.24452 14.14838,-4.24452 6.13095,0 11.58398,1.32641 16.35906,3.97925 4.77509,2.71175 8.28271,6.39622 10.52285,11.05341 1.7096,3.59604 2.5644,8.90168 2.5644,15.91692 z"
         id="path5661"
         style="font-size:144px;line-height:0;font-family:'Phetsarath OT';-inkscape-font-specification:'Phetsarath OT';text-align:center;text-anchor:middle;fill:#f2f2f2;fill-opacity:1;stroke-width:5.7901"
         inkscape:label="a"
         sodipodi:nodetypes="scscscccccscscccccssccssscccsccscscsccsc" />
      <path
         d="m 825.99758,211.46762 v 97.39372 h 14.32526 l 0.62501,-10.69503 59.61048,7.57989 -1.18167,-82.65297 -10.95579,65.22809 -42.38034,-5.90131 c 0,0 -4.12601,-15.06626 -4.12601,-21.78675 v -49.16564 z"
         id="path5663"
         style="font-size:144px;line-height:0;font-family:'Phetsarath OT';-inkscape-font-specification:'Phetsarath OT';text-align:center;text-anchor:middle;fill:#f2f2f2;fill-opacity:1;stroke-width:5.7901"
         inkscape:label="r"
         sodipodi:nodetypes="ccccccccscc" />
      <path
         d="m 976.41813,225.17386 c -5.89503,-5.01087 -11.58393,-8.54798 -17.06643,-10.61129 -5.42355,-2.0633 -11.25976,-3.09495 -17.50863,-3.09495 -10.31652,0 -18.2455,2.50543 -23.78697,7.51633 -5.54143,5.06983 -8.31215,11.52504 -8.31215,19.36559 0,4.59824 1.03166,8.7838 3.09494,12.5567 2.12225,3.83185 4.86351,6.89733 8.22375,9.19644 3.4192,2.29913 7.25105,4.03819 11.49555,5.21722 3.12446,0.82532 7.84058,1.62116 14.14837,2.38753 12.85148,1.53274 22.31317,3.36027 28.38522,5.4825 0.0591,2.18123 0.0887,3.5666 0.0887,4.1561 0,6.48468 -1.50323,11.05342 -4.50984,13.70624 -4.06761,3.59605 -10.11015,5.39409 -18.12758,5.39409 -7.48685,0 -13.02828,-1.32642 -16.62433,-3.97926 -3.53712,-2.59387 -6.16047,-7.22156 -7.87005,-13.88309 l -15.56323,2.12226 c 1.41484,6.66152 3.74344,12.02611 6.98578,16.09377 3.24233,4.12663 7.92899,7.28054 14.05994,9.46172 6.13098,2.24018 13.23463,3.36027 21.31101,3.36027 8.01739,0 14.5316,-0.94323 19.54253,-2.82969 5.01088,-1.88643 8.6952,-4.27398 11.05336,-7.16263 2.35803,-2.82967 4.00863,-6.4257 4.95203,-10.78812 0.5304,-2.71178 0.7957,-7.60476 0.7957,-14.67895 v -21.22256 c 0,-14.79685 0.3305,-24.38289 0.5561,-28.32825 v -11.02195 h -15.37477 c 0,3.53462 -0.10752,11.58398 0.0462,11.58398 z m -1.32635,35.54781 c -5.77728,-2.35804 -14.44315,-4.36238 -25.99765,-6.01305 -6.54362,-0.94322 -11.17132,-2.00436 -13.8831,-3.18339 -2.71177,-1.17903 -4.80457,-2.9181 -6.27835,-5.2172 -1.4738,-2.24018 -2.21068,-4.74564 -2.21068,-7.51634 0,-4.2445 1.59169,-7.7816 4.77508,-10.61127 3.24234,-2.82969 7.95846,-4.24453 14.14838,-4.24453 6.13096,0 11.58397,1.32643 16.35906,3.97924 4.77509,2.71177 8.28275,6.39623 10.52285,11.0534 1.70966,3.59605 2.56441,8.9017 2.56441,15.91693 z"
         id="path1238"
         style="font-size:144px;line-height:0;font-family:'Phetsarath OT';-inkscape-font-specification:'Phetsarath OT';text-align:center;text-anchor:middle;fill:#f2f2f2;fill-opacity:1;stroke-width:5.7901"
         inkscape:label="a"
         sodipodi:nodetypes="scscscccccscscccccssccssscccsccscscsccsc" />
      <path
         d="m 1010.2727,315.5112 v 18.24053 h 15.8614 V 315.5112 Z m 0,-104.0435 -0.028,93.56596 15.8898,0.0157 V 211.4676 Z"
         id="path5665"
         sodipodi:nodetypes="cccccccccc"
         style="font-size:144px;line-height:0;font-family:'Phetsarath OT';-inkscape-font-specification:'Phetsarath OT';text-align:center;text-anchor:middle;fill:#f2f2f2;fill-opacity:1;stroke-width:5.76986"
         inkscape:label="i" />
      <g
         aria-label="construcciones"
         transform="matrix(1.0213068,0,0,-1.0213068,-2.7194941,-65.806653)"
         id="text910-3"
         style="font-size:46.3631px;line-height:1.25;font-family:'MADE Outer Sans';-inkscape-font-specification:'MADE Outer Sans';text-align:center;text-anchor:middle;display:inline;fill:#ff5e13;fill-opacity:1;stroke-width:1.15768;stroke-dasharray:none"
         inkscape:label="construcciones">
        <path
           d="m 590.67482,-236.15793 v 5.30119 q -2.40403,-1.3253 -4.83887,-1.97253 -2.40403,-0.67806 -4.8697,-0.67806 -5.51694,0 -8.5682,3.51358 -3.05127,3.48276 -3.05127,9.80103 0,6.31827 3.05127,9.83185 3.05126,3.48276 8.5682,3.48276 2.46567,0 4.8697,-0.64724 2.43484,-0.67805 4.83887,-2.00336 v 5.23955 q -2.3732,1.10955 -4.93134,1.66433 -2.52731,0.55478 -5.39365,0.55478 -7.79768,0 -12.38999,-4.90052 -4.5923,-4.90052 -4.5923,-13.22215 0,-8.44492 4.62312,-13.28379 4.65395,-4.83887 12.72902,-4.83887 2.61977,0 5.11627,0.55476 2.49648,0.52396 4.83887,1.60269 z"
           id="path482"
           inkscape:label="c"
           style="fill:#ff5e13;fill-opacity:1;stroke-width:1.15768;stroke-dasharray:none" />
        <path
           d="m 613.91375,-233.50733 q -4.56149,0 -7.21209,3.57521 -2.65059,3.5444 -2.65059,9.7394 0,6.19499 2.61977,9.77022 2.6506,3.54439 7.24291,3.54439 4.53067,0 7.18125,-3.57522 2.6506,-3.57522 2.6506,-9.73939 0,-6.13335 -2.6506,-9.70858 -2.65058,-3.60603 -7.18125,-3.60603 z m 0,-4.80805 q 7.397,0 11.61946,4.80805 4.22246,4.80805 4.22246,13.31461 0,8.47574 -4.22246,13.31461 -4.22246,4.80806 -11.61946,4.80806 -7.42784,0 -11.6503,-4.80806 -4.19162,-4.83887 -4.19162,-13.31461 0,-8.50656 4.19162,-13.31461 4.22246,-4.80805 11.6503,-4.80805 z"
           id="path484"
           inkscape:label="o"
           style="fill:#ff5e13;fill-opacity:1;stroke-width:1.15768;stroke-dasharray:none" />
        <path
           d="m 667.85025,-223.79877 v 20.83491 h -5.67103 v -20.64998 q 0,-4.90052 -1.9109,-7.33536 -1.91089,-2.43485 -5.73268,-2.43485 -4.59231,0 -7.24291,2.92798 -2.65059,2.92799 -2.65059,7.98261 v 19.5096 h -5.70186 v -34.51936 h 5.70186 v 5.36283 q 2.03418,-3.11291 4.77724,-4.65395 2.77387,-1.54104 6.37991,-1.54104 5.94843,0 8.9997,3.69849 3.05126,3.66769 3.05126,10.81812 z"
           id="path486"
           inkscape:label="n"
           style="fill:#ff5e13;fill-opacity:1;stroke-width:1.15768;stroke-dasharray:none" />
        <path
           d="m 701.1676,-236.46613 v 5.36282 q -2.40403,-1.23283 -4.99298,-1.84924 -2.58896,-0.61643 -5.36284,-0.61643 -4.22244,0 -6.34909,1.29448 -2.09581,1.29449 -2.09581,3.88344 0,1.97252 1.51021,3.1129 1.51022,1.10954 6.07171,2.12664 l 1.94172,0.43149 q 6.04088,1.29448 8.5682,3.66768 2.55812,2.34239 2.55812,6.56484 0,4.80806 -3.82178,7.61276 -3.79096,2.8047 -10.44827,2.8047 -2.77388,0 -5.79433,-0.55478 -2.98961,-0.52395 -6.31826,-1.60269 v -5.85595 q 3.14373,1.63349 6.19498,2.46565 3.05128,0.80135 6.04089,0.80135 4.00671,0 6.16418,-1.35611 2.15746,-1.38694 2.15746,-3.88343 0,-2.31157 -1.57186,-3.54441 -1.54104,-1.23283 -6.81141,-2.3732 l -1.97254,-0.46231 q -5.27037,-1.10955 -7.61275,-3.3903 -2.34239,-2.31156 -2.34239,-6.31828 0,-4.86969 3.45193,-7.52029 3.45195,-2.65058 9.80104,-2.65058 3.14372,0 5.9176,0.46231 2.77388,0.46231 5.11627,1.38694 z"
           id="path488"
           inkscape:label="s"
           style="fill:#ff5e13;fill-opacity:1;stroke-width:1.15768;stroke-dasharray:none" />
        <path
           d="m 717.65675,-247.28426 v 9.80104 h 11.68111 v 4.40739 h -11.68111 v 18.73907 q 0,4.22246 1.14038,5.42448 1.17119,1.20201 4.71558,1.20201 h 5.82515 v 4.74641 h -5.82515 q -6.56484,0 -9.06133,-2.43484 -2.49648,-2.46567 -2.49648,-8.93806 v -18.73907 h -4.16082 v -4.40739 h 4.16082 v -9.80104 z"
           id="path490"
           inkscape:label="t"
           style="fill:#ff5e13;fill-opacity:1;stroke-width:1.15768;stroke-dasharray:none" />
        <path
           d="m 756.79924,-232.18204 q -0.95544,-0.55476 -2.09582,-0.80134 -1.10954,-0.27738 -2.46567,-0.27738 -4.80805,0 -7.397,3.14373 -2.55813,3.1129 -2.55813,8.96886 v 18.18431 h -5.70186 v -34.51936 h 5.70186 v 5.36283 q 1.7876,-3.14373 4.65395,-4.65395 2.86633,-1.54104 6.96551,-1.54104 0.5856,0 1.29447,0.0924 0.70888,0.0617 1.57187,0.21575 z"
           id="path492"
           inkscape:label="r"
           style="fill:#ff5e13;fill-opacity:1;stroke-width:1.15768;stroke-dasharray:none" />
        <path
           d="m 762.16209,-216.58668 v -20.89654 h 5.67103 v 20.68079 q 0,4.90052 1.9109,7.36619 1.91089,2.43485 5.73268,2.43485 4.59231,0 7.24291,-2.92798 2.6814,-2.92798 2.6814,-7.9826 v -19.57125 h 5.67105 v 34.51936 h -5.67105 v -5.30119 q -2.06499,3.14373 -4.80805,4.68477 -2.71224,1.51023 -6.31828,1.51023 -5.94842,0 -9.03051,-3.69851 -3.08208,-3.6985 -3.08208,-10.81812 z m 14.27006,-21.7287 z"
           id="path494"
           inkscape:label="u"
           style="fill:#ff5e13;fill-opacity:1;stroke-width:1.15768;stroke-dasharray:none" />
        <path
           d="m 827.59476,-236.15793 v 5.30119 q -2.40403,-1.3253 -4.83888,-1.97253 -2.40402,-0.67806 -4.86969,-0.67806 -5.51694,0 -8.5682,3.51358 -3.05127,3.48276 -3.05127,9.80103 0,6.31827 3.05127,9.83185 3.05126,3.48276 8.5682,3.48276 2.46567,0 4.86969,-0.64724 2.43485,-0.67805 4.83888,-2.00336 v 5.23955 q -2.3732,1.10955 -4.93134,1.66433 -2.52731,0.55478 -5.39365,0.55478 -7.79768,0 -12.38999,-4.90052 -4.5923,-4.90052 -4.5923,-13.22215 0,-8.44492 4.62312,-13.28379 4.65396,-4.83887 12.72902,-4.83887 2.61977,0 5.11626,0.55476 2.4965,0.52396 4.83888,1.60269 z"
           id="path496"
           inkscape:label="c"
           style="fill:#ff5e13;fill-opacity:1;stroke-width:1.15768;stroke-dasharray:none" />
        <path
           d="m 862.29905,-236.15793 v 5.30119 q -2.40403,-1.3253 -4.83889,-1.97253 -2.40402,-0.67806 -4.86969,-0.67806 -5.51693,0 -8.56819,3.51358 -3.05127,3.48276 -3.05127,9.80103 0,6.31827 3.05127,9.83185 3.05126,3.48276 8.56819,3.48276 2.46567,0 4.86969,-0.64724 2.43486,-0.67805 4.83889,-2.00336 v 5.23955 q -2.37322,1.10955 -4.93135,1.66433 -2.5273,0.55478 -5.39364,0.55478 -7.79768,0 -12.38999,-4.90052 -4.59231,-4.90052 -4.59231,-13.22215 0,-8.44492 4.62313,-13.28379 4.65395,-4.83887 12.72902,-4.83887 2.61977,0 5.11625,0.55476 2.49649,0.52396 4.83889,1.60269 z"
           id="path498"
           inkscape:label="c"
           style="fill:#ff5e13;fill-opacity:1;stroke-width:1.15768;stroke-dasharray:none" />
        <path
           d="m 872.16172,-237.48322 h 5.67103 v 34.51936 h -5.67103 z m 0,-13.4379 h 5.67103 v 7.18127 h -5.67103 z"
           id="path500"
           inkscape:label="i"
           style="fill:#ff5e13;fill-opacity:1;stroke-width:1.15768;stroke-dasharray:none" />
        <path
           d="m 903.07506,-233.50733 q -4.56149,0 -7.21209,3.57521 -2.6506,3.5444 -2.6506,9.7394 0,6.19499 2.61978,9.77022 2.65059,3.54439 7.24291,3.54439 4.53066,0 7.18125,-3.57522 2.65059,-3.57522 2.65059,-9.73939 0,-6.13335 -2.65059,-9.70858 -2.65059,-3.60603 -7.18125,-3.60603 z m 0,-4.80805 q 7.397,0 11.61946,4.80805 4.22246,4.80805 4.22246,13.31461 0,8.47574 -4.22246,13.31461 -4.22246,4.80806 -11.61946,4.80806 -7.42784,0 -11.6503,-4.80806 -4.19164,-4.83887 -4.19164,-13.31461 0,-8.50656 4.19164,-13.31461 4.22246,-4.80805 11.6503,-4.80805 z"
           id="path502"
           inkscape:label="o"
           style="fill:#ff5e13;fill-opacity:1;stroke-width:1.15768;stroke-dasharray:none" />
        <path
           d="m 957.01154,-223.79877 v 20.83491 h -5.67105 v -20.64998 q 0,-4.90052 -1.91089,-7.33536 -1.91089,-2.43485 -5.73268,-2.43485 -4.5923,0 -7.24289,2.92798 -2.6506,2.92799 -2.6506,7.98261 v 19.5096 h -5.70185 v -34.51936 h 5.70185 v 5.36283 q 2.03417,-3.11291 4.77724,-4.65395 2.77388,-1.54104 6.37991,-1.54104 5.94843,0 8.99969,3.69849 3.05127,3.66769 3.05127,10.81812 z"
           id="path504"
           inkscape:label="n"
           style="fill:#ff5e13;fill-opacity:1;stroke-width:1.15768;stroke-dasharray:none" />
        <path
           d="m 997.84918,-221.6413 v 2.77388 h -26.07444 q 0.36985,5.85595 3.51358,8.93805 3.17454,3.05126 8.81476,3.05126 3.26701,0 6.31828,-0.80134 3.08208,-0.80135 6.10253,-2.40402 v 5.36282 q -3.05127,1.29447 -6.25663,1.97254 -3.20538,0.67806 -6.50321,0.67806 -8.25999,0 -13.09886,-4.80806 -4.80805,-4.80805 -4.80805,-13.0064 0,-8.47574 4.56149,-13.4379 4.5923,-4.99297 12.35916,-4.99297 6.96551,0 11.00304,4.49984 4.06835,4.46902 4.06835,12.17424 z m -5.67103,-1.66433 q -0.0617,-4.65395 -2.61977,-7.42783 -2.52732,-2.77387 -6.71896,-2.77387 -4.74641,0 -7.61274,2.68142 -2.83553,2.6814 -3.26701,7.5511 z"
           id="path506"
           inkscape:label="e"
           style="fill:#ff5e13;fill-opacity:1;stroke-width:1.15768;stroke-dasharray:none" />
        <path
           d="m 1029.1632,-236.46613 v 5.36282 q -2.4041,-1.23283 -4.993,-1.84924 -2.589,-0.61643 -5.3628,-0.61643 -4.2225,0 -6.3491,1.29448 -2.0959,1.29449 -2.0959,3.88344 0,1.97252 1.5103,3.1129 1.5102,1.10954 6.0717,2.12664 l 1.9417,0.43149 q 6.0409,1.29448 8.5682,3.66768 2.5581,2.34239 2.5581,6.56484 0,4.80806 -3.8218,7.61276 -3.7909,2.8047 -10.4482,2.8047 -2.7739,0 -5.7943,-0.55478 -2.9897,-0.52395 -6.3183,-1.60269 v -5.85595 q 3.1437,1.63349 6.195,2.46565 3.0512,0.80135 6.0409,0.80135 4.0067,0 6.1641,-1.35611 2.1575,-1.38694 2.1575,-3.88343 0,-2.31157 -1.5719,-3.54441 -1.541,-1.23283 -6.8114,-2.3732 l -1.9725,-0.46231 q -5.2704,-1.10955 -7.6128,-3.3903 -2.3424,-2.31156 -2.3424,-6.31828 0,-4.86969 3.452,-7.52029 3.4519,-2.65058 9.801,-2.65058 3.1437,0 5.9176,0.46231 2.7739,0.46231 5.1163,1.38694 z"
           id="path508"
           inkscape:label="s"
           style="fill:#ff5e13;fill-opacity:1;stroke-width:1.15768;stroke-dasharray:none" />
      </g>
    </g>
    <text
       xml:space="preserve"
       style="font-size:1929.47px;font-family:'Streetbomber personal use';-inkscape-font-specification:'Streetbomber personal use';text-align:center;text-anchor:middle;opacity:0.503058;fill:#000000;fill-rule:evenodd;stroke:#000000;stroke-width:9.64067;stroke-linejoin:bevel;paint-order:markers stroke fill"
       x="787.07013"
       y="-209.27287"
       id="text4865"
       transform="scale(1,-1)"><tspan
         sodipodi:role="line"
         id="tspan4863"
         style="stroke-width:9.64066"
         x="787.07013"
         y="-209.27287"></tspan></text>
  </g>
</svg>
