<?xml version="1.0" encoding="UTF-8" standalone="no"?>
<!-- Created with Inkscape (http://www.inkscape.org/) -->

<svg
   version="1.1"
   id="svg2"
   width="210"
   height="70"
   viewBox="0 0 210.00001 70.000002"
   sodipodi:docname="light.svg"
   inkscape:version="1.2.1 (9c6d41e410, 2022-07-14)"
   inkscape:export-filename="logo-marai-main.svg"
   inkscape:export-xdpi="101.33334"
   inkscape:export-ydpi="101.33334"
   xmlns:inkscape="http://www.inkscape.org/namespaces/inkscape"
   xmlns:sodipodi="http://sodipodi.sourceforge.net/DTD/sodipodi-0.dtd"
   xmlns="http://www.w3.org/2000/svg"
   xmlns:svg="http://www.w3.org/2000/svg">
  <defs
     id="defs6" />
  <sodipodi:namedview
     id="namedview4"
     pagecolor="#ffffff"
     bordercolor="#666666"
     borderopacity="1.0"
     inkscape:showpageshadow="2"
     inkscape:pageopacity="0.0"
     inkscape:pagecheckerboard="0"
     inkscape:deskcolor="#d1d1d1"
     showgrid="false"
     inkscape:zoom="4"
     inkscape:cx="57.75"
     inkscape:cy="40.125"
     inkscape:window-width="1489"
     inkscape:window-height="750"
     inkscape:window-x="733"
     inkscape:window-y="277"
     inkscape:window-maximized="0"
     inkscape:current-layer="g3266" />
  <g
     id="g3266"
     inkscape:export-filename="../../oxybuild-react/public/images/logo/dark.png"
     inkscape:export-xdpi="27.986971"
     inkscape:export-ydpi="27.986971"
     transform="matrix(0.25913862,0,0,-0.25913862,-103.43108,88.179859)"
     inkscape:label="logotipo">
    <g
       aria-label="Amarilla"
       transform="matrix(0.92624335,0,0,-0.92624335,50.746259,22.967254)"
       id="text970-8"
       style="font-size:144px;line-height:0;font-family:'Phetsarath OT';-inkscape-font-specification:'Phetsarath OT';text-align:center;text-anchor:middle;fill:#333333;stroke-width:4.60397"
       inkscape:label="amarilla" />
    <g
       id="g1271"
       transform="matrix(0.97478439,0,0,0.97478439,140.58946,-79.42793)">
      <path
         d="m 529.86291,264.24152 v 93.63009 h 16.54449 l -0.0607,-6.55632 c 4.08125,2.71504 4.26436,2.85296 9.14277,5.61543 4.87841,2.82125 10.7265,3.05682 16.95674,3.05682 6.93557,0 12.60745,-1.44001 17.01564,-4.32003 4.46697,-2.88003 7.61147,-6.90619 9.43354,-12.07846 7.40578,10.93233 17.04501,16.39849 28.91775,16.39849 9.28662,0 16.4279,-2.58615 21.42385,-7.75841 4.99595,-5.11352 7.49393,-13.01889 7.49393,-23.7161 V 264.24152 H 640.9495 v 58.98166 c 0,6.34782 -0.52899,10.90295 -1.58694,13.66541 -0.9992,2.82125 -2.85064,3.32157 -5.55434,5.02607 -2.70368,1.70449 -5.87758,2.55675 -9.5217,2.55675 -6.58291,0 -12.04907,-2.2041 -16.39848,-6.61231 -4.34942,-4.34941 -6.52414,-9.58117 -6.52414,-19.22043 v -54.39715 h -15.8695 v 60.83312 c 0,7.05311 -1.29307,10.58037 -3.87922,14.10693 -2.58613,3.52656 -6.818,5.28984 -12.69561,5.28984 -4.46697,0 -8.02314,-1.76306 -11.84358,-4.11408 -3.76165,-2.35104 -6.93114,-5.77172 -8.78675,-9.72765 -2.547,-5.42978 -2.55678,-9.28733 -2.55678,-17.80983 v -48.57833 z"
         id="path5659"
         style="font-size:144px;line-height:0;font-family:'Phetsarath OT';-inkscape-font-specification:'Phetsarath OT';text-align:center;text-anchor:middle;fill:#f2f2f2;fill-opacity:1;stroke-width:5.77285"
         inkscape:label="m"
         sodipodi:nodetypes="cccccsccscsccscsscsccssscascc" />
      <path
         d="m 743.06547,275.79099 c -5.87759,-4.99594 -11.54947,-8.5225 -17.01562,-10.57966 -5.4074,-2.05715 -11.22623,-3.08575 -17.45648,-3.08575 -10.28578,0 -18.19114,2.49799 -23.71609,7.49395 -5.52492,5.05472 -8.2874,11.49069 -8.2874,19.30789 0,4.58454 1.02858,8.75762 3.08573,12.51928 2.11593,3.82043 4.84902,6.87678 8.19925,9.16905 3.40901,2.29227 7.22943,4.02616 11.4613,5.20168 3.11513,0.82286 7.8172,1.61631 14.10623,2.3804 12.81316,1.52818 22.2467,3.35024 28.30062,5.46619 0.0588,2.1747 0.0881,3.55593 0.0881,4.14369 0,6.46536 -1.49879,11.02049 -4.49638,13.6654 -4.05553,3.58534 -10.08006,5.37802 -18.07359,5.37802 -7.46454,0 -12.98948,-1.32248 -16.57481,-3.96739 -3.52657,-2.58616 -6.1421,-7.20006 -7.8466,-13.84175 l -15.51686,2.11595 c 1.41063,6.64168 3.73228,11.99028 6.96496,16.04584 3.23267,4.11431 7.90538,7.25883 14.01807,9.43353 6.11269,2.23349 13.1952,3.35023 21.2475,3.35023 7.99352,0 14.48827,-0.9404 19.48423,-2.82125 4.99594,-1.88083 8.66946,-4.26125 11.02048,-7.14127 2.35104,-2.82124 3.99677,-6.40658 4.93719,-10.756 0.52899,-2.70369 0.79347,-7.58209 0.79347,-14.63521 v -21.15934 c 0,-14.75275 0.3295,-24.31023 0.55436,-28.24383 l 0.004,-10.98912 h -15.32806 c 0,3.5241 -0.10719,11.54947 0.0458,11.54947 z m -1.32246,35.4419 c -5.76005,-2.35103 -14.4001,-4.3494 -25.92019,-5.99514 -6.52412,-0.94042 -11.13804,-1.99838 -13.84173,-3.17391 -2.7037,-1.1755 -4.79025,-2.9094 -6.25965,-5.20166 -1.46939,-2.23349 -2.20409,-4.73147 -2.20409,-7.49394 0,-4.23186 1.58696,-7.75842 4.76086,-10.57967 3.23266,-2.82125 7.93474,-4.23187 14.10622,-4.23187 6.11269,0 11.54947,1.32247 16.31032,3.96739 4.76086,2.70368 8.25802,6.37718 10.4915,11.02048 1.70451,3.58533 2.55676,8.87517 2.55676,15.8695 z"
         id="path5661"
         style="font-size:144px;line-height:0;font-family:'Phetsarath OT';-inkscape-font-specification:'Phetsarath OT';text-align:center;text-anchor:middle;fill:#f2f2f2;fill-opacity:1;stroke-width:5.77285"
         inkscape:label="a"
         sodipodi:nodetypes="scscscccccscscccccssccssscccsccscscsccsc" />
      <path
         d="m 783.90756,264.24152 v 93.63009 h 14.28256 l 0.62316,-10.66315 c 2.53881,1.27217 52.04286,20.86424 53.62977,16.01996 4.47057,-13.64698 -2.32191,-88.07018 -2.32191,-88.07018 -1.12672,18.05776 -3.79183,65.93264 -10.22122,68.17854 -10.29365,1.14411 -27.37444,-7.23641 -36.00913,-13.91178 -3.38024,-4.81004 -4.11373,-9.46388 -4.11373,-16.16434 v -49.01914 z"
         id="path5663"
         style="font-size:144px;line-height:0;font-family:'Phetsarath OT';-inkscape-font-specification:'Phetsarath OT';text-align:center;text-anchor:middle;fill:#f2f2f2;fill-opacity:1;stroke-width:5.77285"
         inkscape:label="r"
         sodipodi:nodetypes="ccccscccscc" />
      <path
         d="m 410.78607,235.80351 v 60.22507 l -23.14364,23.14364 -23.14438,-23.14364 v -71.79725 l -69.43238,-17.35828 v -14.654 h 185.15278 v 60.94274 z"
         style="font-size:144px;line-height:0;font-family:'Phetsarath OT';-inkscape-font-specification:'Phetsarath OT';text-align:center;text-anchor:middle;fill:#ff5e13;fill-opacity:1;fill-rule:nonzero;stroke:none;stroke-width:3.37501"
         id="path32-8"
         inkscape:label="casa" />
      <path
         d="M 385.8411,429.81948 265.98399,309.96167 c -1.60467,-1.60396 -0.46842,-4.34783 1.80042,-4.34783 h 27.28107 v -98.72991 l 46.28874,34.70535 v 64.02456 l 46.28801,46.28802 46.28801,-46.28802 v -40.88018 l 46.28801,-11.63175 v 52.51193 h 27.2818 c 2.26885,0 3.4051,2.74387 1.80115,4.34783 L 389.44338,429.81948 c -0.99478,0.99477 -2.60752,0.99477 -3.60228,0"
         style="font-size:144px;line-height:0;font-family:'Phetsarath OT';-inkscape-font-specification:'Phetsarath OT';text-align:center;text-anchor:middle;fill:#0a369d;fill-opacity:1;fill-rule:nonzero;stroke:none;stroke-width:3.37501"
         id="path200-8"
         sodipodi:nodetypes="ccscccccccccsssc"
         inkscape:label="techo" />
      <path
         style="font-size:144px;line-height:0;font-family:'Phetsarath OT';-inkscape-font-specification:'Phetsarath OT';text-align:center;text-anchor:middle;fill:#ffffff;fill-opacity:1;fill-rule:evenodd;stroke:#000000;stroke-width:0.103589;stroke-linejoin:bevel;stroke-dasharray:none;stroke-opacity:0.990461;paint-order:markers stroke fill"
         d="m 300.40083,209.80962 c 0.27695,0.4273 9.60971,7.53609 20.73939,15.79732 l 20.23581,15.0204 0.0396,32.12122 0.0395,32.12124 23.0571,23.04002 23.0571,23.04001 23.04001,-23.05709 23.04002,-23.05709 v -20.32639 -20.32638 l 22.01266,-5.49492 22.01267,-5.49491 -32.11259,-8.06585 c -17.66193,-4.43621 -32.69529,-8.07926 -33.40746,-8.09565 -1.00658,-0.0232 -1.29487,6.60462 -1.29487,29.76892 v 29.79875 l -11.67031,11.6372 -11.67032,11.63721 -11.63722,-11.67031 -11.63721,-11.67033 v -35.85181 -35.85182 l -31.58256,-7.89833 c -33.88066,-8.47305 -33.01332,-8.2816 -32.26131,-7.12141 z"
         id="path7654"
         inkscape:label="relleno" />
      <path
         d="m 933.87996,276.13515 c -5.8775,-4.99595 -11.54944,-8.5225 -17.0156,-10.57967 -5.40739,-2.05715 -11.22622,-3.08574 -17.45647,-3.08574 -10.28578,0 -18.19114,2.49798 -23.7161,7.49394 -5.52492,5.05472 -8.28739,11.4907 -8.28739,19.30789 0,4.58454 1.02858,8.75763 3.08573,12.51929 2.11593,3.82043 4.84901,6.87678 8.19925,9.16904 3.40901,2.29228 7.22944,4.02616 11.4613,5.20168 3.11514,0.82286 7.81721,1.61632 14.10622,2.38041 12.81317,1.52818 22.24668,3.35025 28.30063,5.46617 0.0587,2.17472 0.088,3.55595 0.088,4.14371 0,6.46536 -1.49877,11.02049 -4.4964,13.6654 -4.05549,3.58534 -10.08003,5.37802 -18.07357,5.37802 -7.46454,0 -12.98946,-1.32247 -16.5748,-3.9674 -3.52658,-2.58615 -6.14211,-7.20005 -7.8466,-13.84174 l -15.51687,2.11595 c 1.41063,6.64168 3.73229,11.99028 6.96496,16.04583 3.23268,4.11432 7.90538,7.25884 14.01807,9.43353 6.1127,2.23349 13.1952,3.35025 21.2475,3.35025 7.99352,0 14.48831,-0.94043 19.48428,-2.82127 4.99595,-1.88081 8.66935,-4.26124 11.02046,-7.14128 2.35097,-2.82123 3.99674,-6.40656 4.93717,-10.75598 0.52901,-2.7037 0.79345,-7.5821 0.79345,-14.63521 v -21.15934 c 0,-14.75276 0.32954,-24.31023 0.55438,-28.24384 v -10.98911 h -15.32847 c 0,3.52409 -0.10719,11.54947 0.0463,11.54947 z m -1.32243,35.44189 c -5.76006,-2.35102 -14.40011,-4.34939 -25.92019,-5.99512 -6.52413,-0.94042 -11.13803,-1.99839 -13.84173,-3.17392 -2.70369,-1.17551 -4.79025,-2.90941 -6.25964,-5.20166 -1.46941,-2.23349 -2.2041,-4.73148 -2.2041,-7.49394 0,-4.23186 1.58695,-7.75841 4.76085,-10.57966 3.23268,-2.82125 7.93476,-4.23188 14.10623,-4.23188 6.11269,0 11.54946,1.32247 16.31032,3.96739 4.76086,2.70369 8.25808,6.37717 10.4915,11.02047 1.70454,3.58533 2.55676,8.87518 2.55676,15.8695 z"
         id="path1238"
         style="font-size:144px;line-height:0;font-family:'Phetsarath OT';-inkscape-font-specification:'Phetsarath OT';text-align:center;text-anchor:middle;fill:#f2f2f2;fill-opacity:1;stroke-width:5.77285"
         inkscape:label="a"
         sodipodi:nodetypes="scscscccccscscccccssccssscccsccscscsccsc" />
      <g
         aria-label="construcciones"
         transform="matrix(1.0182639,0,0,-1.0182639,-48.49383,-12.654148)"
         id="text910-3"
         style="font-size:46.3631px;line-height:1.25;font-family:'MADE Outer Sans';-inkscape-font-specification:'MADE Outer Sans';text-align:center;text-anchor:middle;display:inline;fill:#ff5e13;fill-opacity:1;stroke-width:1.15768;stroke-dasharray:none"
         inkscape:label="construcciones">
        <path
           d="m 590.67482,-236.15793 v 5.30119 q -2.40403,-1.3253 -4.83887,-1.97253 -2.40403,-0.67806 -4.8697,-0.67806 -5.51694,0 -8.5682,3.51358 -3.05127,3.48276 -3.05127,9.80103 0,6.31827 3.05127,9.83185 3.05126,3.48276 8.5682,3.48276 2.46567,0 4.8697,-0.64724 2.43484,-0.67805 4.83887,-2.00336 v 5.23955 q -2.3732,1.10955 -4.93134,1.66433 -2.52731,0.55478 -5.39365,0.55478 -7.79768,0 -12.38999,-4.90052 -4.5923,-4.90052 -4.5923,-13.22215 0,-8.44492 4.62312,-13.28379 4.65395,-4.83887 12.72902,-4.83887 2.61977,0 5.11627,0.55476 2.49648,0.52396 4.83887,1.60269 z"
           id="path482"
           inkscape:label="c"
           style="fill:#ff5e13;fill-opacity:1;stroke-width:1.15768;stroke-dasharray:none" />
        <path
           d="m 613.91375,-233.50733 q -4.56149,0 -7.21209,3.57521 -2.65059,3.5444 -2.65059,9.7394 0,6.19499 2.61977,9.77022 2.6506,3.54439 7.24291,3.54439 4.53067,0 7.18125,-3.57522 2.6506,-3.57522 2.6506,-9.73939 0,-6.13335 -2.6506,-9.70858 -2.65058,-3.60603 -7.18125,-3.60603 z m 0,-4.80805 q 7.397,0 11.61946,4.80805 4.22246,4.80805 4.22246,13.31461 0,8.47574 -4.22246,13.31461 -4.22246,4.80806 -11.61946,4.80806 -7.42784,0 -11.6503,-4.80806 -4.19162,-4.83887 -4.19162,-13.31461 0,-8.50656 4.19162,-13.31461 4.22246,-4.80805 11.6503,-4.80805 z"
           id="path484"
           inkscape:label="o"
           style="fill:#ff5e13;fill-opacity:1;stroke-width:1.15768;stroke-dasharray:none" />
        <path
           d="m 667.85025,-223.79877 v 20.83491 h -5.67103 v -20.64998 q 0,-4.90052 -1.9109,-7.33536 -1.91089,-2.43485 -5.73268,-2.43485 -4.59231,0 -7.24291,2.92798 -2.65059,2.92799 -2.65059,7.98261 v 19.5096 h -5.70186 v -34.51936 h 5.70186 v 5.36283 q 2.03418,-3.11291 4.77724,-4.65395 2.77387,-1.54104 6.37991,-1.54104 5.94843,0 8.9997,3.69849 3.05126,3.66769 3.05126,10.81812 z"
           id="path486"
           inkscape:label="n"
           style="fill:#ff5e13;fill-opacity:1;stroke-width:1.15768;stroke-dasharray:none" />
        <path
           d="m 701.1676,-236.46613 v 5.36282 q -2.40403,-1.23283 -4.99298,-1.84924 -2.58896,-0.61643 -5.36284,-0.61643 -4.22244,0 -6.34909,1.29448 -2.09581,1.29449 -2.09581,3.88344 0,1.97252 1.51021,3.1129 1.51022,1.10954 6.07171,2.12664 l 1.94172,0.43149 q 6.04088,1.29448 8.5682,3.66768 2.55812,2.34239 2.55812,6.56484 0,4.80806 -3.82178,7.61276 -3.79096,2.8047 -10.44827,2.8047 -2.77388,0 -5.79433,-0.55478 -2.98961,-0.52395 -6.31826,-1.60269 v -5.85595 q 3.14373,1.63349 6.19498,2.46565 3.05128,0.80135 6.04089,0.80135 4.00671,0 6.16418,-1.35611 2.15746,-1.38694 2.15746,-3.88343 0,-2.31157 -1.57186,-3.54441 -1.54104,-1.23283 -6.81141,-2.3732 l -1.97254,-0.46231 q -5.27037,-1.10955 -7.61275,-3.3903 -2.34239,-2.31156 -2.34239,-6.31828 0,-4.86969 3.45193,-7.52029 3.45195,-2.65058 9.80104,-2.65058 3.14372,0 5.9176,0.46231 2.77388,0.46231 5.11627,1.38694 z"
           id="path488"
           inkscape:label="s"
           style="fill:#ff5e13;fill-opacity:1;stroke-width:1.15768;stroke-dasharray:none" />
        <path
           d="m 717.65675,-247.28426 v 9.80104 h 11.68111 v 4.40739 h -11.68111 v 18.73907 q 0,4.22246 1.14038,5.42448 1.17119,1.20201 4.71558,1.20201 h 5.82515 v 4.74641 h -5.82515 q -6.56484,0 -9.06133,-2.43484 -2.49648,-2.46567 -2.49648,-8.93806 v -18.73907 h -4.16082 v -4.40739 h 4.16082 v -9.80104 z"
           id="path490"
           inkscape:label="t"
           style="fill:#ff5e13;fill-opacity:1;stroke-width:1.15768;stroke-dasharray:none" />
        <path
           d="m 756.79924,-232.18204 q -0.95544,-0.55476 -2.09582,-0.80134 -1.10954,-0.27738 -2.46567,-0.27738 -4.80805,0 -7.397,3.14373 -2.55813,3.1129 -2.55813,8.96886 v 18.18431 h -5.70186 v -34.51936 h 5.70186 v 5.36283 q 1.7876,-3.14373 4.65395,-4.65395 2.86633,-1.54104 6.96551,-1.54104 0.5856,0 1.29447,0.0924 0.70888,0.0617 1.57187,0.21575 z"
           id="path492"
           inkscape:label="r"
           style="fill:#ff5e13;fill-opacity:1;stroke-width:1.15768;stroke-dasharray:none" />
        <path
           d="m 762.16209,-216.58668 v -20.89654 h 5.67103 v 20.68079 q 0,4.90052 1.9109,7.36619 1.91089,2.43485 5.73268,2.43485 4.59231,0 7.24291,-2.92798 2.6814,-2.92798 2.6814,-7.9826 v -19.57125 h 5.67105 v 34.51936 h -5.67105 v -5.30119 q -2.06499,3.14373 -4.80805,4.68477 -2.71224,1.51023 -6.31828,1.51023 -5.94842,0 -9.03051,-3.69851 -3.08208,-3.6985 -3.08208,-10.81812 z m 14.27006,-21.7287 z"
           id="path494"
           inkscape:label="u"
           style="fill:#ff5e13;fill-opacity:1;stroke-width:1.15768;stroke-dasharray:none" />
        <path
           d="m 827.59476,-236.15793 v 5.30119 q -2.40403,-1.3253 -4.83888,-1.97253 -2.40402,-0.67806 -4.86969,-0.67806 -5.51694,0 -8.5682,3.51358 -3.05127,3.48276 -3.05127,9.80103 0,6.31827 3.05127,9.83185 3.05126,3.48276 8.5682,3.48276 2.46567,0 4.86969,-0.64724 2.43485,-0.67805 4.83888,-2.00336 v 5.23955 q -2.3732,1.10955 -4.93134,1.66433 -2.52731,0.55478 -5.39365,0.55478 -7.79768,0 -12.38999,-4.90052 -4.5923,-4.90052 -4.5923,-13.22215 0,-8.44492 4.62312,-13.28379 4.65396,-4.83887 12.72902,-4.83887 2.61977,0 5.11626,0.55476 2.4965,0.52396 4.83888,1.60269 z"
           id="path496"
           inkscape:label="c"
           style="fill:#ff5e13;fill-opacity:1;stroke-width:1.15768;stroke-dasharray:none" />
        <path
           d="m 862.29905,-236.15793 v 5.30119 q -2.40403,-1.3253 -4.83889,-1.97253 -2.40402,-0.67806 -4.86969,-0.67806 -5.51693,0 -8.56819,3.51358 -3.05127,3.48276 -3.05127,9.80103 0,6.31827 3.05127,9.83185 3.05126,3.48276 8.56819,3.48276 2.46567,0 4.86969,-0.64724 2.43486,-0.67805 4.83889,-2.00336 v 5.23955 q -2.37322,1.10955 -4.93135,1.66433 -2.5273,0.55478 -5.39364,0.55478 -7.79768,0 -12.38999,-4.90052 -4.59231,-4.90052 -4.59231,-13.22215 0,-8.44492 4.62313,-13.28379 4.65395,-4.83887 12.72902,-4.83887 2.61977,0 5.11625,0.55476 2.49649,0.52396 4.83889,1.60269 z"
           id="path498"
           inkscape:label="c"
           style="fill:#ff5e13;fill-opacity:1;stroke-width:1.15768;stroke-dasharray:none" />
        <path
           d="m 872.16172,-237.48322 h 5.67103 v 34.51936 h -5.67103 z m 0,-13.4379 h 5.67103 v 7.18127 h -5.67103 z"
           id="path500"
           inkscape:label="i"
           style="fill:#ff5e13;fill-opacity:1;stroke-width:1.15768;stroke-dasharray:none" />
        <path
           d="m 903.07506,-233.50733 q -4.56149,0 -7.21209,3.57521 -2.6506,3.5444 -2.6506,9.7394 0,6.19499 2.61978,9.77022 2.65059,3.54439 7.24291,3.54439 4.53066,0 7.18125,-3.57522 2.65059,-3.57522 2.65059,-9.73939 0,-6.13335 -2.65059,-9.70858 -2.65059,-3.60603 -7.18125,-3.60603 z m 0,-4.80805 q 7.397,0 11.61946,4.80805 4.22246,4.80805 4.22246,13.31461 0,8.47574 -4.22246,13.31461 -4.22246,4.80806 -11.61946,4.80806 -7.42784,0 -11.6503,-4.80806 -4.19164,-4.83887 -4.19164,-13.31461 0,-8.50656 4.19164,-13.31461 4.22246,-4.80805 11.6503,-4.80805 z"
           id="path502"
           inkscape:label="o"
           style="fill:#ff5e13;fill-opacity:1;stroke-width:1.15768;stroke-dasharray:none" />
        <path
           d="m 957.01154,-223.79877 v 20.83491 h -5.67105 v -20.64998 q 0,-4.90052 -1.91089,-7.33536 -1.91089,-2.43485 -5.73268,-2.43485 -4.5923,0 -7.24289,2.92798 -2.6506,2.92799 -2.6506,7.98261 v 19.5096 h -5.70185 v -34.51936 h 5.70185 v 5.36283 q 2.03417,-3.11291 4.77724,-4.65395 2.77388,-1.54104 6.37991,-1.54104 5.94843,0 8.99969,3.69849 3.05127,3.66769 3.05127,10.81812 z"
           id="path504"
           inkscape:label="n"
           style="fill:#ff5e13;fill-opacity:1;stroke-width:1.15768;stroke-dasharray:none" />
        <path
           d="m 997.84918,-221.6413 v 2.77388 h -26.07444 q 0.36985,5.85595 3.51358,8.93805 3.17454,3.05126 8.81476,3.05126 3.26701,0 6.31828,-0.80134 3.08208,-0.80135 6.10253,-2.40402 v 5.36282 q -3.05127,1.29447 -6.25663,1.97254 -3.20538,0.67806 -6.50321,0.67806 -8.25999,0 -13.09886,-4.80806 -4.80805,-4.80805 -4.80805,-13.0064 0,-8.47574 4.56149,-13.4379 4.5923,-4.99297 12.35916,-4.99297 6.96551,0 11.00304,4.49984 4.06835,4.46902 4.06835,12.17424 z m -5.67103,-1.66433 q -0.0617,-4.65395 -2.61977,-7.42783 -2.52732,-2.77387 -6.71896,-2.77387 -4.74641,0 -7.61274,2.68142 -2.83553,2.6814 -3.26701,7.5511 z"
           id="path506"
           inkscape:label="e"
           style="fill:#ff5e13;fill-opacity:1;stroke-width:1.15768;stroke-dasharray:none" />
        <path
           d="m 1029.1632,-236.46613 v 5.36282 q -2.4041,-1.23283 -4.993,-1.84924 -2.589,-0.61643 -5.3628,-0.61643 -4.2225,0 -6.3491,1.29448 -2.0959,1.29449 -2.0959,3.88344 0,1.97252 1.5103,3.1129 1.5102,1.10954 6.0717,2.12664 l 1.9417,0.43149 q 6.0409,1.29448 8.5682,3.66768 2.5581,2.34239 2.5581,6.56484 0,4.80806 -3.8218,7.61276 -3.7909,2.8047 -10.4482,2.8047 -2.7739,0 -5.7943,-0.55478 -2.9897,-0.52395 -6.3183,-1.60269 v -5.85595 q 3.1437,1.63349 6.195,2.46565 3.0512,0.80135 6.0409,0.80135 4.0067,0 6.1641,-1.35611 2.1575,-1.38694 2.1575,-3.88343 0,-2.31157 -1.5719,-3.54441 -1.541,-1.23283 -6.8114,-2.3732 l -1.9725,-0.46231 q -5.2704,-1.10955 -7.6128,-3.3903 -2.3424,-2.31156 -2.3424,-6.31828 0,-4.86969 3.452,-7.52029 3.4519,-2.65058 9.801,-2.65058 3.1437,0 5.9176,0.46231 2.7739,0.46231 5.1163,1.38694 z"
           id="path508"
           inkscape:label="s"
           style="fill:#ff5e13;fill-opacity:1;stroke-width:1.15768;stroke-dasharray:none" />
      </g>
      <path
         d="m 974.2929,374.13469 v 18.18618 h 15.81407 v -18.18618 z m 0,-110.61056 -0.0284,93.28718 15.84244,0.0157 v -93.30296 z"
         id="path5665"
         sodipodi:nodetypes="cccccccccc"
         style="font-size:144px;line-height:0;font-family:'Phetsarath OT';-inkscape-font-specification:'Phetsarath OT';text-align:center;text-anchor:middle;fill:#f2f2f2;fill-opacity:1;stroke-width:5.75268" />
    </g>
    <text
       xml:space="preserve"
       style="font-size:1929.47px;font-family:'Streetbomber personal use';-inkscape-font-specification:'Streetbomber personal use';text-align:center;text-anchor:middle;opacity:0.503058;fill:#000000;fill-rule:evenodd;stroke:#000000;stroke-width:9.64067;stroke-linejoin:bevel;paint-order:markers stroke fill"
       x="787.07013"
       y="-209.27287"
       id="text4865"
       transform="scale(1,-1)"><tspan
         sodipodi:role="line"
         id="tspan4863"
         style="stroke-width:9.64066"
         x="787.07013"
         y="-209.27287"></tspan></text>
  </g>
</svg>
